{
.appVersion = "895";
DisplayStrings = (
"The quick brown\012fox jumps over\012the lazy dog",
" "
);
copyright = "Copyright © 2016 by Chris Simpson.";
date = "2016-07-29 23:55:50 +0000";
designer = "Chris Simpson";
designerURL = "https://github.com/chrismsimpson/Metropolis";
familyName = Metropolis;
fontMaster = (
{
alignmentZones = (
"{795, 12}",
"{687, 12}",
"{517, 12}",
"{0, -12}",
"{-205, -12}"
);
ascender = 795;
capHeight = 687;
customParameters = (
{
name = typoAscender;
value = 795;
},
{
name = typoDescender;
value = -205;
},
{
name = typoLineGap;
value = 0;
},
{
name = hheaAscender;
value = 795;
},
{
name = hheaDescender;
value = -205;
},
{
name = underlinePosition;
value = -133;
},
{
name = underlineThickness;
value = 20;
},
{
name = winAscent;
value = 795;
},
{
name = winDescent;
value = 205;
}
);
descender = -205;
horizontalStems = (
36
);
id = "3B040282-CF47-4846-BCAF-7BFF90FB63BC";
verticalStems = (
36
);
weight = Light;
widthValue = 5;
xHeight = 517;
},
{
alignmentZones = (
"{795, 12}",
"{687, 12}",
"{517, 12}",
"{0, -12}",
"{-205, -12}"
);
ascender = 795;
capHeight = 687;
customParameters = (
{
name = typoAscender;
value = 795;
},
{
name = typoDescender;
value = -205;
},
{
name = typoLineGap;
value = 0;
},
{
name = winAscent;
value = 795;
},
{
name = winDescent;
value = 205;
},
{
name = hheaAscender;
value = 795;
},
{
name = hheaDescender;
value = -205;
},
{
name = underlinePosition;
value = -133;
},
{
name = underlineThickness;
value = 20;
}
);
descender = -205;
horizontalStems = (
67,
71,
74
);
id = "35616FF6-3D9C-499B-B113-AC9E0DB5842A";
userData = {
GSCornerRadius = 74;
};
verticalStems = (
75,
78,
79
);
visible = 1;
weightValue = 400;
widthValue = 5;
xHeight = 517;
},
{
alignmentZones = (
"{795, 12}",
"{687, 12}",
"{517, 12}",
"{0, -12}",
"{-205, -12}"
);
ascender = 795;
capHeight = 687;
customParameters = (
{
name = typoAscender;
value = 795;
},
{
name = typoDescender;
value = -205;
},
{
name = typoLineGap;
value = 0;
},
{
name = hheaAscender;

glyphs = (
{
glyphname = A;
lastChange = "2016-07-28 00:37:14 +0000";
layers = (
{
anchors = (
{
name = top;
position = "{377, 687}";
}
);
components = (
{
name = V;
transform = "{-1, 0, 0, -1, 755, 687}";
}
);
layerId = "35616FF6-3D9C-499B-B113-AC9E0DB5842A";
paths = (
{
closed = 1;
nodes = (
"591 156 LINE",
"591 230 LINE",
"172 230 LINE",
"172 156 LINE"
);
}
);
width = 755;
},
{
anchors = (
{
name = top;
position = "{375, 687}";
}
);
components = (
{
name = V;
transform = "{-1, 0, 0, -1, 749, 687}";
}
);
layerId = "A0D976AB-773B-4D3A-9F7E-7A0C42AF1E7B";
paths = (
{
closed = 1;
nodes = (
"591 92 LINE",
"591 235 LINE",
"172 235 LINE",
"172 92 LINE"
);
}
);
width = 749;
},
{
anchors = (
{
name = top;
position = "{355, 687}";
}
);
components = (
{
name = V;
transform = "{-1, 0, 0, -1, 710, 687}";
}
);
layerId = "3B040282-CF47-4846-BCAF-7BFF90FB63BC";
paths = (
{
closed = 1;
nodes = (
"571 175 LINE",
"571 211 LINE",
"132 211 LINE",
"132 175 LINE"
);
}
);
width = 710;
},
{
anchors = (
{
name = top;
position = "{376, 687}";
}
);
associatedMasterId = "35616FF6-3D9C-499B-B113-AC9E0DB5842A";
components = (
{
name = V;
transform = "{-1, 0, 0, -1, 751, 687}";
}
);
layerId = "3A20BC3A-4777-4149-AA2B-B575B586568E";
name = "Intermediate {700, 5}";
paths = (
{
closed = 1;
nodes = (
"591 108 LINE",
"591 233 LINE",
"172 233 LINE",
"172 108 LINE"
);
}
);
width = 751;
}
);
unicode = 0041;
},
{
glyphname = B;
lastChange = "2016-07-26 10:54:34 +0000";
layers = (
{
layerId = "35616FF6-3D9C-499B-B113-AC9E0DB5842A";
paths = (
{
closed = 1;
nodes = (
"421 0 LINE SMOOTH",
"540 0 OFFCURVE",
"625 78 OFFCURVE",
"625 188 CURVE SMOOTH",
"625 263 OFFCURVE",
"579 325 OFFCURVE",
"500 365 CURVE",
"562 401 OFFCURVE",
"598 443 OFFCURVE",
"598 516 CURVE SMOOTH",
"598 616 OFFCURVE",
"520 687 OFFCURVE",
"409 687 CURVE SMOOTH",
"94 687 LINE",
"94 0 LINE"
);
},
{
closed = 1;
nodes = (
"172 325 LINE",
"401 325 LINE SMOOTH",
"486 325 OFFCURVE",
"546 272 OFFCURVE",
"546 198 CURVE SMOOTH",
"546 124 OFFCURVE",
"486 71 OFFCURVE",
"401 71 CURVE SMOOTH",
"172 71 LINE"
);
},
{
closed = 1;
nodes = (
"172 616 LINE",
"389 616 LINE SMOOTH",
"465 616 OFFCURVE",
"519 570 OFFCURVE",
"519 506 CURVE SMOOTH",
"519 442 OFFCURVE",
"465 396 OFFCURVE",
"389 396 CURVE SMOOTH",
"172 396 LINE"
);
}
);
width = 682;
},
{
layerId = "A0D976AB-773B-4D3A-9F7E-7A0C42AF1E7B";
paths = (
{
closed = 1;
nodes = (
"444 0 LINE SMOOTH",
"584 0 OFFCURVE",
"684 75 OFFCURVE",
"684 185 CURVE SMOOTH",
"684 261 OFFCURVE",
"637 326 OFFCURVE",
"557 360 CURVE",
"617 389 OFFCURVE",
"652 447 OFFCURVE",
"652 514 CURVE SMOOTH",
"652 614 OFFCURVE",
"561 687 OFFCURVE",
"430 687 CURVE SMOOTH",
"60 687 LINE",
"60 0 LINE"
);
},
{
closed = 1;
nodes = (
"253 273 LINE",
"412 273 LINE SMOOTH",
"454 273 OFFCURVE",
"484 250 OFFCURVE",
"484 218 CURVE SMOOTH",
"484 186 OFFCURVE",
"454 163 OFFCURVE",
"412 163 CURVE SMOOTH",
"253 163 LINE"
);
},
{
closed = 1;
nodes = (
"253 524 LINE",
"383 524 LINE SMOOTH",
"423 524 OFFCURVE",
"452 502 OFFCURVE",
"452 472 CURVE SMOOTH",
"452 442 OFFCURVE",
"423 420 OFFCURVE",
"383 420 CURVE SMOOTH",
"253 420 LINE"
);
}
);
width = 711;
},
{
layerId = "3B040282-CF47-4846-BCAF-7BFF90FB63BC";
paths = (
{
closed = 1;
nodes = (
"393 0 LINE SMOOTH",
"512 0 OFFCURVE",
"597 78 OFFCURVE",
"597 188 CURVE SMOOTH",
"597 264 OFFCURVE",
"546 335 OFFCURVE",
"474 358 CURVE",
"530 377 OFFCURVE",
"570 443 OFFCURVE",
"570 516 CURVE SMOOTH",
"570 616 OFFCURVE",
"492 687 OFFCURVE",
"381 687 CURVE SMOOTH",
"94 687 LINE",
"94 0 LINE"
);
},
{
closed = 1;
nodes = (
"130 340 LINE",
"393 340 LINE SMOOTH",
"491 340 OFFCURVE",
"561 277 OFFCURVE",
"561 188 CURVE SMOOTH",
"561 99 OFFCURVE",
"491 36 OFFCURVE",
"393 36 CURVE SMOOTH",
"130 36 LINE"
);
},
{
closed = 1;
nodes = (
"130 651 LINE",
"381 651 LINE SMOOTH",
"471 651 OFFCURVE",
"534 595 OFFCURVE",
"534 516 CURVE SMOOTH",
"534 434 OFFCURVE",
"476 376 OFFCURVE",
"393 376 CURVE SMOOTH",
"130 376 LINE"
);
}
);
width = 654;
}
);
unicode = 0042;
},
{
glyphname = C;
lastChange = "2016-07-23 01:05:58 +0000";
layers = (
{
anchors = (
{
name = bottom;
position = "{394, 0}";
}
);
layerId = "35616FF6-3D9C-499B-B113-AC9E0DB5842A";
paths = (
{
closed = 1;
nodes = (
"499 -12 OFFCURVE",
"587 29 OFFCURVE",
"651 93 CURVE",
"598 147 LINE",
"548 94 OFFCURVE",
"479 60 OFFCURVE",
"404 60 CURVE SMOOTH",
"256 60 OFFCURVE",
"131 190 OFFCURVE",
"131 344 CURVE SMOOTH",
"131 497 OFFCURVE",
"256 627 OFFCURVE",
"404 627 CURVE SMOOTH",
"479 627 OFFCURVE",
"548 593 OFFCURVE",
"598 540 CURVE",
"651 594 LINE",
"587 659 OFFCURVE",
"499 699 OFFCURVE",
"404 699 CURVE SMOOTH",
"214 699 OFFCURVE",
"52 537 OFFCURVE",
"52 344 CURVE SMOOTH",
"52 151 OFFCURVE",
"214 -12 OFFCURVE",
"404 -12 CURVE SMOOTH"
);
}
);
width = 680;
},
{
anchors = (
{
name = bottom;
position = "{393, 0}";
}
);
layerId = "A0D976AB-773B-4D3A-9F7E-7A0C42AF1E7B";
paths = (
{
closed = 1;
nodes = (
"518 -12 OFFCURVE",
"618 35 OFFCURVE",
"687 110 CURVE",
"545 234 LINE",
"512 192 OFFCURVE",
"463 164 OFFCURVE",
"408 164 CURVE SMOOTH",
"314 164 OFFCURVE",
"234 246 OFFCURVE",
"234 344 CURVE SMOOTH",
"234 441 OFFCURVE",
"314 523 OFFCURVE",
"408 523 CURVE SMOOTH",
"462 523 OFFCURVE",
"512 495 OFFCURVE",
"544 453 CURVE",
"687 578 LINE",
"618 652 OFFCURVE",
"518 699 OFFCURVE",
"408 699 CURVE SMOOTH",
"205 699 OFFCURVE",
"34 537 OFFCURVE",
"34 344 CURVE SMOOTH",
"34 151 OFFCURVE",
"205 -12 OFFCURVE",
"408 -12 CURVE SMOOTH"
);
}
);
width = 706;
},
{
anchors = (
{
name = bottom;
position = "{404, 0}";
}
);
layerId = "3B040282-CF47-4846-BCAF-7BFF90FB63BC";
paths = (
{
closed = 1;
nodes = (
"499 -12 OFFCURVE",
"587 29 OFFCURVE",
"651 93 CURVE",
"625 119 LINE",
"568 60 OFFCURVE",
"489 24 OFFCURVE",
"404 24 CURVE SMOOTH",
"232 24 OFFCURVE",
"88 170 OFFCURVE",
"88 344 CURVE SMOOTH",
"88 517 OFFCURVE",
"232 663 OFFCURVE",
"404 663 CURVE SMOOTH",
"489 663 OFFCURVE",
"568 627 OFFCURVE",
"625 569 CURVE",
"651 594 LINE",
"587 659 OFFCURVE",
"499 699 OFFCURVE",
"404 699 CURVE SMOOTH",
"213 699 OFFCURVE",
"52 537 OFFCURVE",
"52 344 CURVE SMOOTH",
"52 151 OFFCURVE",
"213 -12 OFFCURVE",
"404 -12 CURVE SMOOTH"
);
}
);
width = 680;
}
);
unicode = 0043;
},
{
glyphname = D;
lastChange = "2016-07-23 02:07:22 +0000";
layers = (
{
layerId = "35616FF6-3D9C-499B-B113-AC9E0DB5842A";
paths = (
{
closed = 1;
nodes = (
"326 0 LINE SMOOTH",
"544 0 OFFCURVE",
"698 143 OFFCURVE",
"698 344 CURVE SMOOTH",
"698 545 OFFCURVE",
"544 687 OFFCURVE",
"326 687 CURVE SMOOTH",
"94 687 LINE",
"94 0 LINE"
);
},
{
closed = 1;
nodes = (
"172 616 LINE",
"326 616 LINE SMOOTH",
"498 616 OFFCURVE",
"619 503 OFFCURVE",
"619 344 CURVE SMOOTH",
"619 184 OFFCURVE",
"498 71 OFFCURVE",
"326 71 CURVE SMOOTH",
"172 71 LINE"
);
}
);
width = 762;
},
{
layerId = "A0D976AB-773B-4D3A-9F7E-7A0C42AF1E7B";
paths = (
{
closed = 1;
nodes = (
"316 0 LINE SMOOTH",
"556 0 OFFCURVE",
"726 143 OFFCURVE",
"726 344 CURVE SMOOTH",
"726 545 OFFCURVE",
"556 687 OFFCURVE",
"316 687 CURVE SMOOTH",
"60 687 LINE",
"60 0 LINE"
);
},
{
closed = 1;
nodes = (
"254 511 LINE",
"348 511 LINE SMOOTH",
"452 511 OFFCURVE",
"526 442 OFFCURVE",
"526 344 CURVE SMOOTH",
"526 246 OFFCURVE",
"452 176 OFFCURVE",
"348 176 CURVE SMOOTH",
"254 176 LINE"
);
}
);
width = 760;
},
{
layerId = "3B040282-CF47-4846-BCAF-7BFF90FB63BC";
paths = (
{
closed = 1;
nodes = (
"329 0 LINE SMOOTH",
"535 0 OFFCURVE",
"681 143 OFFCURVE",
"681 344 CURVE SMOOTH",
"681 545 OFFCURVE",
"535 687 OFFCURVE",
"329 687 CURVE SMOOTH",
"94 687 LINE",
"94 0 LINE"
);
},
{
closed = 1;
nodes = (
"130 651 LINE",
"329 651 LINE SMOOTH",
"514 651 OFFCURVE",
"645 524 OFFCURVE",
"645 344 CURVE SMOOTH",
"645 164 OFFCURVE",
"514 36 OFFCURVE",
"329 36 CURVE SMOOTH",
"130 36 LINE"
);
}
);
width = 745;
}
);
unicode = 0044;
},
{
glyphname = E;
lastChange = "2016-07-21 15:02:50 +0000";
layers = (
{
anchors = (
{
name = top;
position = "{326, 687}";
}
);
layerId = "35616FF6-3D9C-499B-B113-AC9E0DB5842A";
paths = (
{
closed = 1;
nodes = (
"572 0 LINE",
"572 74 LINE",
"138 74 LINE",
"158 54 LINE",
"158 333 LINE",
"138 313 LINE",
"531 313 LINE",
"531 387 LINE",
"138 387 LINE",
"158 367 LINE",
"158 633 LINE",
"138 613 LINE",
"572 613 LINE",
"572 687 LINE",
"79 687 LINE",
"79 0 LINE"
);
}
);
width = 627;
},
{
anchors = (
{
name = top;
position = "{337, 687}";
}
);
layerId = "A0D976AB-773B-4D3A-9F7E-7A0C42AF1E7B";
paths = (
{
closed = 1;
nodes = (
"613 0 LINE",
"613 173 LINE",
"159 173 LINE",
"254 54 LINE",
"254 333 LINE",
"159 264 LINE",
"581 264 LINE",
"581 437 LINE",
"159 437 LINE",
"254 367 LINE",
"254 633 LINE",
"159 514 LINE",
"613 514 LINE",
"613 687 LINE",
"60 687 LINE",
"60 0 LINE"
);
}
);
width = 651;
},
{
anchors = (
{
name = top;
position = "{305, 687}";
}
);
layerId = "3B040282-CF47-4846-BCAF-7BFF90FB63BC";
paths = (
{
closed = 1;
nodes = (
"530 0 LINE",
"530 36 LINE",
"106 36 LINE",
"115 26 LINE",
"115 342 LINE",
"106 332 LINE",
"499 332 LINE",
"499 368 LINE",
"106 368 LINE",
"115 358 LINE",
"115 661 LINE",
"106 651 LINE",
"530 651 LINE",
"530 687 LINE",
"79 687 LINE",
"79 0 LINE"
);
}
);
width = 585;
}
);
unicode = 0045;
},
{
glyphname = F;
lastChange = "2016-07-24 00:41:05 +0000";
layers = (
{
layerId = "35616FF6-3D9C-499B-B113-AC9E0DB5842A";
paths = (
{
closed = 1;
nodes = (
"158 0 LINE",
"158 333 LINE",
"138 313 LINE",
"531 313 LINE",
"531 387 LINE",
"138 387 LINE",
"158 367 LINE",
"158 633 LINE",
"138 613 LINE",
"572 613 LINE",
"572 687 LINE",
"79 687 LINE",
"79 0 LINE"
);
}
);
width = 609;
},
{
layerId = "A0D976AB-773B-4D3A-9F7E-7A0C42AF1E7B";
paths = (
{
closed = 1;
nodes = (
"254 0 LINE",
"254 313 LINE",
"159 244 LINE",
"581 244 LINE",
"581 417 LINE",
"159 417 LINE",
"254 347 LINE",
"254 633 LINE",
"159 514 LINE",
"613 514 LINE",
"613 687 LINE",
"60 687 LINE",
"60 0 LINE"
);
}
);
width = 651;
},
{
layerId = "3B040282-CF47-4846-BCAF-7BFF90FB63BC";
paths = (
{
closed = 1;
nodes = (
"115 0 LINE",
"115 342 LINE",
"105 332 LINE",
"509 332 LINE",
"509 368 LINE",
"105 368 LINE",
"115 358 LINE",
"115 661 LINE",
"105 651 LINE",
"550 651 LINE",
"550 687 LINE",
"79 687 LINE",
"79 0 LINE"
);
}
);
width = 587;
}
);
unicode = 0046;
},
{
glyphname = G;
lastChange = "2016-07-27 02:25:51 +0000";
layers = (
{
layerId = "35616FF6-3D9C-499B-B113-AC9E0DB5842A";
paths = (
{
closed = 1;
nodes = (
"499 -12 OFFCURVE",
"607 29 OFFCURVE",
"671 93 CURVE",
"618 147 LINE",
"568 94 OFFCURVE",
"479 60 OFFCURVE",
"404 60 CURVE SMOOTH",
"256 60 OFFCURVE",
"131 190 OFFCURVE",
"131 344 CURVE SMOOTH",
"131 497 OFFCURVE",
"256 627 OFFCURVE",
"404 627 CURVE SMOOTH",
"479 627 OFFCURVE",
"568 593 OFFCURVE",
"618 540 CURVE",
"671 594 LINE",
"607 659 OFFCURVE",
"499 699 OFFCURVE",
"404 699 CURVE SMOOTH",
"214 699 OFFCURVE",
"52 537 OFFCURVE",
"52 344 CURVE SMOOTH",
"52 151 OFFCURVE",
"214 -12 OFFCURVE",
"404 -12 CURVE SMOOTH"
);
},
{
closed = 1;
nodes = (
"671 93 LINE",
"671 362 LINE",
"396 362 LINE",
"396 288 LINE",
"625 288 LINE",
"593 329 LINE",
"593 93 LINE"
);
}
);
width = 745;
},
{
layerId = "A0D976AB-773B-4D3A-9F7E-7A0C42AF1E7B";
paths = (
{
closed = 1;
nodes = (
"521 -12 OFFCURVE",
"626 33 OFFCURVE",
"697 110 CURVE",
"555 234 LINE",
"520 190 OFFCURVE",
"468 164 OFFCURVE",
"413 164 CURVE SMOOTH",
"316 164 OFFCURVE",
"234 246 OFFCURVE",
"234 344 CURVE SMOOTH",
"234 441 OFFCURVE",
"316 523 OFFCURVE",
"413 523 CURVE SMOOTH",
"468 523 OFFCURVE",
"520 497 OFFCURVE",
"554 453 CURVE",
"697 578 LINE",
"626 654 OFFCURVE",
"521 699 OFFCURVE",
"413 699 CURVE SMOOTH",
"207 699 OFFCURVE",
"34 537 OFFCURVE",
"34 344 CURVE SMOOTH",
"34 151 OFFCURVE",
"207 -12 OFFCURVE",
"413 -12 CURVE SMOOTH"
);
},
{
closed = 1;
nodes = (
"697 110 LINE",
"697 402 LINE",
"375 402 LINE",
"375 259 LINE",
"538 259 LINE",
"509 288 LINE",
"509 110 LINE"
);
}
);
width = 741;
},
{
layerId = "3B040282-CF47-4846-BCAF-7BFF90FB63BC";
paths = (
{
closed = 1;
nodes = (
"506 -12 OFFCURVE",
"600 28 OFFCURVE",
"669 91 CURVE",
"644 116 LINE",
"581 59 OFFCURVE",
"496 24 OFFCURVE",
"404 24 CURVE SMOOTH",
"232 24 OFFCURVE",
"88 170 OFFCURVE",
"88 344 CURVE SMOOTH",
"88 517 OFFCURVE",
"232 663 OFFCURVE",
"404 663 CURVE SMOOTH",
"496 663 OFFCURVE",
"581 628 OFFCURVE",
"643 571 CURVE",
"669 597 LINE",
"600 660 OFFCURVE",
"506 699 OFFCURVE",
"404 699 CURVE SMOOTH",
"213 699 OFFCURVE",
"52 537 OFFCURVE",
"52 344 CURVE SMOOTH",
"52 151 OFFCURVE",
"213 -12 OFFCURVE",
"404 -12 CURVE SMOOTH"
);
},
{
closed = 1;
nodes = (
"669 91 LINE",
"669 341 LINE",
"394 341 LINE",
"394 305 LINE",
"648 305 LINE",
"633 325 LINE",
"633 91 LINE"
);
}
);
width = 743;
}
);
unicode = 0047;
},
{
glyphname = H;
lastChange = "2016-07-21 15:00:51 +0000";
layers = (
{
layerId = "35616FF6-3D9C-499B-B113-AC9E0DB5842A";
paths = (
{
closed = 1;
nodes = (
"157 0 LINE",
"157 335 LINE",
"135 313 LINE",
"583 313 LINE",
"562 335 LINE",
"562 0 LINE",
"640 0 LINE",
"640 687 LINE",
"562 687 LINE",
"562 365 LINE",
"584 387 LINE",
"135 387 LINE",
"157 365 LINE",
"157 687 LINE",
"79 687 LINE",
"79 0 LINE"
);
}
);
width = 719;
},
{
layerId = "A0D976AB-773B-4D3A-9F7E-7A0C42AF1E7B";
paths = (
{
closed = 1;
nodes = (
"254 0 LINE",
"254 315 LINE",
"207 264 LINE",
"551 264 LINE",
"505 315 LINE",
"505 0 LINE",
"699 0 LINE",
"699 687 LINE",
"505 687 LINE",
"505 385 LINE",
"553 437 LINE",
"207 437 LINE",
"254 385 LINE",
"254 687 LINE",
"60 687 LINE",
"60 0 LINE"
);
}
);
width = 759;
},
{
layerId = "3B040282-CF47-4846-BCAF-7BFF90FB63BC";
paths = (
{
closed = 1;
nodes = (
"115 0 LINE",
"115 343 LINE",
"114 332 LINE",
"562 332 LINE",
"562 343 LINE",
"562 0 LINE",
"598 0 LINE",
"598 687 LINE",
"562 687 LINE",
"562 357 LINE",
"563 368 LINE",
"114 368 LINE",
"115 357 LINE",
"115 687 LINE",
"79 687 LINE",
"79 0 LINE"
);
}
);
width = 677;
}
);
unicode = 0048;
},
{
glyphname = I;
lastChange = "2016-07-21 14:59:58 +0000";
layers = (
{
anchors = (
{
name = top;
position = "{118, 687}";
}
);
layerId = "35616FF6-3D9C-499B-B113-AC9E0DB5842A";
paths = (
{
closed = 1;
nodes = (
"157 0 LINE",
"157 687 LINE",
"79 687 LINE",
"79 0 LINE"
);
}
);
width = 236;
},
{
anchors = (
{
name = top;
position = "{161, 687}";
}
);
layerId = "A0D976AB-773B-4D3A-9F7E-7A0C42AF1E7B";
paths = (
{
closed = 1;
nodes = (
"258 0 LINE",
"258 687 LINE",
"64 687 LINE",
"64 0 LINE"
);
}
);
width = 321;
},
{
anchors = (
{
name = top;
position = "{97, 687}";
}
);
layerId = "3B040282-CF47-4846-BCAF-7BFF90FB63BC";
paths = (
{
closed = 1;
nodes = (
"115 0 LINE",
"115 687 LINE",
"79 687 LINE",
"79 0 LINE"
);
}
);
width = 194;
}
);
unicode = 0049;
},
{
glyphname = J;
lastChange = "2016-07-24 04:28:41 +0000";
layers = (
{
layerId = "35616FF6-3D9C-499B-B113-AC9E0DB5842A";
paths = (
{
closed = 1;
nodes = (
"364 -12 OFFCURVE",
"454 86 OFFCURVE",
"454 224 CURVE SMOOTH",
"454 687 LINE",
"376 687 LINE",
"376 224 LINE SMOOTH",
"376 127 OFFCURVE",
"318 59 OFFCURVE",
"237 59 CURVE SMOOTH",
"174 59 OFFCURVE",
"110 100 OFFCURVE",
"83 158 CURVE",
"26 102 LINE",
"68 35 OFFCURVE",
"156 -12 OFFCURVE",
"237 -12 CURVE SMOOTH"
);
}
);
width = 540;
},
{
layerId = "A0D976AB-773B-4D3A-9F7E-7A0C42AF1E7B";
paths = (
{
closed = 1;
nodes = (
"392 -12 OFFCURVE",
"495 86 OFFCURVE",
"495 224 CURVE SMOOTH",
"495 687 LINE",
"301 687 LINE",
"301 244 LINE SMOOTH",
"301 197 OFFCURVE",
"267 164 OFFCURVE",
"220 164 CURVE SMOOTH",
"185 164 OFFCURVE",
"147 189 OFFCURVE",
"128 224 CURVE",
"3 102 LINE",
"52 35 OFFCURVE",
"153 -12 OFFCURVE",
"246 -12 CURVE SMOOTH"
);
}
);
width = 548;
},
{
layerId = "3B040282-CF47-4846-BCAF-7BFF90FB63BC";
paths = (
{
closed = 1;
nodes = (
"348 -12 OFFCURVE",
"433 82 OFFCURVE",
"433 214 CURVE SMOOTH",
"433 687 LINE",
"397 687 LINE",
"397 214 LINE SMOOTH",
"397 103 OFFCURVE",
"327 24 OFFCURVE",
"227 24 CURVE SMOOTH",
"155 24 OFFCURVE",
"87 68 OFFCURVE",
"48 130 CURVE",
"26 102 LINE",
"68 35 OFFCURVE",
"145 -12 OFFCURVE",
"227 -12 CURVE SMOOTH"
);
}
);
width = 519;
}
);
unicode = 004A;
},
{
glyphname = K;
lastChange = "2016-07-24 04:32:12 +0000";
layers = (
{
layerId = "35616FF6-3D9C-499B-B113-AC9E0DB5842A";
paths = (
{
closed = 1;
nodes = (
"170 0 LINE",
"170 206 LINE",
"278 320 LINE",
"539 0 LINE",
"640 0 LINE",
"332 373 LINE",
"621 687 LINE",
"518 687 LINE",
"170 307 LINE",
"170 687 LINE",
"92 687 LINE",
"92 0 LINE"
);
}
);
width = 660;
},
{
layerId = "A0D976AB-773B-4D3A-9F7E-7A0C42AF1E7B";
paths = (
{
closed = 1;
nodes = (
"254 0 LINE",
"254 182 LINE",
"325 260 LINE",
"502 0 LINE",
"734 0 LINE",
"460 400 LINE",
"714 687 LINE",
"485 687 LINE",
"254 416 LINE",
"254 687 LINE",
"60 687 LINE",
"60 0 LINE"
);
}
);
width = 725;
},
{
layerId = "3B040282-CF47-4846-BCAF-7BFF90FB63BC";
paths = (
{
closed = 1;
nodes = (
"128 0 LINE",
"128 205 LINE",
"260 349 LINE",
"546 0 LINE",
"592 0 LINE",
"285 376 LINE",
"570 687 LINE",
"522 687 LINE",
"128 257 LINE",
"128 687 LINE",
"92 687 LINE",
"92 0 LINE"
);
}
);
width = 612;
}
);
unicode = 004B;
},
{
glyphname = L;
lastChange = "2016-07-24 00:48:04 +0000";
layers = (
{
layerId = "35616FF6-3D9C-499B-B113-AC9E0DB5842A";
paths = (
{
closed = 1;
nodes = (
"521 0 LINE",
"521 74 LINE",
"123 74 LINE",
"146 50 LINE",
"146 687 LINE",
"68 687 LINE",
"68 0 LINE"
);
}
);
width = 555;
},
{
layerId = "A0D976AB-773B-4D3A-9F7E-7A0C42AF1E7B";
paths = (
{
closed = 1;
nodes = (
"574 0 LINE",
"574 173 LINE",
"197 173 LINE",
"254 117 LINE",
"254 687 LINE",
"60 687 LINE",
"60 0 LINE"
);
}
);
width = 597;
},
{
layerId = "3B040282-CF47-4846-BCAF-7BFF90FB63BC";
paths = (
{
closed = 1;
nodes = (
"500 0 LINE",
"500 36 LINE",
"93 36 LINE",
"104 24 LINE",
"104 687 LINE",
"68 687 LINE",
"68 0 LINE"
);
}
);
width = 534;
}
);
unicode = 004C;
},
{
glyphname = M;
lastChange = "2016-07-24 00:51:36 +0000";
layers = (
{
layerId = "35616FF6-3D9C-499B-B113-AC9E0DB5842A";
paths = (
{
closed = 1;
nodes = (
"172 0 LINE",
"172 519 LINE",
"427 40 LINE",
"682 519 LINE",
"682 0 LINE",
"760 0 LINE",
"760 687 LINE",
"682 687 LINE",
"427 208 LINE",
"172 687 LINE",
"94 687 LINE",
"94 0 LINE"
);
}
);
width = 854;
},
{
layerId = "A0D976AB-773B-4D3A-9F7E-7A0C42AF1E7B";
paths = (
{
closed = 1;
nodes = (
"254 0 LINE",
"254 368 LINE",
"438 40 LINE",
"622 368 LINE",
"622 0 LINE",
"816 0 LINE",
"816 687 LINE",
"622 687 LINE",
"438 359 LINE",
"254 687 LINE",
"60 687 LINE",
"60 0 LINE"
);
}
);
width = 876;
},
{
layerId = "3B040282-CF47-4846-BCAF-7BFF90FB63BC";
paths = (
{
closed = 1;
nodes = (
"130 0 LINE",
"130 615 LINE",
"406 96 LINE",
"682 615 LINE",
"682 0 LINE",
"718 0 LINE",
"718 687 LINE",
"682 687 LINE",
"406 168 LINE",
"130 687 LINE",
"94 687 LINE",
"94 0 LINE"
);
}
);
width = 812;
}
);
unicode = 004D;
},
{
glyphname = N;
lastChange = "2016-07-24 00:54:09 +0000";
layers = (
{
anchors = (
{
name = top;
position = "{385, 687}";
}
);
layerId = "35616FF6-3D9C-499B-B113-AC9E0DB5842A";
paths = (
{
closed = 1;
nodes = (
"172 0 LINE",
"172 559 LINE",
"598 0 LINE",
"676 0 LINE",
"676 687 LINE",
"598 687 LINE",
"598 128 LINE",
"172 687 LINE",
"94 687 LINE",
"94 0 LINE"
);
}
);
width = 770;
},
{
anchors = (
{
name = top;
position = "{388, 687}";
}
);
layerId = "A0D976AB-773B-4D3A-9F7E-7A0C42AF1E7B";
paths = (
{
closed = 1;
nodes = (
"254 0 LINE",
"254 368 LINE",
"522 0 LINE",
"716 0 LINE",
"716 687 LINE",
"522 687 LINE",
"522 319 LINE",
"254 687 LINE",
"60 687 LINE",
"60 0 LINE"
);
}
);
width = 776;
},
{
anchors = (
{
name = top;
position = "{364, 687}";
}
);
layerId = "3B040282-CF47-4846-BCAF-7BFF90FB63BC";
paths = (
{
closed = 1;
nodes = (
"130 0 LINE",
"130 631 LINE",
"598 0 LINE",
"634 0 LINE",
"634 687 LINE",
"598 687 LINE",
"598 56 LINE",
"130 687 LINE",
"94 687 LINE",
"94 0 LINE"
);
}
);
width = 728;
}
);
unicode = 004E;
},
{
glyphname = O;
lastChange = "2016-07-27 02:29:09 +0000";
layers = (
{
anchors = (
{
name = top;
position = "{404, 687}";
}
);
layerId = "35616FF6-3D9C-499B-B113-AC9E0DB5842A";
paths = (
{
closed = 1;
nodes = (
"595 -12 OFFCURVE",
"755 151 OFFCURVE",
"755 344 CURVE SMOOTH",
"755 537 OFFCURVE",
"595 699 OFFCURVE",
"404 699 CURVE SMOOTH",
"214 699 OFFCURVE",
"52 537 OFFCURVE",
"52 344 CURVE SMOOTH",
"52 151 OFFCURVE",
"214 -12 OFFCURVE",
"404 -12 CURVE SMOOTH"
);
},
{
closed = 1;
nodes = (
"256 60 OFFCURVE",
"131 190 OFFCURVE",
"131 344 CURVE SMOOTH",
"131 497 OFFCURVE",
"256 627 OFFCURVE",
"404 627 CURVE SMOOTH",
"552 627 OFFCURVE",
"676 497 OFFCURVE",
"676 344 CURVE SMOOTH",
"676 190 OFFCURVE",
"552 60 OFFCURVE",
"404 60 CURVE SMOOTH"
);
}
);
width = 807;
},
{
anchors = (
{
name = top;
position = "{408, 687}";
}
);
layerId = "A0D976AB-773B-4D3A-9F7E-7A0C42AF1E7B";
paths = (
{
closed = 1;
nodes = (
"611 -12 OFFCURVE",
"782 151 OFFCURVE",
"782 344 CURVE SMOOTH",
"782 537 OFFCURVE",
"611 699 OFFCURVE",
"408 699 CURVE SMOOTH",
"205 699 OFFCURVE",
"34 537 OFFCURVE",
"34 344 CURVE SMOOTH",
"34 151 OFFCURVE",
"205 -12 OFFCURVE",
"408 -12 CURVE SMOOTH"
);
},
{
closed = 1;
nodes = (
"314 164 OFFCURVE",
"234 246 OFFCURVE",
"234 344 CURVE SMOOTH",
"234 441 OFFCURVE",
"314 523 OFFCURVE",
"408 523 CURVE SMOOTH",
"502 523 OFFCURVE",
"582 441 OFFCURVE",
"582 344 CURVE SMOOTH",
"582 246 OFFCURVE",
"502 164 OFFCURVE",
"408 164 CURVE SMOOTH"
);
}
);
width = 815;
},
{
anchors = (
{
name = top;
position = "{404, 687}";
}
);
layerId = "3B040282-CF47-4846-BCAF-7BFF90FB63BC";
paths = (
{
closed = 1;
nodes = (
"595 -12 OFFCURVE",
"755 151 OFFCURVE",
"755 344 CURVE SMOOTH",
"755 537 OFFCURVE",
"595 699 OFFCURVE",
"404 699 CURVE SMOOTH",
"213 699 OFFCURVE",
"52 537 OFFCURVE",
"52 344 CURVE SMOOTH",
"52 151 OFFCURVE",
"213 -12 OFFCURVE",
"404 -12 CURVE SMOOTH"
);
},
{
closed = 1;
nodes = (
"232 24 OFFCURVE",
"88 170 OFFCURVE",
"88 344 CURVE SMOOTH",
"88 517 OFFCURVE",
"232 663 OFFCURVE",
"404 663 CURVE SMOOTH",
"575 663 OFFCURVE",
"719 517 OFFCURVE",
"719 344 CURVE SMOOTH",
"719 170 OFFCURVE",
"575 24 OFFCURVE",
"404 24 CURVE SMOOTH"
);
}
);
width = 807;
}
);
unicode = 004F;
},
{
glyphname = Oslash;
lastChange = "2016-07-27 01:52:52 +0000";
layers = (
{
components = (
{
name = O;
}
);
layerId = "35616FF6-3D9C-499B-B113-AC9E0DB5842A";
paths = (
{
closed = 1;
nodes = (
"146 0 LINE",
"747 687 LINE",
"662 687 LINE",
"61 0 LINE"
);
}
);
width = 807;
},
{
components = (
{
name = O;
}
);
layerId = "A0D976AB-773B-4D3A-9F7E-7A0C42AF1E7B";
paths = (
{
closed = 1;
nodes = (
"203 0 LINE",
"773 687 LINE",
"613 687 LINE",
"43 0 LINE"
);
}
);
width = 815;
},
{
components = (
{
name = O;
}
);
layerId = "3B040282-CF47-4846-BCAF-7BFF90FB63BC";
paths = (
{
closed = 1;
nodes = (
"128 0 LINE",
"729 687 LINE",
"681 687 LINE",
"80 0 LINE"
);
}
);
width = 807;
}
);
unicode = 00D8;
},
{
glyphname = P;
lastChange = "2016-07-23 01:45:22 +0000";
layers = (
{
layerId = "35616FF6-3D9C-499B-B113-AC9E0DB5842A";
paths = (
{
closed = 1;
nodes = (
"157 0 LINE",
"157 247 LINE",
"358 247 LINE SMOOTH",
"500 247 OFFCURVE",
"611 338 OFFCURVE",
"611 467 CURVE SMOOTH",
"611 596 OFFCURVE",
"500 687 OFFCURVE",
"358 687 CURVE SMOOTH",
"79 687 LINE",
"79 0 LINE"
);
},
{
closed = 1;
nodes = (
"157 613 LINE",
"344 613 LINE SMOOTH",
"456 613 OFFCURVE",
"532 559 OFFCURVE",
"532 467 CURVE SMOOTH",
"532 375 OFFCURVE",
"456 321 OFFCURVE",
"344 321 CURVE SMOOTH",
"157 321 LINE"
);
}
);
width = 644;
},
{
layerId = "A0D976AB-773B-4D3A-9F7E-7A0C42AF1E7B";
paths = (
{
closed = 1;
nodes = (
"254 0 LINE",
"254 207 LINE",
"389 207 LINE SMOOTH",
"543 207 OFFCURVE",
"652 306 OFFCURVE",
"652 447 CURVE SMOOTH",
"652 588 OFFCURVE",
"543 687 OFFCURVE",
"389 687 CURVE SMOOTH",
"60 687 LINE",
"60 0 LINE"
);
},
{
closed = 1;
nodes = (
"254 511 LINE",
"373 511 LINE SMOOTH",
"419 511 OFFCURVE",
"452 484 OFFCURVE",
"452 447 CURVE SMOOTH",
"452 410 OFFCURVE",
"419 383 OFFCURVE",
"373 383 CURVE SMOOTH",
"254 383 LINE"
);
}
);
width = 670;
},
{
layerId = "3B040282-CF47-4846-BCAF-7BFF90FB63BC";
paths = (
{
closed = 1;
nodes = (
"115 0 LINE",
"115 267 LINE",
"368 267 LINE SMOOTH",
"507 267 OFFCURVE",
"606 354 OFFCURVE",
"606 477 CURVE SMOOTH",
"606 600 OFFCURVE",
"507 687 OFFCURVE",
"368 687 CURVE SMOOTH",
"79 687 LINE",
"79 0 LINE"
);
},
{
closed = 1;
nodes = (
"115 651 LINE",
"361 651 LINE SMOOTH",
"483 651 OFFCURVE",
"570 579 OFFCURVE",
"570 477 CURVE SMOOTH",
"570 375 OFFCURVE",
"483 303 OFFCURVE",
"361 303 CURVE SMOOTH",
"115 303 LINE"
);
}
);
width = 639;
}
);
unicode = 0050;
},
{
glyphname = Q;
lastChange = "2016-07-23 01:42:37 +0000";
layers = (
{
components = (
{
name = O;
}
);
layerId = "35616FF6-3D9C-499B-B113-AC9E0DB5842A";
paths = (
{
closed = 1;
nodes = (
"755 58 LINE",
"511 270 LINE",
"461 212 LINE",
"705 0 LINE"
);
}
);
width = 807;
},
{
components = (
{
name = O;
}
);
layerId = "A0D976AB-773B-4D3A-9F7E-7A0C42AF1E7B";
paths = (
{
closed = 1;
nodes = (
"780 106 LINE",
"511 340 LINE",
"420 234 LINE",
"689 0 LINE"
);
}
);
width = 815;
},
{
components = (
{
name = O;
}
);
layerId = "3B040282-CF47-4846-BCAF-7BFF90FB63BC";
paths = (
{
closed = 1;
nodes = (
"728 27 LINE",
"485 237 LINE",
"462 210 LINE",
"704 0 LINE"
);
}
);
width = 807;
}
);
unicode = 0051;
},
{
glyphname = R;
lastChange = "2016-07-24 00:50:10 +0000";
layers = (
{
components = (
{
name = P;
}
);
layerId = "35616FF6-3D9C-499B-B113-AC9E0DB5842A";
paths = (
{
closed = 1;
nodes = (
"602 0 LINE",
"413 269 LINE",
"324 269 LINE",
"513 0 LINE"
);
}
);
width = 650;
},
{
components = (
{
name = P;
}
);
layerId = "A0D976AB-773B-4D3A-9F7E-7A0C42AF1E7B";
paths = (
{
closed = 1;
nodes = (
"680 0 LINE",
"491 269 LINE",
"270 269 LINE",
"459 0 LINE"
);
}
);
width = 697;
},
{
components = (
{
name = P;
}
);
layerId = "3B040282-CF47-4846-BCAF-7BFF90FB63BC";
paths = (
{
closed = 1;
nodes = (
"582 0 LINE",
"378 291 LINE",
"334 291 LINE",
"538 0 LINE"
);
}
);
width = 639;
}
);
unicode = 0052;
},
{
glyphname = S;
lastChange = "2016-07-24 04:35:11 +0000";
layers = (
{
layerId = "35616FF6-3D9C-499B-B113-AC9E0DB5842A";
paths = (
{
closed = 1;
nodes = (
"477 -11 OFFCURVE",
"559 78 OFFCURVE",
"559 187 CURVE SMOOTH",
"559 308 OFFCURVE",
"465 355 OFFCURVE",
"334 386 CURVE SMOOTH",
"217 414 OFFCURVE",
"149 439 OFFCURVE",
"149 510 CURVE SMOOTH",
"149 573 OFFCURVE",
"211 629 OFFCURVE",
"296 629 CURVE SMOOTH",
"368 629 OFFCURVE",
"436 596 OFFCURVE",
"493 541 CURVE",
"541 602 LINE",
"478 660 OFFCURVE",
"402 700 OFFCURVE",
"300 700 CURVE SMOOTH",
"168 700 OFFCURVE",
"70 614 OFFCURVE",
"70 504 CURVE SMOOTH",
"70 385 OFFCURVE",
"157 342 OFFCURVE",
"295 310 CURVE SMOOTH",
"415 282 OFFCURVE",
"480 253 OFFCURVE",
"480 180 CURVE SMOOTH",
"480 118 OFFCURVE",
"426 60 OFFCURVE",
"320 60 CURVE SMOOTH",
"224 60 OFFCURVE",
"153 101 OFFCURVE",
"95 159 CURVE",
"46 98 LINE",
"115 30 OFFCURVE",
"204 -11 OFFCURVE",
"317 -11 CURVE SMOOTH"
);
}
);
width = 613;
},
{
layerId = "A0D976AB-773B-4D3A-9F7E-7A0C42AF1E7B";
paths = (
{
closed = 1;
nodes = (
"508 -12 OFFCURVE",
"619 73 OFFCURVE",
"619 218 CURVE SMOOTH",
"619 349 OFFCURVE",
"519 392 OFFCURVE",
"359 426 CURVE SMOOTH",
"261 447 OFFCURVE",
"237 458 OFFCURVE",
"237 493 CURVE SMOOTH",
"237 519 OFFCURVE",
"260 538 OFFCURVE",
"307 538 CURVE SMOOTH",
"369 538 OFFCURVE",
"439 515 OFFCURVE",
"503 469 CURVE",
"600 606 LINE",
"524 667 OFFCURVE",
"431 699 OFFCURVE",
"312 699 CURVE SMOOTH",
"149 699 OFFCURVE",
"41 610 OFFCURVE",
"41 473 CURVE SMOOTH",
"41 330 OFFCURVE",
"156 291 OFFCURVE",
"305 257 CURVE SMOOTH",
"400 235 OFFCURVE",
"424 230 OFFCURVE",
"424 197 CURVE SMOOTH",
"424 167 OFFCURVE",
"396 149 OFFCURVE",
"343 149 CURVE SMOOTH",
"262 149 OFFCURVE",
"186 178 OFFCURVE",
"116 233 CURVE",
"8 104 LINE",
"95 27 OFFCURVE",
"212 -12 OFFCURVE",
"336 -12 CURVE SMOOTH"
);
}
);
width = 646;
},
{
layerId = "3B040282-CF47-4846-BCAF-7BFF90FB63BC";
paths = (
{
closed = 1;
nodes = (
"453 -11 OFFCURVE",
"549 67 OFFCURVE",
"549 177 CURVE SMOOTH",
"549 273 OFFCURVE",
"484 327 OFFCURVE",
"323 365 CURVE SMOOTH",
"175 401 OFFCURVE",
"116 441 OFFCURVE",
"116 507 CURVE SMOOTH",
"116 599 OFFCURVE",
"191 664 OFFCURVE",
"298 664 CURVE SMOOTH",
"378 664 OFFCURVE",
"456 631 OFFCURVE",
"515 574 CURVE",
"537 602 LINE",
"470 664 OFFCURVE",
"384 700 OFFCURVE",
"300 700 CURVE SMOOTH",
"171 700 OFFCURVE",
"80 619 OFFCURVE",
"80 504 CURVE SMOOTH",
"80 418 OFFCURVE",
"144 369 OFFCURVE",
"305 332 CURVE SMOOTH",
"454 297 OFFCURVE",
"513 252 OFFCURVE",
"513 174 CURVE SMOOTH",
"513 87 OFFCURVE",
"432 25 OFFCURVE",
"318 25 CURVE SMOOTH",
"224 25 OFFCURVE",
"131 63 OFFCURVE",
"68 126 CURVE",
"46 98 LINE",
"116 29 OFFCURVE",
"216 -11 OFFCURVE",
"317 -11 CURVE SMOOTH"
);
}
);
width = 603;
}
);
unicode = 0053;
},
{
glyphname = T;
lastChange = "2016-07-27 02:50:34 +0000";
layers = (
{
anchors = (
{
name = bottom;
position = "{309, 0}";
}
);
layerId = "35616FF6-3D9C-499B-B113-AC9E0DB5842A";
paths = (
{
closed = 1;
nodes = (
"354 0 LINE",
"354 613 LINE",
"585 613 LINE",
"585 687 LINE",
"45 687 LINE",
"45 613 LINE",
"276 613 LINE",
"276 0 LINE"
);
}
);
width = 630;
},
{
anchors = (
{
name = bottom;
position = "{320, 0}";
}
);
layerId = "A0D976AB-773B-4D3A-9F7E-7A0C42AF1E7B";
paths = (
{
closed = 1;
nodes = (
"420 0 LINE",
"420 514 LINE",
"623 514 LINE",
"623 687 LINE",
"23 687 LINE",
"23 514 LINE",
"226 514 LINE",
"226 0 LINE"
);
}
);
width = 645;
},
{
anchors = (
{
name = bottom;
position = "{315, 0}";
}
);
layerId = "3B040282-CF47-4846-BCAF-7BFF90FB63BC";
paths = (
{
closed = 1;
nodes = (
"333 0 LINE",
"333 651 LINE",
"585 651 LINE",
"585 687 LINE",
"45 687 LINE",
"45 651 LINE",
"297 651 LINE",
"297 0 LINE"
);
}
);
width = 630;
}
);
unicode = 0054;
},
{
glyphname = U;
lastChange = "2016-07-24 00:57:22 +0000";
layers = (
{
anchors = (
{
name = top;
position = "{373, 687}";
}
);
layerId = "35616FF6-3D9C-499B-B113-AC9E0DB5842A";
paths = (
{
closed = 1;
nodes = (
"541 -12 OFFCURVE",
"660 111 OFFCURVE",
"660 285 CURVE",
"660 687 LINE",
"582 687 LINE",
"582 285 LINE",
"582 153 OFFCURVE",
"495 59 OFFCURVE",
"373 59 CURVE",
"251 59 OFFCURVE",
"164 153 OFFCURVE",
"164 285 CURVE",
"164 687 LINE",
"86 687 LINE",
"86 285 LINE",
"86 111 OFFCURVE",
"205 -12 OFFCURVE",
"373 -12 CURVE"
);
}
);
width = 746;
},
{
anchors = (
{
name = top;
position = "{381, 687}";
}
);
layerId = "A0D976AB-773B-4D3A-9F7E-7A0C42AF1E7B";
paths = (
{
closed = 1;
nodes = (
"573 -12 OFFCURVE",
"708 119 OFFCURVE",
"708 305 CURVE",
"708 687 LINE",
"514 687 LINE",
"514 315 LINE",
"514 227 OFFCURVE",
"459 164 OFFCURVE",
"381 164 CURVE",
"303 164 OFFCURVE",
"248 227 OFFCURVE",
"248 315 CURVE",
"248 687 LINE",
"54 687 LINE",
"54 305 LINE",
"54 119 OFFCURVE",
"189 -12 OFFCURVE",
"381 -12 CURVE"
);
}
);
width = 761;
},
{
anchors = (
{
name = top;
position = "{352, 687}";
}
);
layerId = "3B040282-CF47-4846-BCAF-7BFF90FB63BC";
paths = (
{
closed = 1;
nodes = (
"508 -12 OFFCURVE",
"618 103 OFFCURVE",
"618 265 CURVE",
"618 687 LINE",
"582 687 LINE",
"582 265 LINE",
"582 124 OFFCURVE",
"487 24 OFFCURVE",
"352 24 CURVE",
"217 24 OFFCURVE",
"122 124 OFFCURVE",
"122 265 CURVE",
"122 687 LINE",
"86 687 LINE",
"86 265 LINE",
"86 103 OFFCURVE",
"196 -12 OFFCURVE",
"352 -12 CURVE"
);
}
);
width = 704;
}
);
unicode = 0055;
},
{
glyphname = V;
lastChange = "2016-07-27 02:28:58 +0000";
layers = (
{
layerId = "35616FF6-3D9C-499B-B113-AC9E0DB5842A";
paths = (
{
closed = 1;
nodes = (
"420 0 LINE",
"723 687 LINE",
"638 687 LINE",
"335 0 LINE"
);
},
{
closed = 1;
nodes = (
"420 0 LINE",
"117 687 LINE",
"32 687 LINE",
"335 0 LINE"
);
}
);
width = 755;
},
{
layerId = "A0D976AB-773B-4D3A-9F7E-7A0C42AF1E7B";
paths = (
{
closed = 1;
nodes = (
"484 0 LINE",
"748 687 LINE",
"529 687 LINE",
"265 0 LINE"
);
},
{
closed = 1;
nodes = (
"484 0 LINE",
"220 687 LINE",
"1 687 LINE",
"265 0 LINE"
);
}
);
width = 749;
},
{
layerId = "3B040282-CF47-4846-BCAF-7BFF90FB63BC";
paths = (
{
closed = 1;
nodes = (
"375 0 LINE",
"678 687 LINE",
"638 687 LINE",
"335 0 LINE"
);
},
{
closed = 1;
nodes = (
"375 0 LINE",
"72 687 LINE",
"32 687 LINE",
"335 0 LINE"
);
}
);
width = 710;
}
);
unicode = 0056;
},
{
glyphname = W;
lastChange = "2016-07-27 02:26:23 +0000";
layers = (
{
anchors = (
{
name = top;
position = "{541, 687}";
}
);
layerId = "35616FF6-3D9C-499B-B113-AC9E0DB5842A";
paths = (
{
closed = 1;
nodes = (
"349 0 LINE",
"541 585 LINE",
"732 0 LINE",
"809 0 LINE",
"1044 687 LINE",
"956 687 LINE",
"766 131 LINE",
"584 687 LINE",
"497 687 LINE",
"315 131 LINE",
"125 687 LINE",
"37 687 LINE",
"272 0 LINE"
);
}
);
width = 1081;
},
{
anchors = (
{
name = top;
position = "{539, 687}";
}
);
layerId = "A0D976AB-773B-4D3A-9F7E-7A0C42AF1E7B";
paths = (
{
closed = 1;
nodes = (
"395 0 LINE",
"539 397 LINE",
"682 0 LINE",
"878 0 LINE",
"1068 687 LINE",
"859 687 LINE",
"775 290 LINE",
"643 687 LINE",
"434 687 LINE",
"301 290 LINE",
"217 687 LINE",
"8 687 LINE",
"199 0 LINE"
);
}
);
width = 1076;
},
{
anchors = (
{
name = top;
position = "{517, 687}";
}
);
layerId = "3B040282-CF47-4846-BCAF-7BFF90FB63BC";
paths = (
{
closed = 1;
nodes = (
"306 0 LINE",
"517 629 LINE",
"727 0 LINE",
"766 0 LINE",
"996 687 LINE",
"957 687 LINE",
"747 58 LINE",
"536 687 LINE",
"497 687 LINE",
"287 58 LINE",
"76 687 LINE",
"37 687 LINE",
"267 0 LINE"
);
}
);
width = 1033;
}
);
unicode = 0057;
},
{
glyphname = X;
lastChange = "2016-07-24 00:59:23 +0000";
layers = (
{
layerId = "35616FF6-3D9C-499B-B113-AC9E0DB5842A";
paths = (
{
closed = 1;
nodes = (
"38 687 LINE",
"134 687 LINE",
"659 0 LINE",
"563 0 LINE"
);
},
{
closed = 1;
nodes = (
"564 687 LINE",
"659 687 LINE",
"133 0 LINE",
"38 0 LINE"
);
}
);
width = 697;
},
{
layerId = "A0D976AB-773B-4D3A-9F7E-7A0C42AF1E7B";
paths = (
{
closed = 1;
nodes = (
"4 687 LINE",
"231 687 LINE",
"717 0 LINE",
"490 0 LINE"
);
},
{
closed = 1;
nodes = (
"494 687 LINE",
"717 687 LINE",
"227 0 LINE",
"4 0 LINE"
);
}
);
width = 721;
},
{
layerId = "3B040282-CF47-4846-BCAF-7BFF90FB63BC";
paths = (
{
closed = 1;
nodes = (
"38 687 LINE",
"84 687 LINE",
"609 0 LINE",
"563 0 LINE"
);
},
{
closed = 1;
nodes = (
"564 687 LINE",
"610 687 LINE",
"84 0 LINE",
"38 0 LINE"
);
}
);
width = 648;
}
);
unicode = 0058;
},
{
glyphname = Y;
lastChange = "2016-07-27 02:35:06 +0000";
layers = (
{
anchors = (
{
name = top;
position = "{336, 687}";
}
);
layerId = "35616FF6-3D9C-499B-B113-AC9E0DB5842A";
paths = (
{
closed = 1;
nodes = (
"377 0 LINE",
"377 280 LINE",
"653 687 LINE",
"559 687 LINE",
"336 354 LINE",
"115 687 LINE",
"18 687 LINE",
"295 280 LINE",
"295 0 LINE"
);
}
);
width = 671;
},
{
anchors = (
{
name = top;
position = "{355, 687}";
}
);
layerId = "A0D976AB-773B-4D3A-9F7E-7A0C42AF1E7B";
paths = (
{
closed = 1;
nodes = (
"452 0 LINE",
"452 226 LINE",
"715 687 LINE",
"502 687 LINE",
"355 408 LINE",
"216 687 LINE",
"-6 687 LINE",
"258 226 LINE",
"258 0 LINE"
);
}
);
width = 709;
},
{
anchors = (
{
name = top;
position = "{316, 687}";
}
);
layerId = "3B040282-CF47-4846-BCAF-7BFF90FB63BC";
paths = (
{
closed = 1;
nodes = (
"334 0 LINE",
"334 279 LINE",
"614 687 LINE",
"568 687 LINE",
"316 320 LINE",
"64 687 LINE",
"18 687 LINE",
"298 279 LINE",
"298 0 LINE"
);
}
);
width = 632;
}
);
unicode = 0059;
},
{
glyphname = Z;
lastChange = "2016-07-24 01:19:32 +0000";
layers = (
{
layerId = "35616FF6-3D9C-499B-B113-AC9E0DB5842A";
paths = (
{
closed = 1;
nodes = (
"583 0 LINE",
"583 74 LINE",
"164 74 LINE",
"579 625 LINE",
"579 687 LINE",
"65 687 LINE",
"65 613 LINE",
"472 613 LINE",
"58 62 LINE",
"58 0 LINE"
);
}
);
width = 639;
},
{
layerId = "A0D976AB-773B-4D3A-9F7E-7A0C42AF1E7B";
paths = (
{
closed = 1;
nodes = (
"637 0 LINE",
"637 173 LINE",
"308 173 LINE",
"632 542 LINE",
"632 687 LINE",
"48 687 LINE",
"48 514 LINE",
"366 514 LINE",
"40 145 LINE",
"41 0 LINE"
);
}
);
width = 675;
},
{
layerId = "3B040282-CF47-4846-BCAF-7BFF90FB63BC";
paths = (
{
closed = 1;
nodes = (
"563 0 LINE",
"563 36 LINE",
"102 36 LINE",
"559 657 LINE",
"559 687 LINE",
"65 687 LINE",
"65 651 LINE",
"515 651 LINE",
"58 30 LINE",
"58 0 LINE"
);
}
);
width = 619;
}
);
unicode = 005A;
},
{
glyphname = a;
lastChange = "2016-07-26 14:32:26 +0000";
layers = (
{
anchors = (
{
name = bottom;
position = "{293, 0}";
},
{
name = onogek;
position = "{496, 0}";
},
{
name = top;
position = "{293, 517}";
}
);
layerId = "35616FF6-3D9C-499B-B113-AC9E0DB5842A";
paths = (
{
closed = 1;
nodes = (
"496 0 LINE",
"496 315 LINE SMOOTH",
"496 440 OFFCURVE",
"427 529 OFFCURVE",
"286 529 CURVE SMOOTH",
"236 529 OFFCURVE",
"174 516 OFFCURVE",
"100 479 CURVE",
"130 418 LINE",
"177 442 OFFCURVE",
"229 465 OFFCURVE",
"281 465 CURVE SMOOTH",
"393 465 OFFCURVE",
"421 385 OFFCURVE",
"421 315 CURVE SMOOTH",
"421 0 LINE"
);
},
{
closed = 1;
nodes = (
"321 -12 OFFCURVE",
"417 35 OFFCURVE",
"438 123 CURVE",
"421 162 LINE",
"401 89 OFFCURVE",
"320 54 OFFCURVE",
"252 54 CURVE SMOOTH",
"179 54 OFFCURVE",
"123 92 OFFCURVE",
"123 156 CURVE SMOOTH",
"123 218 OFFCURVE",
"188 262 OFFCURVE",
"265 262 CURVE SMOOTH",
"335 262 OFFCURVE",
"399 250 OFFCURVE",
"454 230 CURVE",
"454 284 LINE",
"393 308 OFFCURVE",
"321 325 OFFCURVE",
"253 325 CURVE SMOOTH",
"142 325 OFFCURVE",
"50 256 OFFCURVE",
"50 153 CURVE SMOOTH",
"50 51 OFFCURVE",
"130 -12 OFFCURVE",
"239 -12 CURVE SMOOTH"
);
}
);
width = 573;
},
{
anchors = (
{
name = bottom;
position = "{305, 0}";
},
{
name = onogek;
position = "{540, 0}";
},
{
name = top;
position = "{305, 517}";
}
);
layerId = "A0D976AB-773B-4D3A-9F7E-7A0C42AF1E7B";
paths = (
{
closed = 1;
nodes = (
"540 0 LINE",
"540 305 LINE SMOOTH",
"540 446 OFFCURVE",
"432 529 OFFCURVE",
"301 529 CURVE SMOOTH",
"214 529 OFFCURVE",
"137 504 OFFCURVE",
"65 468 CURVE",
"126 347 LINE",
"164 366 OFFCURVE",
"204 376 OFFCURVE",
"249 376 CURVE SMOOTH",
"316 376 OFFCURVE",
"355 350 OFFCURVE",
"355 305 CURVE SMOOTH",
"355 0 LINE"
);
},
{
closed = 1;
nodes = (
"302 -12 OFFCURVE",
"381 34 OFFCURVE",
"401 113 CURVE",
"355 163 LINE",
"351 133 OFFCURVE",
"316 112 OFFCURVE",
"269 112 CURVE SMOOTH",
"234 112 OFFCURVE",
"210 131 OFFCURVE",
"210 158 CURVE SMOOTH",
"210 187 OFFCURVE",
"236 208 OFFCURVE",
"273 208 CURVE SMOOTH",
"303 208 OFFCURVE",
"333 201 OFFCURVE",
"356 188 CURVE",
"407 274 LINE",
"356 308 OFFCURVE",
"296 325 OFFCURVE",
"246 325 CURVE SMOOTH",
"121 325 OFFCURVE",
"23 254 OFFCURVE",
"23 153 CURVE SMOOTH",
"23 56 OFFCURVE",
"111 -12 OFFCURVE",
"222 -12 CURVE SMOOTH"
);
}
);
width = 587;
},
{
anchors = (
{
name = bottom;
position = "{286, 0}";
},
{
name = onogek;
position = "{477, 0}";
},
{
name = top;
position = "{289, 517}";
}
);
layerId = "3B040282-CF47-4846-BCAF-7BFF90FB63BC";
paths = (
{
closed = 1;
nodes = (
"477 0 LINE",
"477 315 LINE SMOOTH",
"477 440 OFFCURVE",
"398 529 OFFCURVE",
"286 529 CURVE SMOOTH",
"214 529 OFFCURVE",
"155 510 OFFCURVE",
"100 479 CURVE",
"115 448 LINE",
"163 476 OFFCURVE",
"211 493 OFFCURVE",
"284 493 CURVE SMOOTH",
"376 493 OFFCURVE",
"441 419 OFFCURVE",
"441 315 CURVE SMOOTH",
"441 0 LINE"
);
},
{
closed = 1;
nodes = (
"321 -12 OFFCURVE",
"437 35 OFFCURVE",
"458 123 CURVE",
"441 162 LINE",
"421 67 OFFCURVE",
"313 24 OFFCURVE",
"245 24 CURVE SMOOTH",
"152 24 OFFCURVE",
"86 78 OFFCURVE",
"86 154 CURVE SMOOTH",
"86 233 OFFCURVE",
"158 289 OFFCURVE",
"259 289 CURVE SMOOTH",
"329 289 OFFCURVE",
"399 268 OFFCURVE",
"454 248 CURVE",
"454 284 LINE",
"393 308 OFFCURVE",
"321 325 OFFCURVE",
"253 325 CURVE SMOOTH",
"134 325 OFFCURVE",
"50 254 OFFCURVE",
"50 153 CURVE SMOOTH",
"50 56 OFFCURVE",
"128 -12 OFFCURVE",
"239 -12 CURVE SMOOTH"
);
}
);
width = 554;
},
{
anchors = (
{
name = bottom;
position = "{305, 0}";
},
{
name = onogek;
position = "{540, 0}";
},
{
name = top;
position = "{305, 517}";
}
);
associatedMasterId = "A0D976AB-773B-4D3A-9F7E-7A0C42AF1E7B";
layerId = "76C99E97-56EA-4E88-AE47-AB7E78508A3B";
name = "Bold[700]";
paths = (
{
closed = 1;
nodes = (
"540 0 LINE",
"540 305 LINE SMOOTH",
"540 446 OFFCURVE",
"432 529 OFFCURVE",
"301 529 CURVE SMOOTH",
"214 529 OFFCURVE",
"137 504 OFFCURVE",
"65 468 CURVE",
"124 351 LINE",
"167 373 OFFCURVE",
"200 386 OFFCURVE",
"249 386 CURVE SMOOTH",
"309 386 OFFCURVE",
"355 356 OFFCURVE",
"355 305 CURVE SMOOTH",
"355 0 LINE"
);
},
{
closed = 1;
nodes = (
"302 -12 OFFCURVE",
"381 34 OFFCURVE",
"401 113 CURVE",
"355 153 LINE",
"351 123 OFFCURVE",
"315 102 OFFCURVE",
"269 102 CURVE SMOOTH",
"232 102 OFFCURVE",
"206 125 OFFCURVE",
"206 158 CURVE SMOOTH",
"206 193 OFFCURVE",
"234 218 OFFCURVE",
"273 218 CURVE SMOOTH",
"304 218 OFFCURVE",
"338 211 OFFCURVE",
"356 201 CURVE",
"407 274 LINE",
"356 308 OFFCURVE",
"296 325 OFFCURVE",
"246 325 CURVE SMOOTH",
"121 325 OFFCURVE",
"23 254 OFFCURVE",
"23 153 CURVE SMOOTH",
"23 56 OFFCURVE",
"111 -12 OFFCURVE",
"222 -12 CURVE SMOOTH"
);
}
);
width = 587;
}
);
unicode = 0061;
},
{
glyphname = b;
lastChange = "2016-07-28 00:38:12 +0000";
layers = (
{
components = (
{
name = lowercase_loop;
transform = "{1, 0, 0, 1, 30, 0}";
}
);
layerId = "35616FF6-3D9C-499B-B113-AC9E0DB5842A";
paths = (
{
closed = 1;
nodes = (
"158 1 LINE",
"158 699 LINE",
"83 699 LINE",
"83 1 LINE"
);
}
);
width = 638;
},
{
components = (
{
name = lowercase_loop;
transform = "{1, 0, 0, 1, 49, 0}";
}
);
layerId = "A0D976AB-773B-4D3A-9F7E-7A0C42AF1E7B";
paths = (
{
closed = 1;
nodes = (
"244 1 LINE",
"244 699 LINE",
"51 699 LINE",
"51 1 LINE"
);
}
);
width = 674;
},
{
components = (
{
name = lowercase_loop;
transform = "{1, 0, 0, 1, -6, 0}";
}
);
layerId = "3B040282-CF47-4846-BCAF-7BFF90FB63BC";
paths = (
{
closed = 1;
nodes = (
"119 1 LINE",
"119 699 LINE",
"83 699 LINE",
"83 1 LINE"
);
}
);
width = 609;
}
);
unicode = 0062;
},
{
glyphname = c;
lastChange = "2016-07-26 11:45:20 +0000";
layers = (
{
anchors = (
{
name = bottom;
position = "{306, 0}";
}
);
layerId = "35616FF6-3D9C-499B-B113-AC9E0DB5842A";
paths = (
{
closed = 1;
nodes = (
"388 -12 OFFCURVE",
"454 18 OFFCURVE",
"503 67 CURVE",
"451 118 LINE",
"416 79 OFFCURVE",
"368 55 OFFCURVE",
"316 55 CURVE SMOOTH",
"213 55 OFFCURVE",
"127 148 OFFCURVE",
"127 259 CURVE SMOOTH",
"127 369 OFFCURVE",
"213 462 OFFCURVE",
"316 462 CURVE SMOOTH",
"367 462 OFFCURVE",
"414 439 OFFCURVE",
"448 402 CURVE",
"500 453 LINE",
"451 500 OFFCURVE",
"386 529 OFFCURVE",
"316 529 CURVE SMOOTH",
"171 529 OFFCURVE",
"48 406 OFFCURVE",
"48 259 CURVE SMOOTH",
"48 112 OFFCURVE",
"171 -12 OFFCURVE",
"316 -12 CURVE SMOOTH"
);
}
);
width = 542;
},
{
anchors = (
{
name = bottom;
position = "{308, 0}";
}
);
layerId = "A0D976AB-773B-4D3A-9F7E-7A0C42AF1E7B";
paths = (
{
closed = 1;
nodes = (
"413 -12 OFFCURVE",
"486 27 OFFCURVE",
"538 87 CURVE",
"411 189 LINE",
"390 165 OFFCURVE",
"352 148 OFFCURVE",
"319 148 CURVE SMOOTH",
"260 148 OFFCURVE",
"211 199 OFFCURVE",
"211 260 CURVE SMOOTH",
"211 319 OFFCURVE",
"260 369 OFFCURVE",
"318 369 CURVE SMOOTH",
"351 369 OFFCURVE",
"388 352 OFFCURVE",
"408 329 CURVE",
"535 433 LINE",
"485 491 OFFCURVE",
"412 529 OFFCURVE",
"320 529 CURVE SMOOTH",
"161 529 OFFCURVE",
"27 406 OFFCURVE",
"27 259 CURVE SMOOTH",
"27 112 OFFCURVE",
"160 -12 OFFCURVE",
"317 -12 CURVE SMOOTH"
);
}
);
width = 552;
},
{
anchors = (
{
name = bottom;
position = "{298, 0}";
}
);
layerId = "3B040282-CF47-4846-BCAF-7BFF90FB63BC";
paths = (
{
closed = 1;
nodes = (
"374 -12 OFFCURVE",
"437 17 OFFCURVE",
"483 64 CURVE",
"458 89 LINE",
"418 49 OFFCURVE",
"364 24 OFFCURVE",
"306 24 CURVE SMOOTH",
"176 24 OFFCURVE",
"84 121 OFFCURVE",
"84 259 CURVE SMOOTH",
"84 396 OFFCURVE",
"176 493 OFFCURVE",
"306 493 CURVE SMOOTH",
"364 493 OFFCURVE",
"418 468 OFFCURVE",
"457 428 CURVE",
"483 453 LINE",
"437 500 OFFCURVE",
"374 529 OFFCURVE",
"306 529 CURVE SMOOTH",
"155 529 OFFCURVE",
"48 417 OFFCURVE",
"48 259 CURVE SMOOTH",
"48 100 OFFCURVE",
"155 -12 OFFCURVE",
"306 -12 CURVE SMOOTH"
);
}
);
width = 522;
}
);
unicode = 0063;
},
{
glyphname = d;
lastChange = "2016-07-28 00:38:12 +0000";
layers = (
{
components = (
{
name = lowercase_loop;
transform = "{-1, 0, 0, 1, 608, 0}";
}
);
layerId = "35616FF6-3D9C-499B-B113-AC9E0DB5842A";
paths = (
{
closed = 1;
nodes = (
"555 1 LINE",
"555 699 LINE",
"480 699 LINE",
"480 1 LINE"
);
}
);
width = 638;
},
{
components = (
{
name = lowercase_loop;
transform = "{-1, 0, 0, 1, 625, 0}";
}
);
layerId = "A0D976AB-773B-4D3A-9F7E-7A0C42AF1E7B";
paths = (
{
closed = 1;
nodes = (
"623 1 LINE",
"623 699 LINE",
"430 699 LINE",
"430 1 LINE"
);
}
);
width = 674;
},
{
components = (
{
name = lowercase_loop;
transform = "{-1, 0, 0, 1, 615, 0}";
}
);
layerId = "3B040282-CF47-4846-BCAF-7BFF90FB63BC";
paths = (
{
closed = 1;
nodes = (
"526 1 LINE",
"526 699 LINE",
"490 699 LINE",
"490 1 LINE"
);
}
);
width = 609;
}
);
unicode = 0064;
},
{
glyphname = e;
lastChange = "2016-07-27 02:35:04 +0000";
layers = (
{
anchors = (
{
name = top;
position = "{303, 517}";
}
);
layerId = "35616FF6-3D9C-499B-B113-AC9E0DB5842A";
paths = (
{
closed = 1;
nodes = (
"382 -12 OFFCURVE",
"473 19 OFFCURVE",
"518 68 CURVE",
"472 117 LINE",
"440 82 OFFCURVE",
"370 55 OFFCURVE",
"309 55 CURVE SMOOTH",
"197 55 OFFCURVE",
"123 144 OFFCURVE",
"123 260 CURVE SMOOTH",
"123 380 OFFCURVE",
"203 462 OFFCURVE",
"306 462 CURVE SMOOTH",
"419 462 OFFCURVE",
"475 374 OFFCURVE",
"475 268 CURVE",
"518 297 LINE",
"99 297 LINE",
"99 230 LINE",
"548 230 LINE",
"548 411 OFFCURVE",
"459 529 OFFCURVE",
"303 529 CURVE SMOOTH",
"164 529 OFFCURVE",
"48 414 OFFCURVE",
"48 260 CURVE SMOOTH",
"48 101 OFFCURVE",
"172 -12 OFFCURVE",
"310 -12 CURVE SMOOTH"
);
}
);
width = 595;
},
{
anchors = (
{
name = top;
position = "{300, 517}";
}
);
layerId = "A0D976AB-773B-4D3A-9F7E-7A0C42AF1E7B";
paths = (
{
closed = 1;
nodes = (
"387 -12 OFFCURVE",
"475 21 OFFCURVE",
"521 68 CURVE",
"415 175 LINE",
"381 148 OFFCURVE",
"339 132 OFFCURVE",
"300 132 CURVE SMOOTH",
"237 132 OFFCURVE",
"192 185 OFFCURVE",
"192 259 CURVE SMOOTH",
"192 333 OFFCURVE",
"237 385 OFFCURVE",
"300 385 CURVE SMOOTH",
"356 385 OFFCURVE",
"396 335 OFFCURVE",
"396 265 CURVE",
"438 314 LINE",
"81 314 LINE",
"81 213 LINE",
"564 213 LINE",
"564 412 OFFCURVE",
"466 529 OFFCURVE",
"300 529 CURVE SMOOTH",
"140 529 OFFCURVE",
"27 418 OFFCURVE",
"27 260 CURVE SMOOTH",
"27 101 OFFCURVE",
"143 -12 OFFCURVE",
"308 -12 CURVE SMOOTH"
);
}
);
width = 590;
},
{
anchors = (
{
name = top;
position = "{302, 517}";
}
);
layerId = "3B040282-CF47-4846-BCAF-7BFF90FB63BC";
paths = (
{
closed = 1;
nodes = (
"385 -12 OFFCURVE",
"475 21 OFFCURVE",
"518 68 CURVE",
"493 95 LINE",
"450 48 OFFCURVE",
"376 24 OFFCURVE",
"302 24 CURVE SMOOTH",
"184 24 OFFCURVE",
"84 132 OFFCURVE",
"84 260 CURVE SMOOTH",
"84 390 OFFCURVE",
"180 493 OFFCURVE",
"302 493 CURVE SMOOTH",
"428 493 OFFCURVE",
"512 401 OFFCURVE",
"512 264 CURVE",
"518 278 LINE",
"69 278 LINE",
"69 242 LINE",
"548 242 LINE",
"548 414 OFFCURVE",
"450 529 OFFCURVE",
"302 529 CURVE SMOOTH",
"160 529 OFFCURVE",
"48 411 OFFCURVE",
"48 260 CURVE SMOOTH",
"48 112 OFFCURVE",
"164 -12 OFFCURVE",
"302 -12 CURVE SMOOTH"
);
}
);
width = 595;
},
{
anchors = (
{
name = top;
position = "{301, 517}";
}
);
associatedMasterId = "35616FF6-3D9C-499B-B113-AC9E0DB5842A";
layerId = "0105EF15-E0E2-4DA7-8D98-E9B765EDB340";
name = "Intermediate {700, 5}";
paths = (
{
closed = 1;
nodes = (
"385 -12 OFFCURVE",
"474 20 OFFCURVE",
"520 68 CURVE",
"427 163 LINE",
"399 136 OFFCURVE",
"349 117 OFFCURVE",
"308 117 CURVE SMOOTH",
"231 117 OFFCURVE",
"178 178 OFFCURVE",
"178 259 CURVE SMOOTH",
"178 343 OFFCURVE",
"234 400 OFFCURVE",
"307 400 CURVE SMOOTH",
"385 400 OFFCURVE",
"428 343 OFFCURVE",
"428 263 CURVE",
"470 316 LINE",
"88 316 LINE",
"88 211 LINE",
"558 211 LINE",
"558 406 OFFCURVE",
"463 529 OFFCURVE",
"301 529 CURVE SMOOTH",
"150 529 OFFCURVE",
"35 416 OFFCURVE",
"35 260 CURVE SMOOTH",
"35 101 OFFCURVE",
"155 -12 OFFCURVE",
"309 -12 CURVE SMOOTH"
);
}
);
width = 593;
}
);
unicode = 0065;
},
{
glyphname = f;
lastChange = "2016-07-24 05:06:44 +0000";
layers = (
{
layerId = "35616FF6-3D9C-499B-B113-AC9E0DB5842A";
paths = (
{
closed = 1;
nodes = (
"193 0 LINE",
"193 588 LINE SMOOTH",
"193 626 OFFCURVE",
"219 653 OFFCURVE",
"249 653 CURVE SMOOTH",
"272 653 OFFCURVE",
"292 644 OFFCURVE",
"303 632 CURVE",
"340 687 LINE",
"313 708 OFFCURVE",
"279 720 OFFCURVE",
"244 720 CURVE SMOOTH",
"170 720 OFFCURVE",
"118 665 OFFCURVE",
"118 588 CURVE SMOOTH",
"118 0 LINE"
);
},
{
closed = 1;
nodes = (
"320 450 LINE",
"320 517 LINE",
"37 517 LINE",
"37 450 LINE"
);
}
);
width = 351;
},
{
layerId = "A0D976AB-773B-4D3A-9F7E-7A0C42AF1E7B";
paths = (
{
closed = 1;
nodes = (
"267 0 LINE",
"267 517 LINE SMOOTH",
"267 548 OFFCURVE",
"285 570 OFFCURVE",
"311 570 CURVE SMOOTH",
"329 570 OFFCURVE",
"348 564 OFFCURVE",
"358 555 CURVE",
"391 667 LINE",
"359 698 OFFCURVE",
"304 720 OFFCURVE",
"258 720 CURVE SMOOTH",
"155 720 OFFCURVE",
"83 648 OFFCURVE",
"83 545 CURVE SMOOTH",
"83 0 LINE"
);
},
{
closed = 1;
nodes = (
"369 365 LINE",
"369 517 LINE",
"18 517 LINE",
"18 365 LINE"
);
}
);
width = 398;
},
{
layerId = "3B040282-CF47-4846-BCAF-7BFF90FB63BC";
paths = (
{
closed = 1;
nodes = (
"164 0 LINE",
"164 588 LINE SMOOTH",
"164 644 OFFCURVE",
"194 684 OFFCURVE",
"236 684 CURVE SMOOTH",
"266 684 OFFCURVE",
"290 676 OFFCURVE",
"310 659 CURVE",
"330 687 LINE",
"302 709 OFFCURVE",
"270 720 OFFCURVE",
"234 720 CURVE SMOOTH",
"172 720 OFFCURVE",
"128 665 OFFCURVE",
"128 588 CURVE SMOOTH",
"128 0 LINE"
);
},
{
closed = 1;
nodes = (
"309 481 LINE",
"309 517 LINE",
"37 517 LINE",
"37 481 LINE"
);
}
);
width = 341;
}
);
unicode = 0066;
},
{
glyphname = g;
lastChange = "2016-07-24 05:26:19 +0000";
layers = (
{
layerId = "35616FF6-3D9C-499B-B113-AC9E0DB5842A";
paths = (
{
closed = 1;
nodes = (
"478 55 LINE SMOOTH",
"478 -46 OFFCURVE",
"408 -105 OFFCURVE",
"289 -105 CURVE SMOOTH",
"225 -105 OFFCURVE",
"163 -82 OFFCURVE",
"123 -44 CURVE",
"90 -103 LINE",
"137 -143 OFFCURVE",
"215 -172 OFFCURVE",
"299 -172 CURVE SMOOTH",
"448 -172 OFFCURVE",
"553 -78 OFFCURVE",
"553 55 CURVE SMOOTH",
"553 517 LINE",
"478 517 LINE"
);
},
{
closed = 1;
nodes = (
"203 105 OFFCURVE",
"131 179 OFFCURVE",
"131 284 CURVE SMOOTH",
"131 388 OFFCURVE",
"203 462 OFFCURVE",
"304 462 CURVE SMOOTH",
"406 462 OFFCURVE",
"478 388 OFFCURVE",
"478 284 CURVE SMOOTH",
"478 179 OFFCURVE",
"406 105 OFFCURVE",
"304 105 CURVE SMOOTH"
);
},
{
closed = 1;
nodes = (
"493 401 LINE",
"455 480 OFFCURVE",
"383 529 OFFCURVE",
"290 529 CURVE SMOOTH",
"151 529 OFFCURVE",
"52 428 OFFCURVE",
"52 284 CURVE SMOOTH",
"52 140 OFFCURVE",
"151 38 OFFCURVE",
"290 38 CURVE SMOOTH",
"383 38 OFFCURVE",
"455 87 OFFCURVE",
"493 166 CURVE"
);
}
);
width = 636;
},
{
layerId = "A0D976AB-773B-4D3A-9F7E-7A0C42AF1E7B";
paths = (
{
closed = 1;
nodes = (
"412 65 LINE SMOOTH",
"412 21 OFFCURVE",
"358 -12 OFFCURVE",
"281 -12 CURVE SMOOTH",
"224 -12 OFFCURVE",
"164 5 OFFCURVE",
"134 30 CURVE",
"71 -103 LINE",
"126 -143 OFFCURVE",
"216 -172 OFFCURVE",
"312 -172 CURVE SMOOTH",
"484 -172 OFFCURVE",
"606 -78 OFFCURVE",
"606 55 CURVE SMOOTH",
"606 517 LINE",
"412 517 LINE"
);
},
{
closed = 1;
nodes = (
"265 198 OFFCURVE",
"226 234 OFFCURVE",
"226 284 CURVE SMOOTH",
"226 334 OFFCURVE",
"265 369 OFFCURVE",
"319 369 CURVE SMOOTH",
"373 369 OFFCURVE",
"412 334 OFFCURVE",
"412 284 CURVE SMOOTH",
"412 234 OFFCURVE",
"373 198 OFFCURVE",
"319 198 CURVE SMOOTH"
);
},
{
closed = 1;
nodes = (
"425 439 LINE",
"402 489 OFFCURVE",
"324 529 OFFCURVE",
"252 529 CURVE SMOOTH",
"127 529 OFFCURVE",
"28 428 OFFCURVE",
"28 284 CURVE SMOOTH",
"28 140 OFFCURVE",
"127 38 OFFCURVE",
"252 38 CURVE SMOOTH",
"322 38 OFFCURVE",
"391 72 OFFCURVE",
"431 129 CURVE"
);
}
);
width = 657;
},
{
layerId = "3B040282-CF47-4846-BCAF-7BFF90FB63BC";
paths = (
{
closed = 1;
nodes = (
"478 55 LINE SMOOTH",
"478 -57 OFFCURVE",
"394 -136 OFFCURVE",
"276 -136 CURVE SMOOTH",
"211 -136 OFFCURVE",
"133 -109 OFFCURVE",
"88 -71 CURVE",
"70 -103 LINE",
"117 -143 OFFCURVE",
"204 -172 OFFCURVE",
"279 -172 CURVE SMOOTH",
"417 -172 OFFCURVE",
"514 -78 OFFCURVE",
"514 55 CURVE SMOOTH",
"514 517 LINE",
"478 517 LINE"
);
},
{
closed = 1;
nodes = (
"162 74 OFFCURVE",
"72 170 OFFCURVE",
"72 284 CURVE SMOOTH",
"72 397 OFFCURVE",
"162 493 OFFCURVE",
"269 493 CURVE SMOOTH",
"387 493 OFFCURVE",
"478 406 OFFCURVE",
"478 284 CURVE SMOOTH",
"478 161 OFFCURVE",
"387 74 OFFCURVE",
"269 74 CURVE SMOOTH"
);
},
{
closed = 1;
nodes = (
"483 382 LINE",
"448 479 OFFCURVE",
"365 529 OFFCURVE",
"262 529 CURVE SMOOTH",
"139 529 OFFCURVE",
"36 417 OFFCURVE",
"36 284 CURVE SMOOTH",
"36 150 OFFCURVE",
"139 38 OFFCURVE",
"262 38 CURVE SMOOTH",
"361 38 OFFCURVE",
"448 89 OFFCURVE",
"483 186 CURVE"
);
}
);
width = 597;
}
);
unicode = 0067;
},
{
glyphname = h;
lastChange = "2016-07-28 00:38:12 +0000";
layers = (
{
components = (
{
name = lowercase_nh_shoulder;
}
);
layerId = "35616FF6-3D9C-499B-B113-AC9E0DB5842A";
paths = (
{
closed = 1;
nodes = (
"152 0 LINE",
"152 699 LINE",
"77 699 LINE",
"77 0 LINE"
);
}
);
width = 592;
},
{
components = (
{
name = lowercase_nh_shoulder;
transform = "{1, 0, 0, 1, 31, 0}";
}
);
layerId = "A0D976AB-773B-4D3A-9F7E-7A0C42AF1E7B";
paths = (
{
closed = 1;
nodes = (
"244 0 LINE",
"244 699 LINE",
"51 699 LINE",
"51 0 LINE"
);
}
);
width = 628;
},
{
components = (
{
name = lowercase_nh_shoulder;
transform = "{1, 0, 0, 1, -39, 0}";
}
);
layerId = "3B040282-CF47-4846-BCAF-7BFF90FB63BC";
paths = (
{
closed = 1;
nodes = (
"113 0 LINE",
"113 699 LINE",
"77 699 LINE",
"77 0 LINE"
);
}
);
width = 552;
}
);
unicode = 0068;
},
{
glyphname = i;
lastChange = "2016-07-28 00:38:12 +0000";
layers = (
{
anchors = (
{
name = bottom;
position = "{113, 0}";
},
{
name = onogek;
position = "{150, 0}";
}
);
components = (
{
name = idotless;
}
);
layerId = "35616FF6-3D9C-499B-B113-AC9E0DB5842A";
paths = (
{
closed = 1;
nodes = (
"140 611 OFFCURVE",
"162 634 OFFCURVE",
"162 661 CURVE SMOOTH",
"162 687 OFFCURVE",
"140 710 OFFCURVE",
"113 710 CURVE SMOOTH",
"85 710 OFFCURVE",
"63 687 OFFCURVE",
"63 661 CURVE SMOOTH",
"63 634 OFFCURVE",
"85 611 OFFCURVE",
"113 611 CURVE SMOOTH"
);
}
);
width = 225;
},
{
anchors = (
{
name = bottom;
position = "{152, 0}";
},
{
name = onogek;
position = "{248, 0}";
}
);
components = (
{
name = idotless;
}
);
layerId = "A0D976AB-773B-4D3A-9F7E-7A0C42AF1E7B";
paths = (
{
closed = 1;
nodes = (
"207 572 OFFCURVE",
"251 618 OFFCURVE",
"251 672 CURVE SMOOTH",
"251 724 OFFCURVE",
"207 770 OFFCURVE",
"153 770 CURVE SMOOTH",
"97 770 OFFCURVE",
"53 724 OFFCURVE",
"53 672 CURVE SMOOTH",
"53 618 OFFCURVE",
"97 572 OFFCURVE",
"153 572 CURVE SMOOTH"
);
}
);
width = 304;
},
{
anchors = (
{
name = bottom;
position = "{93, 0}";
},
{
name = onogek;
position = "{111, 0}";
}
);
components = (
{
name = idotless;
}
);
layerId = "3B040282-CF47-4846-BCAF-7BFF90FB63BC";
paths = (
{
closed = 1;
nodes = (
"109 631 OFFCURVE",
"123 644 OFFCURVE",
"123 661 CURVE SMOOTH",
"123 677 OFFCURVE",
"109 691 OFFCURVE",
"93 691 CURVE SMOOTH",
"76 691 OFFCURVE",
"63 677 OFFCURVE",
"63 661 CURVE SMOOTH",
"63 644 OFFCURVE",
"76 631 OFFCURVE",
"93 631 CURVE SMOOTH"
);
}
);
width = 186;
}
);
unicode = 0069;
},
{
glyphname = idotless;
lastChange = "2016-07-21 14:28:24 +0000";
layers = (
{
anchors = (
{
name = top;
position = "{113, 517}";
}
);
layerId = "35616FF6-3D9C-499B-B113-AC9E0DB5842A";
paths = (
{
closed = 1;
nodes = (
"150 0 LINE",
"150 517 LINE",
"75 517 LINE",
"75 0 LINE"
);
}
);
width = 225;
},
{
anchors = (
{
name = top;
position = "{152, 517}";
}
);
layerId = "A0D976AB-773B-4D3A-9F7E-7A0C42AF1E7B";
paths = (
{
closed = 1;
nodes = (
"248 0 LINE",
"248 517 LINE",
"55 517 LINE",
"55 0 LINE"
);
}
);
width = 304;
},
{
anchors = (
{
name = top;
position = "{93, 517}";
}
);
layerId = "3B040282-CF47-4846-BCAF-7BFF90FB63BC";
paths = (
{
closed = 1;
nodes = (
"111 0 LINE",
"111 517 LINE",
"75 517 LINE",
"75 0 LINE"
);
}
);
width = 186;
}
);
unicode = 0131;
},
{
glyphname = j;
lastChange = "2016-07-28 00:38:12 +0000";
layers = (
{
components = (
{
name = jdotless;
}
);
layerId = "35616FF6-3D9C-499B-B113-AC9E0DB5842A";
paths = (
{
closed = 1;
nodes = (
"140 611 OFFCURVE",
"162 634 OFFCURVE",
"162 661 CURVE SMOOTH",
"162 687 OFFCURVE",
"140 710 OFFCURVE",
"113 710 CURVE SMOOTH",
"85 710 OFFCURVE",
"63 687 OFFCURVE",
"63 661 CURVE SMOOTH",
"63 634 OFFCURVE",
"85 611 OFFCURVE",
"113 611 CURVE SMOOTH"
);
}
);
width = 225;
},
{
components = (
{
name = jdotless;
}
);
layerId = "A0D976AB-773B-4D3A-9F7E-7A0C42AF1E7B";
paths = (
{
closed = 1;
nodes = (
"207 572 OFFCURVE",
"251 618 OFFCURVE",
"251 672 CURVE SMOOTH",
"251 724 OFFCURVE",
"207 770 OFFCURVE",
"153 770 CURVE SMOOTH",
"97 770 OFFCURVE",
"53 724 OFFCURVE",
"53 672 CURVE SMOOTH",
"53 618 OFFCURVE",
"97 572 OFFCURVE",
"153 572 CURVE SMOOTH"
);
}
);
width = 304;
},
{
components = (
{
name = jdotless;
}
);
layerId = "3B040282-CF47-4846-BCAF-7BFF90FB63BC";
paths = (
{
closed = 1;
nodes = (
"97 631 OFFCURVE",
"111 644 OFFCURVE",
"111 661 CURVE SMOOTH",
"111 677 OFFCURVE",
"97 691 OFFCURVE",
"81 691 CURVE SMOOTH",
"64 691 OFFCURVE",
"51 677 OFFCURVE",
"51 661 CURVE SMOOTH",
"51 644 OFFCURVE",
"64 631 OFFCURVE",
"81 631 CURVE SMOOTH"
);
}
);
width = 161;
}
);
unicode = 006A;
},
{
glyphname = jdotless;
lastChange = "2016-07-24 05:15:18 +0000";
layers = (
{
layerId = "35616FF6-3D9C-499B-B113-AC9E0DB5842A";
paths = (
{
closed = 1;
nodes = (
"98 -178 OFFCURVE",
"150 -123 OFFCURVE",
"150 -46 CURVE SMOOTH",
"150 517 LINE",
"75 517 LINE",
"75 -46 LINE SMOOTH",
"75 -84 OFFCURVE",
"52 -111 OFFCURVE",
"19 -111 CURVE SMOOTH",
"-2 -111 OFFCURVE",
"-29 -106 OFFCURVE",
"-45 -100 CURVE",
"-57 -162 LINE",
"-37 -171 OFFCURVE",
"-4 -178 OFFCURVE",
"24 -178 CURVE SMOOTH"
);
}
);
width = 225;
},
{
layerId = "A0D976AB-773B-4D3A-9F7E-7A0C42AF1E7B";
paths = (
{
closed = 1;
nodes = (
"172 -178 OFFCURVE",
"248 -102 OFFCURVE",
"248 6 CURVE SMOOTH",
"248 517 LINE",
"55 517 LINE",
"55 30 LINE SMOOTH",
"55 -1 OFFCURVE",
"37 -23 OFFCURVE",
"11 -23 CURVE SMOOTH",
"-5 -23 OFFCURVE",
"-24 -20 OFFCURVE",
"-36 -15 CURVE",
"-54 -154 LINE",
"-26 -168 OFFCURVE",
"23 -178 OFFCURVE",
"64 -178 CURVE SMOOTH"
);
}
);
width = 304;
},
{
layerId = "3B040282-CF47-4846-BCAF-7BFF90FB63BC";
paths = (
{
closed = 1;
nodes = (
"54 -178 OFFCURVE",
"98 -127 OFFCURVE",
"98 -56 CURVE SMOOTH",
"98 517 LINE",
"62 517 LINE",
"62 -56 LINE SMOOTH",
"62 -106 OFFCURVE",
"32 -142 OFFCURVE",
"-11 -142 CURVE SMOOTH",
"-35 -142 OFFCURVE",
"-65 -136 OFFCURVE",
"-83 -128 CURVE",
"-90 -162 LINE",
"-69 -171 OFFCURVE",
"-36 -178 OFFCURVE",
"-9 -178 CURVE SMOOTH"
);
}
);
width = 161;
}
);
unicode = 0237;
},
{
glyphname = k;
lastChange = "2016-07-24 05:22:42 +0000";
layers = (
{
layerId = "35616FF6-3D9C-499B-B113-AC9E0DB5842A";
paths = (
{
closed = 1;
nodes = (
"150 0 LINE",
"150 137 LINE",
"243 229 LINE",
"422 0 LINE",
"516 0 LINE",
"296 280 LINE",
"529 517 LINE",
"433 517 LINE",
"150 231 LINE",
"150 699 LINE",
"75 699 LINE",
"75 0 LINE"
);
}
);
width = 543;
},
{
layerId = "A0D976AB-773B-4D3A-9F7E-7A0C42AF1E7B";
paths = (
{
closed = 1;
nodes = (
"236 0 LINE",
"236 119 LINE",
"278 171 LINE",
"373 0 LINE",
"589 0 LINE",
"404 294 LINE",
"585 517 LINE",
"369 517 LINE",
"236 336 LINE",
"236 699 LINE",
"51 699 LINE",
"51 0 LINE"
);
}
);
width = 582;
},
{
layerId = "3B040282-CF47-4846-BCAF-7BFF90FB63BC";
paths = (
{
closed = 1;
nodes = (
"111 0 LINE",
"111 134 LINE",
"229 255 LINE",
"428 0 LINE",
"474 0 LINE",
"254 280 LINE",
"486 517 LINE",
"436 517 LINE",
"111 186 LINE",
"111 699 LINE",
"75 699 LINE",
"75 0 LINE"
);
}
);
width = 500;
}
);
unicode = 006B;
},
{
glyphname = l;
lastChange = "2016-07-21 14:40:09 +0000";
layers = (
{
layerId = "35616FF6-3D9C-499B-B113-AC9E0DB5842A";
paths = (
{
closed = 1;
nodes = (
"151 0 LINE",
"151 699 LINE",
"76 699 LINE",
"76 0 LINE"
);
}
);
width = 227;
},
{
layerId = "A0D976AB-773B-4D3A-9F7E-7A0C42AF1E7B";
paths = (
{
closed = 1;
nodes = (
"248 0 LINE",
"248 699 LINE",
"55 699 LINE",
"55 0 LINE"
);
}
);
width = 303;
},
{
layerId = "3B040282-CF47-4846-BCAF-7BFF90FB63BC";
paths = (
{
closed = 1;
nodes = (
"112 0 LINE",
"112 699 LINE",
"76 699 LINE",
"76 0 LINE"
);
}
);
width = 188;
}
);
unicode = 006C;
},
{
glyphname = m;
lastChange = "2016-07-24 04:43:43 +0000";
layers = (
{
layerId = "35616FF6-3D9C-499B-B113-AC9E0DB5842A";
paths = (
{
closed = 1;
nodes = (
"819 0 LINE",
"819 329 LINE SMOOTH",
"819 446 OFFCURVE",
"743 529 OFFCURVE",
"635 529 CURVE SMOOTH",
"543 529 OFFCURVE",
"466 469 OFFCURVE",
"461 381 CURVE",
"485 329 LINE",
"485 407 OFFCURVE",
"543 462 OFFCURVE",
"625 462 CURVE SMOOTH",
"695 462 OFFCURVE",
"744 403 OFFCURVE",
"744 319 CURVE SMOOTH",
"744 0 LINE"
);
},
{
closed = 1;
nodes = (
"151 0 LINE",
"151 517 LINE",
"76 517 LINE",
"76 0 LINE"
);
},
{
closed = 1;
nodes = (
"485 0 LINE",
"485 329 LINE SMOOTH",
"485 446 OFFCURVE",
"409 529 OFFCURVE",
"301 529 CURVE SMOOTH",
"209 529 OFFCURVE",
"140 467 OFFCURVE",
"135 379 CURVE",
"151 329 LINE",
"151 407 OFFCURVE",
"209 462 OFFCURVE",
"291 462 CURVE SMOOTH",
"361 462 OFFCURVE",
"410 403 OFFCURVE",
"410 319 CURVE SMOOTH",
"410 0 LINE"
);
}
);
width = 895;
},
{
layerId = "A0D976AB-773B-4D3A-9F7E-7A0C42AF1E7B";
paths = (
{
closed = 1;
nodes = (
"904 -1 LINE",
"904 329 LINE SMOOTH",
"904 446 OFFCURVE",
"816 529 OFFCURVE",
"708 529 CURVE SMOOTH",
"604 529 OFFCURVE",
"527 468 OFFCURVE",
"522 381 CURVE",
"574 300 LINE",
"574 340 OFFCURVE",
"604 369 OFFCURVE",
"647 369 CURVE SMOOTH",
"690 369 OFFCURVE",
"720 338 OFFCURVE",
"720 294 CURVE SMOOTH",
"720 -1 LINE"
);
},
{
closed = 1;
nodes = (
"244 0 LINE",
"244 517 LINE",
"51 517 LINE",
"51 0 LINE"
);
},
{
closed = 1;
nodes = (
"574 -1 LINE",
"574 329 LINE SMOOTH",
"574 446 OFFCURVE",
"486 529 OFFCURVE",
"378 529 CURVE SMOOTH",
"289 529 OFFCURVE",
"226 467 OFFCURVE",
"226 379 CURVE",
"244 300 LINE",
"244 340 OFFCURVE",
"274 369 OFFCURVE",
"317 369 CURVE SMOOTH",
"360 369 OFFCURVE",
"390 338 OFFCURVE",
"390 294 CURVE SMOOTH",
"390 -1 LINE"
);
}
);
width = 952;
},
{
background = {
paths = (
{
closed = 1;
nodes = (
"427 0 LINE",
"427 339 LINE SMOOTH",
"427 450 OFFCURVE",
"359 529 OFFCURVE",
"262 529 CURVE SMOOTH",
"169 529 OFFCURVE",
"103 472 OFFCURVE",
"103 391 CURVE",
"112 339 LINE",
"112 429 OFFCURVE",
"172 493 OFFCURVE",
"257 493 CURVE SMOOTH",
"335 493 OFFCURVE",
"391 427 OFFCURVE",
"391 334 CURVE SMOOTH",
"391 0 LINE"
);
}
);
};
layerId = "3B040282-CF47-4846-BCAF-7BFF90FB63BC";
paths = (
{
closed = 1;
nodes = (
"782 0 LINE",
"782 339 LINE SMOOTH",
"782 450 OFFCURVE",
"710 529 OFFCURVE",
"607 529 CURVE SMOOTH",
"512 529 OFFCURVE",
"438 472 OFFCURVE",
"428 391 CURVE",
"447 339 LINE",
"447 429 OFFCURVE",
"511 493 OFFCURVE",
"602 493 CURVE SMOOTH",
"686 493 OFFCURVE",
"746 427 OFFCURVE",
"746 334 CURVE SMOOTH",
"746 0 LINE"
);
},
{
closed = 1;
nodes = (
"112 0 LINE",
"112 517 LINE",
"76 517 LINE",
"76 0 LINE"
);
},
{
closed = 1;
nodes = (
"447 0 LINE",
"447 339 LINE SMOOTH",
"447 450 OFFCURVE",
"375 529 OFFCURVE",
"272 529 CURVE SMOOTH",
"173 529 OFFCURVE",
"103 472 OFFCURVE",
"103 391 CURVE",
"112 339 LINE",
"112 429 OFFCURVE",
"176 493 OFFCURVE",
"267 493 CURVE SMOOTH",
"351 493 OFFCURVE",
"411 427 OFFCURVE",
"411 334 CURVE SMOOTH",
"411 0 LINE"
);
}
);
width = 858;
}
);
unicode = 006D;
},
{
glyphname = n;
lastChange = "2016-07-28 00:37:44 +0000";
layers = (
{
anchors = (
{
name = top;
position = "{313, 517}";
}
);
components = (
{
name = lowercase_nh_shoulder;
}
);
layerId = "35616FF6-3D9C-499B-B113-AC9E0DB5842A";
paths = (
{
closed = 1;
nodes = (
"152 0 LINE",
"152 517 LINE",
"77 517 LINE",
"77 0 LINE"
);
}
);
width = 592;
},
{
anchors = (
{
name = top;
position = "{323, 517}";
}
);
components = (
{
name = lowercase_nh_shoulder;
transform = "{1, 0, 0, 1, 31, 0}";
}
);
layerId = "A0D976AB-773B-4D3A-9F7E-7A0C42AF1E7B";
paths = (
{
closed = 1;
nodes = (
"244 0 LINE",
"244 517 LINE",
"51 517 LINE",
"51 0 LINE"
);
}
);
width = 628;
},
{
anchors = (
{
name = top;
position = "{274, 517}";
}
);
components = (
{
name = lowercase_nh_shoulder;
transform = "{1, 0, 0, 1, -39, 0}";
}
);
layerId = "3B040282-CF47-4846-BCAF-7BFF90FB63BC";
paths = (
{
closed = 1;
nodes = (
"113 0 LINE",
"113 517 LINE",
"77 517 LINE",
"77 0 LINE"
);
}
);
width = 552;
}
);
unicode = 006E;
},
{
glyphname = o;
lastChange = "2016-07-27 02:32:40 +0000";
layers = (
{
anchors = (
{
name = top;
position = "{316, 517}";
}
);
layerId = "35616FF6-3D9C-499B-B113-AC9E0DB5842A";
paths = (
{
closed = 1;
nodes = (
"461 -12 OFFCURVE",
"583 112 OFFCURVE",
"583 259 CURVE SMOOTH",
"583 406 OFFCURVE",
"461 529 OFFCURVE",
"316 529 CURVE SMOOTH",
"171 529 OFFCURVE",
"48 406 OFFCURVE",
"48 259 CURVE SMOOTH",
"48 112 OFFCURVE",
"171 -12 OFFCURVE",
"316 -12 CURVE SMOOTH"
);
},
{
closed = 1;
nodes = (
"213 55 OFFCURVE",
"127 148 OFFCURVE",
"127 259 CURVE SMOOTH",
"127 369 OFFCURVE",
"213 462 OFFCURVE",
"316 462 CURVE SMOOTH",
"418 462 OFFCURVE",
"504 369 OFFCURVE",
"504 259 CURVE SMOOTH",
"504 148 OFFCURVE",
"418 55 OFFCURVE",
"316 55 CURVE SMOOTH"
);
}
);
width = 631;
},
{
anchors = (
{
name = top;
position = "{319, 517}";
}
);
layerId = "A0D976AB-773B-4D3A-9F7E-7A0C42AF1E7B";
paths = (
{
closed = 1;
nodes = (
"477 -12 OFFCURVE",
"610 112 OFFCURVE",
"610 259 CURVE SMOOTH",
"610 406 OFFCURVE",
"477 529 OFFCURVE",
"319 529 CURVE SMOOTH",
"160 529 OFFCURVE",
"27 406 OFFCURVE",
"27 259 CURVE SMOOTH",
"27 112 OFFCURVE",
"160 -12 OFFCURVE",
"319 -12 CURVE SMOOTH"
);
},
{
closed = 1;
nodes = (
"258 148 OFFCURVE",
"207 199 OFFCURVE",
"207 259 CURVE SMOOTH",
"207 319 OFFCURVE",
"258 369 OFFCURVE",
"319 369 CURVE SMOOTH",
"379 369 OFFCURVE",
"430 319 OFFCURVE",
"430 259 CURVE SMOOTH",
"430 199 OFFCURVE",
"379 148 OFFCURVE",
"319 148 CURVE SMOOTH"
);
}
);
width = 636;
},
{
anchors = (
{
name = top;
position = "{316, 517}";
}
);
layerId = "3B040282-CF47-4846-BCAF-7BFF90FB63BC";
paths = (
{
closed = 1;
nodes = (
"461 -12 OFFCURVE",
"583 112 OFFCURVE",
"583 259 CURVE SMOOTH",
"583 406 OFFCURVE",
"461 529 OFFCURVE",
"316 529 CURVE SMOOTH",
"171 529 OFFCURVE",
"48 406 OFFCURVE",
"48 259 CURVE SMOOTH",
"48 112 OFFCURVE",
"171 -12 OFFCURVE",
"316 -12 CURVE SMOOTH"
);
},
{
closed = 1;
nodes = (
"190 24 OFFCURVE",
"84 131 OFFCURVE",
"84 259 CURVE SMOOTH",
"84 386 OFFCURVE",
"190 493 OFFCURVE",
"316 493 CURVE SMOOTH",
"441 493 OFFCURVE",
"547 386 OFFCURVE",
"547 259 CURVE SMOOTH",
"547 131 OFFCURVE",
"441 24 OFFCURVE",
"316 24 CURVE SMOOTH"
);
}
);
width = 631;
}
);
unicode = 006F;
},
{
glyphname = oslash;
lastChange = "2016-07-26 12:09:19 +0000";
layers = (
{
components = (
{
name = o;
}
);
layerId = "35616FF6-3D9C-499B-B113-AC9E0DB5842A";
paths = (
{
closed = 1;
nodes = (
"139 0 LINE",
"580 517 LINE",
"495 517 LINE",
"54 0 LINE"
);
}
);
width = 631;
},
{
components = (
{
name = o;
}
);
layerId = "A0D976AB-773B-4D3A-9F7E-7A0C42AF1E7B";
paths = (
{
closed = 1;
nodes = (
"154 0 LINE",
"604 517 LINE",
"484 517 LINE",
"34 0 LINE"
);
}
);
width = 636;
},
{
components = (
{
name = o;
}
);
layerId = "3B040282-CF47-4846-BCAF-7BFF90FB63BC";
paths = (
{
closed = 1;
nodes = (
"121 0 LINE",
"562 517 LINE",
"514 517 LINE",
"73 0 LINE"
);
}
);
width = 631;
}
);
unicode = 00F8;
},
{
glyphname = p;
lastChange = "2016-07-28 00:38:12 +0000";
layers = (
{
components = (
{
name = lowercase_loop;
transform = "{1, 0, 0, 1, 30, 0}";
}
);
layerId = "35616FF6-3D9C-499B-B113-AC9E0DB5842A";
paths = (
{
closed = 1;
nodes = (
"158 -172 LINE",
"158 517 LINE",
"83 517 LINE",
"83 -172 LINE"
);
}
);
width = 638;
},
{
components = (
{
name = lowercase_loop;
transform = "{1, 0, 0, 1, 49, 0}";
}
);
layerId = "A0D976AB-773B-4D3A-9F7E-7A0C42AF1E7B";
paths = (
{
closed = 1;
nodes = (
"244 -172 LINE",
"244 517 LINE",
"51 517 LINE",
"51 -172 LINE"
);
}
);
width = 674;
},
{
components = (
{
name = lowercase_loop;
transform = "{1, 0, 0, 1, -6, 0}";
}
);
layerId = "3B040282-CF47-4846-BCAF-7BFF90FB63BC";
paths = (
{
closed = 1;
nodes = (
"119 -172 LINE",
"119 517 LINE",
"83 517 LINE",
"83 -172 LINE"
);
}
);
width = 609;
}
);
unicode = 0070;
},
{
glyphname = q;
lastChange = "2016-07-28 00:38:12 +0000";
layers = (
{
components = (
{
name = lowercase_loop;
transform = "{-1, 0, 0, 1, 608, 0}";
}
);
layerId = "35616FF6-3D9C-499B-B113-AC9E0DB5842A";
paths = (
{
closed = 1;
nodes = (
"555 -172 LINE",
"555 517 LINE",
"480 517 LINE",
"480 -172 LINE"
);
}
);
width = 638;
},
{
components = (
{
name = lowercase_loop;
transform = "{-1, 0, 0, 1, 625, 0}";
}
);
layerId = "A0D976AB-773B-4D3A-9F7E-7A0C42AF1E7B";
paths = (
{
closed = 1;
nodes = (
"623 -172 LINE",
"623 517 LINE",
"430 517 LINE",
"430 -172 LINE"
);
}
);
width = 674;
},
{
components = (
{
name = lowercase_loop;
transform = "{-1, 0, 0, 1, 615, 0}";
}
);
layerId = "3B040282-CF47-4846-BCAF-7BFF90FB63BC";
paths = (
{
closed = 1;
nodes = (
"526 -172 LINE",
"526 517 LINE",
"490 517 LINE",
"490 -172 LINE"
);
}
);
width = 609;
}
);
unicode = 0071;
},
{
glyphname = r;
lastChange = "2016-07-24 05:11:28 +0000";
layers = (
{
layerId = "35616FF6-3D9C-499B-B113-AC9E0DB5842A";
paths = (
{
closed = 1;
nodes = (
"158 390 OFFCURVE",
"241 462 OFFCURVE",
"358 462 CURVE",
"358 529 LINE",
"231 529 OFFCURVE",
"142 450 OFFCURVE",
"142 339 CURVE",
"158 289 LINE"
);
},
{
closed = 1;
nodes = (
"158 0 LINE",
"158 517 LINE",
"83 517 LINE",
"83 0 LINE"
);
}
);
width = 386;
},
{
layerId = "A0D976AB-773B-4D3A-9F7E-7A0C42AF1E7B";
paths = (
{
closed = 1;
nodes = (
"244 313 OFFCURVE",
"304 369 OFFCURVE",
"406 369 CURVE",
"406 529 LINE",
"292 529 OFFCURVE",
"211 425 OFFCURVE",
"211 279 CURVE",
"244 219 LINE"
);
},
{
closed = 1;
nodes = (
"244 0 LINE",
"244 517 LINE",
"51 517 LINE",
"51 0 LINE"
);
}
);
width = 421;
},
{
layerId = "3B040282-CF47-4846-BCAF-7BFF90FB63BC";
paths = (
{
closed = 1;
nodes = (
"119 408 OFFCURVE",
"202 493 OFFCURVE",
"319 493 CURVE",
"319 529 LINE",
"212 529 OFFCURVE",
"113 470 OFFCURVE",
"113 359 CURVE",
"119 289 LINE"
);
},
{
closed = 1;
nodes = (
"119 0 LINE",
"119 517 LINE",
"83 517 LINE",
"83 0 LINE"
);
}
);
width = 347;
}
);
unicode = 0072;
},
{
glyphname = s;
lastChange = "2016-07-26 14:46:30 +0000";
layers = (
{
layerId = "35616FF6-3D9C-499B-B113-AC9E0DB5842A";
paths = (
{
closed = 1;
nodes = (
"366 -12 OFFCURVE",
"448 49 OFFCURVE",
"448 144 CURVE SMOOTH",
"448 242 OFFCURVE",
"362 270 OFFCURVE",
"279 296 CURVE SMOOTH",
"183 327 OFFCURVE",
"145 341 OFFCURVE",
"145 386 CURVE SMOOTH",
"145 436 OFFCURVE",
"193 462 OFFCURVE",
"251 462 CURVE SMOOTH",
"297 462 OFFCURVE",
"348 446 OFFCURVE",
"400 413 CURVE",
"436 471 LINE",
"381 507 OFFCURVE",
"315 529 OFFCURVE",
"251 529 CURVE SMOOTH",
"148 529 OFFCURVE",
"70 471 OFFCURVE",
"70 377 CURVE SMOOTH",
"70 303 OFFCURVE",
"118 266 OFFCURVE",
"243 230 CURVE SMOOTH",
"313 210 OFFCURVE",
"373 192 OFFCURVE",
"373 136 CURVE SMOOTH",
"373 87 OFFCURVE",
"327 55 OFFCURVE",
"259 55 CURVE SMOOTH",
"202 55 OFFCURVE",
"143 77 OFFCURVE",
"84 120 CURVE",
"45 65 LINE",
"107 15 OFFCURVE",
"187 -12 OFFCURVE",
"259 -12 CURVE SMOOTH"
);
}
);
width = 496;
},
{
layerId = "A0D976AB-773B-4D3A-9F7E-7A0C42AF1E7B";
paths = (
{
closed = 1;
nodes = (
"397 -12 OFFCURVE",
"482 56 OFFCURVE",
"482 163 CURVE SMOOTH",
"482 285 OFFCURVE",
"374 316 OFFCURVE",
"280 337 CURVE SMOOTH",
"228 349 OFFCURVE",
"205 352 OFFCURVE",
"205 369 CURVE SMOOTH",
"205 384 OFFCURVE",
"223 398 OFFCURVE",
"250 398 CURVE SMOOTH",
"299 398 OFFCURVE",
"358 371 OFFCURVE",
"401 343 CURVE",
"466 461 LINE",
"407 500 OFFCURVE",
"330 529 OFFCURVE",
"250 529 CURVE SMOOTH",
"115 529 OFFCURVE",
"34 451 OFFCURVE",
"34 351 CURVE SMOOTH",
"34 229 OFFCURVE",
"139 206 OFFCURVE",
"233 186 CURVE SMOOTH",
"281 176 OFFCURVE",
"311 166 OFFCURVE",
"311 148 CURVE SMOOTH",
"311 131 OFFCURVE",
"298 122 OFFCURVE",
"262 122 CURVE SMOOTH",
"207 122 OFFCURVE",
"133 148 OFFCURVE",
"83 183 CURVE",
"11 66 LINE",
"74 17 OFFCURVE",
"167 -12 OFFCURVE",
"257 -12 CURVE SMOOTH"
);
}
);
width = 506;
},
{
layerId = "3B040282-CF47-4846-BCAF-7BFF90FB63BC";
paths = (
{
closed = 1;
nodes = (
"356 -12 OFFCURVE",
"438 50 OFFCURVE",
"438 124 CURVE SMOOTH",
"438 197 OFFCURVE",
"390 241 OFFCURVE",
"270 279 CURVE SMOOTH",
"160 314 OFFCURVE",
"116 349 OFFCURVE",
"116 401 CURVE SMOOTH",
"116 451 OFFCURVE",
"178 493 OFFCURVE",
"251 493 CURVE SMOOTH",
"304 493 OFFCURVE",
"364 474 OFFCURVE",
"414 443 CURVE",
"436 471 LINE",
"380 507 OFFCURVE",
"312 529 OFFCURVE",
"251 529 CURVE SMOOTH",
"158 529 OFFCURVE",
"80 469 OFFCURVE",
"80 397 CURVE SMOOTH",
"80 328 OFFCURVE",
"129 285 OFFCURVE",
"252 247 CURVE SMOOTH",
"359 214 OFFCURVE",
"402 178 OFFCURVE",
"402 120 CURVE SMOOTH",
"402 68 OFFCURVE",
"337 24 OFFCURVE",
"259 24 CURVE SMOOTH",
"198 24 OFFCURVE",
"127 50 OFFCURVE",
"67 93 CURVE",
"45 65 LINE",
"105 17 OFFCURVE",
"185 -12 OFFCURVE",
"259 -12 CURVE SMOOTH"
);
}
);
width = 486;
},
{
associatedMasterId = "35616FF6-3D9C-499B-B113-AC9E0DB5842A";
layerId = "BF550E2D-2659-4996-85C0-6FD9F9A4BC18";
name = "Intermediate {700, 5}";
paths = (
{
closed = 1;
nodes = (
"385 -12 OFFCURVE",
"468 53 OFFCURVE",
"468 155 CURVE SMOOTH",
"468 268 OFFCURVE",
"369 298 OFFCURVE",
"280 321 CURVE SMOOTH",
"210 340 OFFCURVE",
"189 348 OFFCURVE",
"189 376 CURVE SMOOTH",
"189 394 OFFCURVE",
"214 407 OFFCURVE",
"250 407 CURVE SMOOTH",
"294 407 OFFCURVE",
"348 390 OFFCURVE",
"395 361 CURVE",
"454 465 LINE",
"397 503 OFFCURVE",
"324 529 OFFCURVE",
"250 529 CURVE SMOOTH",
"128 529 OFFCURVE",
"48 459 OFFCURVE",
"48 361 CURVE SMOOTH",
"48 259 OFFCURVE",
"131 230 OFFCURVE",
"237 204 CURVE SMOOTH",
"290 190 OFFCURVE",
"328 180 OFFCURVE",
"328 148 CURVE SMOOTH",
"328 125 OFFCURVE",
"300 109 OFFCURVE",
"261 109 CURVE SMOOTH",
"192 109 OFFCURVE",
"134 134 OFFCURVE",
"88 167 CURVE",
"25 66 LINE",
"87 16 OFFCURVE",
"175 -12 OFFCURVE",
"258 -12 CURVE SMOOTH"
);
}
);
width = 502;
}
);
unicode = 0073;
},
{
glyphname = germandbls;
lastChange = "2016-07-26 12:12:36 +0000";
layers = (
{
layerId = "35616FF6-3D9C-499B-B113-AC9E0DB5842A";
paths = (
{
closed = 1;
nodes = (
"162 0 LINE",
"162 513 LINE SMOOTH",
"162 585 OFFCURVE",
"216 636 OFFCURVE",
"292 636 CURVE SMOOTH",
"368 636 OFFCURVE",
"422 586 OFFCURVE",
"422 516 CURVE SMOOTH",
"422 452 OFFCURVE",
"368 396 OFFCURVE",
"292 396 CURVE SMOOTH",
"237 396 LINE",
"237 325 LINE",
"304 325 LINE SMOOTH",
"389 325 OFFCURVE",
"449 272 OFFCURVE",
"449 198 CURVE SMOOTH",
"449 124 OFFCURVE",
"389 71 OFFCURVE",
"304 71 CURVE SMOOTH",
"237 71 LINE",
"237 0 LINE",
"324 0 LINE SMOOTH",
"443 0 OFFCURVE",
"528 78 OFFCURVE",
"528 188 CURVE SMOOTH",
"528 263 OFFCURVE",
"482 325 OFFCURVE",
"403 365 CURVE",
"465 401 OFFCURVE",
"501 453 OFFCURVE",
"501 526 CURVE SMOOTH",
"501 632 OFFCURVE",
"415 707 OFFCURVE",
"293 707 CURVE SMOOTH",
"171 707 OFFCURVE",
"84 632 OFFCURVE",
"84 526 CURVE SMOOTH",
"84 0 LINE"
);
}
);
width = 576;
},
{
layerId = "A0D976AB-773B-4D3A-9F7E-7A0C42AF1E7B";
paths = (
{
closed = 1;
nodes = (
"244 0 LINE",
"244 463 LINE SMOOTH",
"244 502 OFFCURVE",
"274 524 OFFCURVE",
"314 524 CURVE SMOOTH",
"357 524 OFFCURVE",
"383 502 OFFCURVE",
"383 472 CURVE SMOOTH",
"383 442 OFFCURVE",
"354 420 OFFCURVE",
"314 420 CURVE SMOOTH",
"313 420 LINE",
"313 273 LINE",
"343 273 LINE SMOOTH",
"385 273 OFFCURVE",
"415 250 OFFCURVE",
"415 218 CURVE SMOOTH",
"415 186 OFFCURVE",
"385 163 OFFCURVE",
"343 163 CURVE SMOOTH",
"313 163 LINE",
"313 0 LINE",
"375 0 LINE SMOOTH",
"515 0 OFFCURVE",
"615 75 OFFCURVE",
"615 185 CURVE SMOOTH",
"615 261 OFFCURVE",
"568 326 OFFCURVE",
"488 360 CURVE",
"548 389 OFFCURVE",
"583 447 OFFCURVE",
"583 514 CURVE SMOOTH",
"583 637 OFFCURVE",
"473 724 OFFCURVE",
"317 724 CURVE SMOOTH",
"161 724 OFFCURVE",
"51 637 OFFCURVE",
"51 514 CURVE SMOOTH",
"51 0 LINE"
);
}
);
width = 638;
},
{
layerId = "3B040282-CF47-4846-BCAF-7BFF90FB63BC";
paths = (
{
closed = 1;
nodes = (
"120 0 LINE",
"120 517 LINE SMOOTH",
"120 601 OFFCURVE",
"189 671 OFFCURVE",
"272 671 CURVE SMOOTH",
"354 671 OFFCURVE",
"423 602 OFFCURVE",
"423 519 CURVE SMOOTH",
"423 437 OFFCURVE",
"361 379 OFFCURVE",
"274 379 CURVE SMOOTH",
"206 379 LINE",
"206 343 LINE",
"280 343 LINE SMOOTH",
"380 343 OFFCURVE",
"450 282 OFFCURVE",
"450 196 CURVE SMOOTH",
"450 109 OFFCURVE",
"374 36 OFFCURVE",
"283 36 CURVE SMOOTH",
"206 36 LINE",
"206 0 LINE",
"303 0 LINE SMOOTH",
"402 0 OFFCURVE",
"486 87 OFFCURVE",
"486 191 CURVE SMOOTH",
"486 264 OFFCURVE",
"439 336 OFFCURVE",
"372 365 CURVE",
"423 389 OFFCURVE",
"459 455 OFFCURVE",
"459 524 CURVE SMOOTH",
"459 623 OFFCURVE",
"374 707 OFFCURVE",
"272 707 CURVE SMOOTH",
"170 707 OFFCURVE",
"84 623 OFFCURVE",
"84 523 CURVE SMOOTH",
"84 0 LINE"
);
}
);
width = 534;
}
);
unicode = 00DF;
},
{
glyphname = t;
lastChange = "2016-07-27 02:51:11 +0000";
layers = (
{
anchors = (
{
name = bottom;
position = "{246, 0}";
}
);
layerId = "35616FF6-3D9C-499B-B113-AC9E0DB5842A";
paths = (
{
closed = 1;
nodes = (
"279 -12 OFFCURVE",
"313 0 OFFCURVE",
"340 21 CURVE",
"303 76 LINE",
"292 64 OFFCURVE",
"272 55 OFFCURVE",
"249 55 CURVE SMOOTH",
"219 55 OFFCURVE",
"193 82 OFFCURVE",
"193 120 CURVE SMOOTH",
"193 659 LINE",
"118 659 LINE",
"118 120 LINE SMOOTH",
"118 43 OFFCURVE",
"170 -12 OFFCURVE",
"244 -12 CURVE SMOOTH"
);
},
{
closed = 1;
nodes = (
"320 450 LINE",
"320 517 LINE",
"37 517 LINE",
"37 450 LINE"
);
}
);
width = 370;
},
{
anchors = (
{
name = bottom;
position = "{260, 0}";
}
);
layerId = "A0D976AB-773B-4D3A-9F7E-7A0C42AF1E7B";
paths = (
{
closed = 1;
nodes = (
"304 -12 OFFCURVE",
"359 10 OFFCURVE",
"391 41 CURVE",
"358 163 LINE",
"348 154 OFFCURVE",
"329 148 OFFCURVE",
"311 148 CURVE SMOOTH",
"285 148 OFFCURVE",
"267 170 OFFCURVE",
"267 201 CURVE SMOOTH",
"267 659 LINE",
"83 659 LINE",
"83 163 LINE SMOOTH",
"83 60 OFFCURVE",
"155 -12 OFFCURVE",
"258 -12 CURVE SMOOTH"
);
},
{
closed = 1;
nodes = (
"369 365 LINE",
"369 517 LINE",
"18 517 LINE",
"18 365 LINE"
);
}
);
width = 416;
},
{
anchors = (
{
name = bottom;
position = "{235, 0}";
}
);
layerId = "3B040282-CF47-4846-BCAF-7BFF90FB63BC";
paths = (
{
closed = 1;
nodes = (
"268 -12 OFFCURVE",
"303 0 OFFCURVE",
"330 21 CURVE",
"310 50 LINE",
"289 34 OFFCURVE",
"262 24 OFFCURVE",
"236 24 CURVE SMOOTH",
"194 24 OFFCURVE",
"164 64 OFFCURVE",
"164 120 CURVE SMOOTH",
"164 659 LINE",
"128 659 LINE",
"128 120 LINE SMOOTH",
"128 43 OFFCURVE",
"172 -12 OFFCURVE",
"234 -12 CURVE SMOOTH"
);
},
{
closed = 1;
nodes = (
"300 481 LINE",
"300 517 LINE",
"37 517 LINE",
"37 481 LINE"
);
}
);
width = 360;
}
);
unicode = 0074;
},
{
glyphname = v;
lastChange = "2016-07-23 02:05:38 +0000";
layers = (
{
layerId = "35616FF6-3D9C-499B-B113-AC9E0DB5842A";
paths = (
{
closed = 1;
nodes = (
"319 0 LINE",
"536 517 LINE",
"452 517 LINE",
"283 88 LINE",
"111 517 LINE",
"27 517 LINE",
"247 0 LINE"
);
}
);
width = 563;
},
{
layerId = "A0D976AB-773B-4D3A-9F7E-7A0C42AF1E7B";
paths = (
{
closed = 1;
nodes = (
"408 0 LINE",
"631 517 LINE",
"433 517 LINE",
"319 221 LINE",
"202 517 LINE",
"4 517 LINE",
"230 0 LINE"
);
}
);
width = 635;
},
{
layerId = "3B040282-CF47-4846-BCAF-7BFF90FB63BC";
paths = (
{
closed = 1;
nodes = (
"286 0 LINE",
"523 517 LINE",
"484 517 LINE",
"275 61 LINE",
"66 517 LINE",
"27 517 LINE",
"264 0 LINE"
);
}
);
width = 550;
}
);
unicode = 0076;
},
{
glyphname = w;
lastChange = "2016-07-27 02:31:10 +0000";
layers = (
{
anchors = (
{
name = top;
position = "{418, 517}";
}
);
layerId = "35616FF6-3D9C-499B-B113-AC9E0DB5842A";
paths = (
{
closed = 1;
nodes = (
"279 0 LINE",
"418 413 LINE",
"555 0 LINE",
"626 0 LINE",
"800 517 LINE",
"720 517 LINE",
"591 100 LINE",
"450 518 LINE",
"385 518 LINE",
"244 100 LINE",
"115 517 LINE",
"35 517 LINE",
"208 0 LINE"
);
}
);
width = 833;
},
{
anchors = (
{
name = top;
position = "{424, 517}";
}
);
layerId = "A0D976AB-773B-4D3A-9F7E-7A0C42AF1E7B";
paths = (
{
closed = 1;
nodes = (
"356 0 LINE",
"424 266 LINE",
"494 0 LINE",
"665 0 LINE",
"841 517 LINE",
"656 517 LINE",
"580 259 LINE",
"503 518 LINE",
"345 518 LINE",
"269 259 LINE",
"192 517 LINE",
"7 517 LINE",
"185 0 LINE"
);
}
);
width = 847;
},
{
anchors = (
{
name = top;
position = "{397, 517}";
}
);
layerId = "3B040282-CF47-4846-BCAF-7BFF90FB63BC";
paths = (
{
closed = 1;
nodes = (
"249 0 LINE",
"397 450 LINE",
"545 0 LINE",
"590 0 LINE",
"760 517 LINE",
"723 517 LINE",
"568 48 LINE",
"413 517 LINE",
"382 517 LINE",
"227 48 LINE",
"72 517 LINE",
"35 517 LINE",
"204 0 LINE"
);
}
);
width = 793;
}
);
unicode = 0077;
},
{
glyphname = x;
lastChange = "2016-07-21 14:58:35 +0000";
layers = (
{
layerId = "35616FF6-3D9C-499B-B113-AC9E0DB5842A";
paths = (
{
closed = 1;
nodes = (
"519 0 LINE",
"128 517 LINE",
"40 517 LINE",
"431 0 LINE"
);
},
{
closed = 1;
nodes = (
"120 0 LINE",
"511 517 LINE",
"423 517 LINE",
"32 0 LINE"
);
}
);
width = 551;
},
{
layerId = "A0D976AB-773B-4D3A-9F7E-7A0C42AF1E7B";
paths = (
{
closed = 1;
nodes = (
"573 0 LINE",
"216 517 LINE",
"12 517 LINE",
"369 0 LINE"
);
},
{
closed = 1;
nodes = (
"202 0 LINE",
"563 517 LINE",
"364 517 LINE",
"3 0 LINE"
);
}
);
width = 576;
},
{
layerId = "3B040282-CF47-4846-BCAF-7BFF90FB63BC";
paths = (
{
closed = 1;
nodes = (
"475 0 LINE",
"84 517 LINE",
"40 517 LINE",
"431 0 LINE"
);
},
{
closed = 1;
nodes = (
"76 0 LINE",
"467 517 LINE",
"423 517 LINE",
"32 0 LINE"
);
}
);
width = 507;
}
);
unicode = 0078;
},
{
glyphname = y;
lastChange = "2016-07-25 08:02:18 +0000";
layers = (
{
anchors = (
{
name = top;
position = "{294, 517}";
}
);
layerId = "35616FF6-3D9C-499B-B113-AC9E0DB5842A";
paths = (
{
closed = 1;
nodes = (
"224 -179 OFFCURVE",
"274 -146 OFFCURVE",
"310 -58 CURVE SMOOTH",
"546 517 LINE",
"465 517 LINE",
"294 87 LINE",
"113 517 LINE",
"30 517 LINE",
"255 -2 LINE",
"225 -66 LINE",
"205 -101 OFFCURVE",
"183 -112 OFFCURVE",
"150 -112 CURVE SMOOTH",
"128 -112 OFFCURVE",
"107 -108 OFFCURVE",
"89 -99 CURVE",
"71 -163 LINE",
"95 -174 OFFCURVE",
"123 -180 OFFCURVE",
"153 -180 CURVE SMOOTH"
);
}
);
width = 593;
},
{
anchors = (
{
name = top;
position = "{308, 517}";
}
);
layerId = "A0D976AB-773B-4D3A-9F7E-7A0C42AF1E7B";
paths = (
{
closed = 1;
nodes = (
"289 -180 OFFCURVE",
"365 -115 OFFCURVE",
"407 -4 CURVE SMOOTH",
"602 517 LINE",
"408 517 LINE",
"308 198 LINE",
"202 517 LINE",
"5 517 LINE",
"214 -7 LINE",
"204 -27 LINE",
"198 -36 OFFCURVE",
"176 -43 OFFCURVE",
"152 -43 CURVE SMOOTH",
"138 -43 OFFCURVE",
"108 -31 OFFCURVE",
"79 -14 CURVE",
"40 -138 LINE",
"82 -163 OFFCURVE",
"149 -180 OFFCURVE",
"201 -180 CURVE SMOOTH"
);
}
);
width = 607;
},
{
anchors = (
{
name = top;
position = "{279, 517}";
}
);
layerId = "3B040282-CF47-4846-BCAF-7BFF90FB63BC";
paths = (
{
closed = 1;
nodes = (
"200 -179 OFFCURVE",
"249 -145 OFFCURVE",
"277 -76 CURVE SMOOTH",
"520 517 LINE",
"481 517 LINE",
"279 25 LINE",
"69 517 LINE",
"30 517 LINE",
"260 -21 LINE",
"229 -94 LINE",
"211 -125 OFFCURVE",
"173 -144 OFFCURVE",
"127 -144 CURVE SMOOTH",
"104 -144 OFFCURVE",
"78 -137 OFFCURVE",
"55 -126 CURVE",
"45 -163 LINE",
"68 -174 OFFCURVE",
"99 -180 OFFCURVE",
"127 -180 CURVE SMOOTH"
);
}
);
width = 567;
}
);
unicode = 0079;
},
{
glyphname = z;
lastChange = "2016-07-24 05:28:08 +0000";
layers = (
{
layerId = "35616FF6-3D9C-499B-B113-AC9E0DB5842A";
paths = (
{
closed = 1;
nodes = (
"462 0 LINE",
"462 71 LINE",
"154 71 LINE",
"460 458 LINE",
"460 517 LINE",
"60 517 LINE",
"60 446 LINE",
"359 446 LINE",
"54 59 LINE",
"54 0 LINE"
);
}
);
width = 514;
},
{
layerId = "A0D976AB-773B-4D3A-9F7E-7A0C42AF1E7B";
paths = (
{
closed = 1;
nodes = (
"514 0 LINE",
"514 160 LINE",
"282 160 LINE",
"511 384 LINE",
"512 517 LINE",
"40 517 LINE",
"40 357 LINE",
"262 357 LINE",
"33 133 LINE",
"33 0 LINE"
);
}
);
width = 544;
},
{
layerId = "3B040282-CF47-4846-BCAF-7BFF90FB63BC";
paths = (
{
closed = 1;
nodes = (
"462 0 LINE",
"462 36 LINE",
"101 36 LINE",
"460 487 LINE",
"460 517 LINE",
"60 517 LINE",
"60 481 LINE",
"413 481 LINE",
"54 30 LINE",
"54 0 LINE"
);
}
);
width = 514;
}
);
unicode = 007A;
},
{
glyphname = a.alt;
lastChange = "2016-07-26 11:42:47 +0000";
layers = (
{
anchors = (
{
name = bottom;
position = "{325, 0}";
},
{
name = onogek;
position = "{555, 0}";
},
{
name = top;
position = "{325, 517}";
}
);
components = (
{
name = lowercase_loop;
transform = "{-1, 0, 0, 1, 608, 0}";
}
);
layerId = "35616FF6-3D9C-499B-B113-AC9E0DB5842A";
paths = (
{
closed = 1;
nodes = (
"555 0 LINE",
"555 517 LINE",
"480 517 LINE",
"480 0 LINE"
);
}
);
width = 638;
},
{
anchors = (
{
name = bottom;
position = "{345, 0}";
},
{
name = onogek;
position = "{623, 0}";
},
{
name = top;
position = "{345, 517}";
}
);
components = (
{
name = lowercase_loop;
transform = "{-1, 0, 0, 1, 625, 0}";
}
);
layerId = "A0D976AB-773B-4D3A-9F7E-7A0C42AF1E7B";
paths = (
{
closed = 1;
nodes = (
"623 0 LINE",
"623 517 LINE",
"430 517 LINE",
"430 0 LINE"
);
}
);
width = 674;
},
{
anchors = (
{
name = bottom;
position = "{291, 0}";
},
{
name = onogek;
position = "{516, 0}";
},
{
name = top;
position = "{286, 517}";
}
);
components = (
{
name = lowercase_loop;
transform = "{-1, 0, 0, 1, 605, 0}";
}
);
layerId = "3B040282-CF47-4846-BCAF-7BFF90FB63BC";
paths = (
{
closed = 1;
nodes = (
"516 0 LINE",
"516 517 LINE",
"480 517 LINE",
"480 0 LINE"
);
}
);
width = 599;
}
);
},
{
glyphname = zero;
lastChange = "2016-07-25 13:21:24 +0000";
layers = (
{
layerId = "A0D976AB-773B-4D3A-9F7E-7A0C42AF1E7B";
paths = (
{
closed = 1;
nodes = (
"549 -12 OFFCURVE",
"683 135 OFFCURVE",
"683 344 CURVE SMOOTH",
"683 552 OFFCURVE",
"549 699 OFFCURVE",
"359 699 CURVE SMOOTH",
"169 699 OFFCURVE",
"35 552 OFFCURVE",
"35 344 CURVE SMOOTH",
"35 135 OFFCURVE",
"169 -12 OFFCURVE",
"359 -12 CURVE SMOOTH"
);
},
{
closed = 1;
nodes = (
"286 164 OFFCURVE",
"235 239 OFFCURVE",
"235 344 CURVE SMOOTH",
"235 449 OFFCURVE",
"286 523 OFFCURVE",
"359 523 CURVE SMOOTH",
"432 523 OFFCURVE",
"483 449 OFFCURVE",
"483 344 CURVE SMOOTH",
"483 239 OFFCURVE",
"432 164 OFFCURVE",
"359 164 CURVE SMOOTH"
);
}
);
width = 718;
},
{
layerId = "35616FF6-3D9C-499B-B113-AC9E0DB5842A";
paths = (
{
closed = 1;
nodes = (
"512 -12 OFFCURVE",
"630 135 OFFCURVE",
"630 344 CURVE SMOOTH",
"630 552 OFFCURVE",
"512 699 OFFCURVE",
"345 699 CURVE SMOOTH",
"177 699 OFFCURVE",
"59 552 OFFCURVE",
"59 344 CURVE SMOOTH",
"59 135 OFFCURVE",
"177 -12 OFFCURVE",
"345 -12 CURVE SMOOTH"
);
},
{
closed = 1;
nodes = (
"224 60 OFFCURVE",
"138 178 OFFCURVE",
"138 344 CURVE SMOOTH",
"138 510 OFFCURVE",
"224 627 OFFCURVE",
"345 627 CURVE SMOOTH",
"466 627 OFFCURVE",
"551 510 OFFCURVE",
"551 344 CURVE SMOOTH",
"551 178 OFFCURVE",
"466 60 OFFCURVE",
"345 60 CURVE SMOOTH"
);
}
);
width = 689;
},
{
layerId = "3B040282-CF47-4846-BCAF-7BFF90FB63BC";
paths = (
{
closed = 1;
nodes = (
"478 -12 OFFCURVE",
"587 135 OFFCURVE",
"587 344 CURVE SMOOTH",
"587 552 OFFCURVE",
"478 699 OFFCURVE",
"323 699 CURVE SMOOTH",
"168 699 OFFCURVE",
"59 552 OFFCURVE",
"59 344 CURVE SMOOTH",
"59 135 OFFCURVE",
"168 -12 OFFCURVE",
"323 -12 CURVE SMOOTH"
);
},
{
closed = 1;
nodes = (
"189 24 OFFCURVE",
"95 157 OFFCURVE",
"95 344 CURVE SMOOTH",
"95 531 OFFCURVE",
"189 663 OFFCURVE",
"323 663 CURVE SMOOTH",
"457 663 OFFCURVE",
"551 531 OFFCURVE",
"551 344 CURVE SMOOTH",
"551 157 OFFCURVE",
"457 24 OFFCURVE",
"323 24 CURVE SMOOTH"
);
}
);
width = 646;
}
);
unicode = 0030;
},
{
glyphname = one;
lastChange = "2016-07-25 13:23:43 +0000";
layers = (
{
layerId = "A0D976AB-773B-4D3A-9F7E-7A0C42AF1E7B";
paths = (
{
closed = 1;
nodes = (
"391 0 LINE",
"391 687 LINE",
"236 687 LINE",
"6 533 LINE",
"82 399 LINE",
"197 469 LINE",
"197 0 LINE"
);
}
);
width = 456;
},
{
layerId = "35616FF6-3D9C-499B-B113-AC9E0DB5842A";
paths = (
{
closed = 1;
nodes = (
"258 0 LINE",
"258 687 LINE",
"195 687 LINE",
"26 572 LINE",
"60 514 LINE",
"180 592 LINE",
"180 0 LINE"
);
}
);
width = 353;
},
{
layerId = "3B040282-CF47-4846-BCAF-7BFF90FB63BC";
paths = (
{
closed = 1;
nodes = (
"237 0 LINE",
"237 687 LINE",
"208 687 LINE",
"26 572 LINE",
"45 542 LINE",
"201 640 LINE",
"201 0 LINE"
);
}
);
width = 332;
}
);
unicode = 0031;
},
{
glyphname = two;
lastChange = "2016-07-25 13:41:34 +0000";
layers = (
{
layerId = "A0D976AB-773B-4D3A-9F7E-7A0C42AF1E7B";
paths = (
{
closed = 1;
nodes = (
"590 0 LINE",
"590 173 LINE",
"337 173 LINE",
"426 230 LINE SMOOTH",
"548 308 OFFCURVE",
"584 378 OFFCURVE",
"584 468 CURVE SMOOTH",
"584 601 OFFCURVE",
"474 699 OFFCURVE",
"311 699 CURVE SMOOTH",
"197 699 OFFCURVE",
"104 653 OFFCURVE",
"28 563 CURVE",
"148 442 LINE",
"201 495 OFFCURVE",
"247 523 OFFCURVE",
"306 523 CURVE SMOOTH",
"351 523 OFFCURVE",
"384 498 OFFCURVE",
"384 460 CURVE SMOOTH",
"384 424 OFFCURVE",
"367 393 OFFCURVE",
"295 341 CURVE SMOOTH",
"40 157 LINE",
"40 0 LINE"
);
}
);
width = 625;
},
{
layerId = "35616FF6-3D9C-499B-B113-AC9E0DB5842A";
paths = (
{
closed = 1;
nodes = (
"523 0 LINE",
"523 74 LINE",
"174 74 LINE",
"354 230 LINE SMOOTH",
"470 330 OFFCURVE",
"516 404 OFFCURVE",
"516 497 CURVE SMOOTH",
"516 620 OFFCURVE",
"416 699 OFFCURVE",
"297 699 CURVE SMOOTH",
"189 699 OFFCURVE",
"112 648 OFFCURVE",
"55 567 CURVE",
"110 522 LINE",
"157 586 OFFCURVE",
"214 629 OFFCURVE",
"294 629 CURVE SMOOTH",
"367 629 OFFCURVE",
"437 580 OFFCURVE",
"437 496 CURVE SMOOTH",
"437 428 OFFCURVE",
"397 362 OFFCURVE",
"300 279 CURVE SMOOTH",
"49 65 LINE",
"49 0 LINE"
);
}
);
width = 589;
},
{
layerId = "3B040282-CF47-4846-BCAF-7BFF90FB63BC";
paths = (
{
closed = 1;
nodes = (
"513 0 LINE",
"513 36 LINE",
"99 36 LINE",
"339 241 LINE SMOOTH",
"443 330 OFFCURVE",
"495 414 OFFCURVE",
"495 498 CURVE SMOOTH",
"495 603 OFFCURVE",
"413 699 OFFCURVE",
"288 699 CURVE SMOOTH",
"206 699 OFFCURVE",
"117 658 OFFCURVE",
"55 567 CURVE",
"83 545 LINE",
"139 624 OFFCURVE",
"216 665 OFFCURVE",
"290 665 CURVE SMOOTH",
"395 665 OFFCURVE",
"459 581 OFFCURVE",
"459 497 CURVE SMOOTH",
"459 429 OFFCURVE",
"416 354 OFFCURVE",
"316 268 CURVE SMOOTH",
"49 39 LINE",
"49 0 LINE"
);
}
);
width = 579;
}
);
unicode = 0032;
},
{
glyphname = three;
lastChange = "2016-07-25 13:46:28 +0000";
layers = (
{
layerId = "A0D976AB-773B-4D3A-9F7E-7A0C42AF1E7B";
paths = (
{
closed = 1;
nodes = (
"482 -13 OFFCURVE",
"592 74 OFFCURVE",
"592 196 CURVE SMOOTH",
"592 281 OFFCURVE",
"529 336 OFFCURVE",
"451 354 CURVE",
"529 377 OFFCURVE",
"577 436 OFFCURVE",
"577 510 CURVE SMOOTH",
"577 618 OFFCURVE",
"479 699 OFFCURVE",
"309 699 CURVE SMOOTH",
"177 699 OFFCURVE",
"91 646 OFFCURVE",
"31 577 CURVE",
"138 458 LINE",
"182 499 OFFCURVE",
"231 526 OFFCURVE",
"288 526 CURVE SMOOTH",
"344 526 OFFCURVE",
"379 507 OFFCURVE",
"379 473 CURVE SMOOTH",
"379 442 OFFCURVE",
"350 425 OFFCURVE",
"286 425 CURVE SMOOTH",
"204 425 LINE",
"204 263 LINE",
"287 264 LINE SMOOTH",
"369 265 OFFCURVE",
"392 247 OFFCURVE",
"392 214 CURVE SMOOTH",
"392 183 OFFCURVE",
"361 160 OFFCURVE",
"299 160 CURVE SMOOTH",
"240 160 OFFCURVE",
"176 182 OFFCURVE",
"125 230 CURVE",
"16 101 LINE",
"80 33 OFFCURVE",
"179 -13 OFFCURVE",
"310 -13 CURVE SMOOTH"
);
}
);
width = 619;
},
{
layerId = "35616FF6-3D9C-499B-B113-AC9E0DB5842A";
paths = (
{
closed = 1;
nodes = (
"433 -12 OFFCURVE",
"529 71 OFFCURVE",
"529 186 CURVE SMOOTH",
"529 285 OFFCURVE",
"451 336 OFFCURVE",
"381 352 CURVE",
"452 373 OFFCURVE",
"514 425 OFFCURVE",
"514 513 CURVE SMOOTH",
"514 623 OFFCURVE",
"418 699 OFFCURVE",
"287 699 CURVE SMOOTH",
"180 699 OFFCURVE",
"104 647 OFFCURVE",
"52 578 CURVE",
"104 531 LINE",
"153 590 OFFCURVE",
"207 628 OFFCURVE",
"283 628 CURVE SMOOTH",
"369 628 OFFCURVE",
"435 576 OFFCURVE",
"435 504 CURVE SMOOTH",
"435 426 OFFCURVE",
"366 382 OFFCURVE",
"274 383 CURVE SMOOTH",
"200 384 LINE",
"200 312 LINE",
"273 312 LINE SMOOTH",
"381 312 OFFCURVE",
"450 271 OFFCURVE",
"450 190 CURVE SMOOTH",
"450 112 OFFCURVE",
"386 59 OFFCURVE",
"290 59 CURVE SMOOTH",
"206 59 OFFCURVE",
"139 99 OFFCURVE",
"94 157 CURVE",
"40 106 LINE",
"90 40 OFFCURVE",
"177 -12 OFFCURVE",
"290 -12 CURVE SMOOTH"
);
}
);
width = 586;
},
{
layerId = "3B040282-CF47-4846-BCAF-7BFF90FB63BC";
paths = (
{
closed = 1;
nodes = (
"393 -12 OFFCURVE",
"493 79 OFFCURVE",
"493 187 CURVE SMOOTH",
"493 272 OFFCURVE",
"446 334 OFFCURVE",
"366 352 CURVE",
"436 373 OFFCURVE",
"478 432 OFFCURVE",
"478 511 CURVE SMOOTH",
"478 613 OFFCURVE",
"384 699 OFFCURVE",
"272 699 CURVE SMOOTH",
"187 699 OFFCURVE",
"114 656 OFFCURVE",
"48 568 CURVE",
"75 544 LINE",
"131 624 OFFCURVE",
"195 663 OFFCURVE",
"268 663 CURVE SMOOTH",
"362 663 OFFCURVE",
"442 592 OFFCURVE",
"442 507 CURVE SMOOTH",
"442 418 OFFCURVE",
"374 366 OFFCURVE",
"259 366 CURVE SMOOTH",
"196 366 LINE",
"196 330 LINE",
"258 330 LINE SMOOTH",
"383 330 OFFCURVE",
"457 278 OFFCURVE",
"457 189 CURVE SMOOTH",
"457 99 OFFCURVE",
"374 24 OFFCURVE",
"275 24 CURVE SMOOTH",
"188 24 OFFCURVE",
"119 64 OFFCURVE",
"66 145 CURVE",
"40 120 LINE",
"107 31 OFFCURVE",
"184 -12 OFFCURVE",
"275 -12 CURVE SMOOTH"
);
}
);
width = 550;
}
);
unicode = 0033;
},
{
glyphname = four;
lastChange = "2016-07-25 13:29:25 +0000";
layers = (
{
layerId = "A0D976AB-773B-4D3A-9F7E-7A0C42AF1E7B";
paths = (
{
closed = 1;
nodes = (
"556 0 LINE",
"556 122 LINE",
"639 122 LINE",
"639 282 LINE",
"556 282 LINE",
"556 686 LINE",
"318 686 LINE",
"15 268 LINE",
"31 122 LINE",
"362 122 LINE",
"362 0 LINE"
);
},
{
closed = 1;
nodes = (
"362 488 LINE",
"362 282 LINE",
"214 282 LINE"
);
}
);
width = 665;
},
{
layerId = "35616FF6-3D9C-499B-B113-AC9E0DB5842A";
paths = (
{
closed = 1;
nodes = (
"471 0 LINE",
"471 167 LINE",
"574 167 LINE",
"574 238 LINE",
"471 238 LINE",
"471 687 LINE",
"381 687 LINE",
"40 232 LINE",
"50 167 LINE",
"393 167 LINE",
"393 0 LINE"
);
},
{
closed = 1;
nodes = (
"393 593 LINE",
"393 238 LINE",
"129 238 LINE"
);
}
);
width = 623;
},
{
layerId = "3B040282-CF47-4846-BCAF-7BFF90FB63BC";
paths = (
{
closed = 1;
nodes = (
"429 0 LINE",
"429 185 LINE",
"543 185 LINE",
"543 221 LINE",
"429 221 LINE",
"429 687 LINE",
"379 687 LINE",
"40 222 LINE",
"46 185 LINE",
"393 185 LINE",
"393 0 LINE"
);
},
{
closed = 1;
nodes = (
"393 644 LINE",
"393 221 LINE",
"85 221 LINE"
);
}
);
width = 592;
}
);
unicode = 0034;
},
{
glyphname = five;
lastChange = "2016-07-27 00:57:25 +0000";
layers = (
{
layerId = "A0D976AB-773B-4D3A-9F7E-7A0C42AF1E7B";
paths = (
{
closed = 1;
nodes = (
"484 -13 OFFCURVE",
"597 82 OFFCURVE",
"597 234 CURVE SMOOTH",
"597 376 OFFCURVE",
"490 454 OFFCURVE",
"370 454 CURVE SMOOTH",
"318 454 OFFCURVE",
"276 439 OFFCURVE",
"244 416 CURVE",
"247 514 LINE",
"559 514 LINE",
"559 687 LINE",
"70 687 LINE",
"60 304 LINE",
"187 256 LINE",
"220 282 OFFCURVE",
"260 296 OFFCURVE",
"307 296 CURVE SMOOTH",
"368 296 OFFCURVE",
"404 269 OFFCURVE",
"404 227 CURVE SMOOTH",
"404 188 OFFCURVE",
"370 154 OFFCURVE",
"304 154 CURVE SMOOTH",
"245 154 OFFCURVE",
"184 183 OFFCURVE",
"133 226 CURVE",
"23 90 LINE",
"92 26 OFFCURVE",
"183 -13 OFFCURVE",
"304 -13 CURVE SMOOTH"
);
}
);
width = 630;
},
{
layerId = "35616FF6-3D9C-499B-B113-AC9E0DB5842A";
paths = (
{
closed = 1;
nodes = (
"439 -12 OFFCURVE",
"542 78 OFFCURVE",
"542 214 CURVE SMOOTH",
"542 350 OFFCURVE",
"439 428 OFFCURVE",
"315 428 CURVE SMOOTH",
"252 428 OFFCURVE",
"205 407 OFFCURVE",
"168 382 CURVE",
"175 613 LINE",
"505 613 LINE",
"505 687 LINE",
"99 687 LINE",
"89 334 LINE",
"146 306 LINE",
"189 338 OFFCURVE",
"240 359 OFFCURVE",
"299 359 CURVE SMOOTH",
"395 359 OFFCURVE",
"463 299 OFFCURVE",
"463 211 CURVE SMOOTH",
"463 124 OFFCURVE",
"396 58 OFFCURVE",
"301 58 CURVE SMOOTH",
"225 58 OFFCURVE",
"160 96 OFFCURVE",
"107 154 CURVE",
"56 97 LINE",
"112 33 OFFCURVE",
"192 -12 OFFCURVE",
"298 -12 CURVE SMOOTH"
);
}
);
width = 599;
},
{
layerId = "3B040282-CF47-4846-BCAF-7BFF90FB63BC";
paths = (
{
closed = 1;
nodes = (
"420 -12 OFFCURVE",
"521 91 OFFCURVE",
"521 214 CURVE SMOOTH",
"521 325 OFFCURVE",
"425 418 OFFCURVE",
"311 418 CURVE SMOOTH",
"248 418 OFFCURVE",
"186 398 OFFCURVE",
"146 364 CURVE",
"153 651 LINE",
"495 651 LINE",
"495 687 LINE",
"118 687 LINE",
"109 341 LINE",
"145 323 LINE",
"194 360 OFFCURVE",
"252 382 OFFCURVE",
"303 382 CURVE SMOOTH",
"402 382 OFFCURVE",
"485 304 OFFCURVE",
"485 211 CURVE SMOOTH",
"485 109 OFFCURVE",
"400 24 OFFCURVE",
"300 24 CURVE SMOOTH",
"217 24 OFFCURVE",
"135 61 OFFCURVE",
"80 124 CURVE",
"56 97 LINE",
"116 28 OFFCURVE",
"207 -12 OFFCURVE",
"300 -12 CURVE SMOOTH"
);
}
);
width = 578;
}
);
unicode = 0035;
},
{
glyphname = six;
lastChange = "2016-07-26 11:31:48 +0000";
layers = (
{
layerId = "A0D976AB-773B-4D3A-9F7E-7A0C42AF1E7B";
paths = (
{
closed = 1;
nodes = (
"499 -12 OFFCURVE",
"621 83 OFFCURVE",
"621 233 CURVE SMOOTH",
"621 370 OFFCURVE",
"516 454 OFFCURVE",
"388 454 CURVE SMOOTH",
"311 454 OFFCURVE",
"232 420 OFFCURVE",
"196 371 CURVE",
"217 181 LINE",
"220 250 OFFCURVE",
"265 299 OFFCURVE",
"326 299 CURVE SMOOTH",
"376 299 OFFCURVE",
"421 272 OFFCURVE",
"421 225 CURVE SMOOTH",
"421 183 OFFCURVE",
"385 152 OFFCURVE",
"331 152 CURVE SMOOTH",
"247 152 OFFCURVE",
"231 202 OFFCURVE",
"231 331 CURVE SMOOTH",
"231 458 OFFCURVE",
"279 530 OFFCURVE",
"374 530 CURVE SMOOTH",
"426 530 OFFCURVE",
"464 514 OFFCURVE",
"505 484 CURVE",
"593 630 LINE",
"533 673 OFFCURVE",
"459 699 OFFCURVE",
"372 699 CURVE SMOOTH",
"159 699 OFFCURVE",
"31 552 OFFCURVE",
"31 331 CURVE SMOOTH",
"31 127 OFFCURVE",
"134 -12 OFFCURVE",
"344 -12 CURVE SMOOTH"
);
}
);
width = 656;
},
{
layerId = "35616FF6-3D9C-499B-B113-AC9E0DB5842A";
paths = (
{
closed = 1;
nodes = (
"464 -12 OFFCURVE",
"563 88 OFFCURVE",
"563 215 CURVE SMOOTH",
"563 351 OFFCURVE",
"458 429 OFFCURVE",
"333 429 CURVE SMOOTH",
"244 429 OFFCURVE",
"167 382 OFFCURVE",
"127 303 CURVE",
"144 203 LINE",
"148 296 OFFCURVE",
"221 362 OFFCURVE",
"319 362 CURVE SMOOTH",
"411 362 OFFCURVE",
"484 305 OFFCURVE",
"484 211 CURVE SMOOTH",
"484 135 OFFCURVE",
"423 55 OFFCURVE",
"320 55 CURVE SMOOTH",
"195 55 OFFCURVE",
"139 181 OFFCURVE",
"139 333 CURVE SMOOTH",
"139 498 OFFCURVE",
"226 628 OFFCURVE",
"336 628 CURVE SMOOTH",
"402 628 OFFCURVE",
"447 598 OFFCURVE",
"490 556 CURVE",
"533 617 LINE",
"482 666 OFFCURVE",
"422 699 OFFCURVE",
"338 699 CURVE SMOOTH",
"182 699 OFFCURVE",
"60 538 OFFCURVE",
"60 333 CURVE SMOOTH",
"60 139 OFFCURVE",
"135 -12 OFFCURVE",
"321 -12 CURVE SMOOTH"
);
}
);
width = 623;
},
{
layerId = "3B040282-CF47-4846-BCAF-7BFF90FB63BC";
paths = (
{
closed = 1;
nodes = (
"419 -12 OFFCURVE",
"520 91 OFFCURVE",
"520 214 CURVE SMOOTH",
"520 331 OFFCURVE",
"423 429 OFFCURVE",
"308 429 CURVE SMOOTH",
"189 429 OFFCURVE",
"89 351 OFFCURVE",
"89 258 CURVE",
"98 208 LINE",
"102 308 OFFCURVE",
"195 393 OFFCURVE",
"301 393 CURVE SMOOTH",
"400 393 OFFCURVE",
"484 310 OFFCURVE",
"484 212 CURVE SMOOTH",
"484 110 OFFCURVE",
"399 24 OFFCURVE",
"299 24 CURVE SMOOTH",
"171 24 OFFCURVE",
"95 139 OFFCURVE",
"95 333 CURVE SMOOTH",
"95 526 OFFCURVE",
"186 663 OFFCURVE",
"314 663 CURVE SMOOTH",
"377 663 OFFCURVE",
"443 635 OFFCURVE",
"491 588 CURVE",
"511 617 LINE",
"457 669 OFFCURVE",
"385 699 OFFCURVE",
"316 699 CURVE SMOOTH",
"166 699 OFFCURVE",
"60 547 OFFCURVE",
"60 333 CURVE SMOOTH",
"60 116 OFFCURVE",
"149 -12 OFFCURVE",
"299 -12 CURVE SMOOTH"
);
}
);
width = 580;
}
);
unicode = 0036;
},
{
glyphname = seven;
lastChange = "2016-07-25 13:36:06 +0000";
layers = (
{
layerId = "A0D976AB-773B-4D3A-9F7E-7A0C42AF1E7B";
paths = (
{
closed = 1;
nodes = (
"316 0 LINE",
"581 541 LINE",
"581 687 LINE",
"39 687 LINE",
"39 514 LINE",
"358 514 LINE",
"98 0 LINE"
);
}
);
width = 606;
},
{
layerId = "35616FF6-3D9C-499B-B113-AC9E0DB5842A";
paths = (
{
closed = 1;
nodes = (
"228 0 LINE",
"524 628 LINE",
"524 687 LINE",
"59 687 LINE",
"59 613 LINE",
"431 613 LINE",
"138 0 LINE"
);
}
);
width = 600;
},
{
layerId = "3B040282-CF47-4846-BCAF-7BFF90FB63BC";
paths = (
{
closed = 1;
nodes = (
"205 0 LINE",
"514 658 LINE",
"514 687 LINE",
"59 687 LINE",
"59 651 LINE",
"471.184 651 LINE",
"165 0 LINE"
);
}
);
width = 590;
}
);
unicode = 0037;
},
{
glyphname = eight;
lastChange = "2016-07-27 01:09:13 +0000";
layers = (
{
layerId = "A0D976AB-773B-4D3A-9F7E-7A0C42AF1E7B";
paths = (
{
closed = 1;
nodes = (
"476 -12 OFFCURVE",
"611 56 OFFCURVE",
"611 187 CURVE SMOOTH",
"611 261 OFFCURVE",
"566 320 OFFCURVE",
"487 355 CURVE",
"554 387 OFFCURVE",
"593 437 OFFCURVE",
"593 510 CURVE SMOOTH",
"593 631 OFFCURVE",
"465 699 OFFCURVE",
"318 699 CURVE SMOOTH",
"174 699 OFFCURVE",
"44 634 OFFCURVE",
"44 509 CURVE SMOOTH",
"44 432 OFFCURVE",
"88 384 OFFCURVE",
"149 355 CURVE",
"74 323 OFFCURVE",
"26 265 OFFCURVE",
"26 187 CURVE SMOOTH",
"26 57 OFFCURVE",
"159 -12 OFFCURVE",
"318 -12 CURVE SMOOTH"
);
},
{
closed = 1;
nodes = (
"259 148 OFFCURVE",
"222 173 OFFCURVE",
"222 210 CURVE SMOOTH",
"222 245 OFFCURVE",
"267 269 OFFCURVE",
"318 272 CURVE",
"369 269 OFFCURVE",
"415 245 OFFCURVE",
"415 210 CURVE SMOOTH",
"415 173 OFFCURVE",
"376 148 OFFCURVE",
"318 148 CURVE SMOOTH"
);
},
{
closed = 1;
nodes = (
"272 423 OFFCURVE",
"235 448 OFFCURVE",
"235 482 CURVE SMOOTH",
"235 514 OFFCURVE",
"266 540 OFFCURVE",
"318 540 CURVE SMOOTH",
"370 540 OFFCURVE",
"402 514 OFFCURVE",
"402 482 CURVE SMOOTH",
"402 449 OFFCURVE",
"364 423 OFFCURVE",
"318 420 CURVE"
);
}
);
width = 636;
},
{
layerId = "35616FF6-3D9C-499B-B113-AC9E0DB5842A";
paths = (
{
closed = 1;
nodes = (
"444 -12 OFFCURVE",
"554 63 OFFCURVE",
"554 180 CURVE SMOOTH",
"554 266 OFFCURVE",
"486 327 OFFCURVE",
"403 355 CURVE",
"474 381 OFFCURVE",
"537 432 OFFCURVE",
"537 516 CURVE SMOOTH",
"537 629 OFFCURVE",
"426 699 OFFCURVE",
"303 699 CURVE SMOOTH",
"184 699 OFFCURVE",
"70 631 OFFCURVE",
"70 517 CURVE SMOOTH",
"70 438 OFFCURVE",
"126 385 OFFCURVE",
"204 355 CURVE",
"120 328 OFFCURVE",
"52 266 OFFCURVE",
"52 180 CURVE SMOOTH",
"52 64 OFFCURVE",
"161 -12 OFFCURVE",
"303 -12 CURVE SMOOTH"
);
},
{
closed = 1;
nodes = (
"208 59 OFFCURVE",
"131 110 OFFCURVE",
"131 185 CURVE SMOOTH",
"131 268 OFFCURVE",
"232 316 OFFCURVE",
"303 318 CURVE",
"375 316 OFFCURVE",
"475 268 OFFCURVE",
"475 185 CURVE SMOOTH",
"475 110 OFFCURVE",
"398 59 OFFCURVE",
"303 59 CURVE SMOOTH"
);
},
{
closed = 1;
nodes = (
"238 390 OFFCURVE",
"149 429 OFFCURVE",
"149 509 CURVE SMOOTH",
"149 578 OFFCURVE",
"217 628 OFFCURVE",
"303 628 CURVE SMOOTH",
"389 628 OFFCURVE",
"458 578 OFFCURVE",
"458 509 CURVE SMOOTH",
"458 431 OFFCURVE",
"370 390 OFFCURVE",
"303 386 CURVE"
);
}
);
width = 606;
},
{
layerId = "3B040282-CF47-4846-BCAF-7BFF90FB63BC";
paths = (
{
closed = 1;
nodes = (
"406 -12 OFFCURVE",
"511 74 OFFCURVE",
"511 177 CURVE SMOOTH",
"511 255 OFFCURVE",
"449 328 OFFCURVE",
"361 354 CURVE",
"439 379 OFFCURVE",
"494 448 OFFCURVE",
"494 520 CURVE SMOOTH",
"494 617 OFFCURVE",
"397 699 OFFCURVE",
"281 699 CURVE SMOOTH",
"166 699 OFFCURVE",
"70 617 OFFCURVE",
"70 520 CURVE SMOOTH",
"70 449 OFFCURVE",
"125 380 OFFCURVE",
"202 354 CURVE",
"114 329 OFFCURVE",
"52 256 OFFCURVE",
"52 177 CURVE SMOOTH",
"52 74 OFFCURVE",
"157 -12 OFFCURVE",
"281 -12 CURVE SMOOTH"
);
},
{
closed = 1;
nodes = (
"176 24 OFFCURVE",
"88 95 OFFCURVE",
"88 179 CURVE SMOOTH",
"88 265 OFFCURVE",
"168 328 OFFCURVE",
"281 331 CURVE",
"395 328 OFFCURVE",
"475 265 OFFCURVE",
"475 179 CURVE SMOOTH",
"475 95 OFFCURVE",
"386 24 OFFCURVE",
"281 24 CURVE SMOOTH"
);
},
{
closed = 1;
nodes = (
"178 379 OFFCURVE",
"106 438 OFFCURVE",
"106 516 CURVE SMOOTH",
"106 596 OFFCURVE",
"186 663 OFFCURVE",
"281 663 CURVE SMOOTH",
"377 663 OFFCURVE",
"458 596 OFFCURVE",
"458 516 CURVE SMOOTH",
"458 438 OFFCURVE",
"385 379 OFFCURVE",
"281 373 CURVE"
);
}
);
width = 563;
}
);
unicode = 0038;
},
{
glyphname = asterisk;
lastChange = "2016-07-27 02:23:30 +0000";
layers = (
{
layerId = "35616FF6-3D9C-499B-B113-AC9E0DB5842A";
paths = (
{
closed = 1;
nodes = (
"218 376 OFFCURVE",
"229 386 OFFCURVE",
"229 398 CURVE SMOOTH",
"229 440 OFFCURVE",
"218 481 OFFCURVE",
"213 523 CURVE",
"247 498 OFFCURVE",
"277 468 OFFCURVE",
"313 447 CURVE SMOOTH",
"323 441 OFFCURVE",
"338 446 OFFCURVE",
"345 458 CURVE SMOOTH",
"352 470 OFFCURVE",
"348 484 OFFCURVE",
"338 490 CURVE SMOOTH",
"302 511 OFFCURVE",
"261 522 OFFCURVE",
"222 539 CURVE",
"261 556 OFFCURVE",
"302 567 OFFCURVE",
"338 588 CURVE SMOOTH",
"348 594 OFFCURVE",
"352 608 OFFCURVE",
"345 620 CURVE SMOOTH",
"338 632 OFFCURVE",
"323 637 OFFCURVE",
"313 631 CURVE SMOOTH",
"277 610 OFFCURVE",
"247 580 OFFCURVE",
"213 555 CURVE",
"218 597 OFFCURVE",
"229 638 OFFCURVE",
"229 680 CURVE SMOOTH",
"229 692 OFFCURVE",
"218 702 OFFCURVE",
"204 702 CURVE SMOOTH",
"190 702 OFFCURVE",
"179 692 OFFCURVE",
"179 680 CURVE SMOOTH",
"179 638 OFFCURVE",
"190 597 OFFCURVE",
"195 555 CURVE",
"161 580 OFFCURVE",
"131 610 OFFCURVE",
"95 631 CURVE SMOOTH",
"85 637 OFFCURVE",
"70 632 OFFCURVE",
"63 620 CURVE SMOOTH",
"56 608 OFFCURVE",
"60 594 OFFCURVE",
"70 588 CURVE SMOOTH",
"106 567 OFFCURVE",
"147 556 OFFCURVE",
"186 539 CURVE",
"147 522 OFFCURVE",
"106 511 OFFCURVE",
"70 490 CURVE SMOOTH",
"60 484 OFFCURVE",
"56 470 OFFCURVE",
"63 458 CURVE SMOOTH",
"70 446 OFFCURVE",
"85 441 OFFCURVE",
"95 447 CURVE SMOOTH",
"131 468 OFFCURVE",
"161 498 OFFCURVE",
"195 523 CURVE",
"190 481 OFFCURVE",
"179 440 OFFCURVE",
"179 398 CURVE SMOOTH",
"179 386 OFFCURVE",
"190 376 OFFCURVE",
"204 376 CURVE SMOOTH"
);
}
);
width = 409;
},
{
layerId = "A0D976AB-773B-4D3A-9F7E-7A0C42AF1E7B";
paths = (
{
closed = 1;
nodes = (
"222 325 OFFCURVE",
"243 345 OFFCURVE",
"243 368 CURVE SMOOTH",
"243 400 OFFCURVE",
"222 444 OFFCURVE",
"217 476 CURVE",
"242 456 OFFCURVE",
"270 416 OFFCURVE",
"297 400 CURVE SMOOTH",
"317 388 OFFCURVE",
"345 396 OFFCURVE",
"358 419 CURVE SMOOTH",
"371 442 OFFCURVE",
"364 470 OFFCURVE",
"344 481 CURVE SMOOTH",
"317 497 OFFCURVE",
"269 502 OFFCURVE",
"238 514 CURVE",
"268 526 OFFCURVE",
"317 530 OFFCURVE",
"344 546 CURVE SMOOTH",
"364 557 OFFCURVE",
"371 585 OFFCURVE",
"358 608 CURVE SMOOTH",
"345 631 OFFCURVE",
"317 639 OFFCURVE",
"297 627 CURVE SMOOTH",
"270 611 OFFCURVE",
"242 572 OFFCURVE",
"216 552 CURVE",
"221 584 OFFCURVE",
"242 628 OFFCURVE",
"242 660 CURVE SMOOTH",
"242 683 OFFCURVE",
"221 703 OFFCURVE",
"195 703 CURVE SMOOTH",
"169 703 OFFCURVE",
"148 683 OFFCURVE",
"148 660 CURVE SMOOTH",
"148 628 OFFCURVE",
"168 584 OFFCURVE",
"173 552 CURVE",
"148 572 OFFCURVE",
"120 612 OFFCURVE",
"93 628 CURVE SMOOTH",
"73 640 OFFCURVE",
"45 632 OFFCURVE",
"32 609 CURVE SMOOTH",
"19 586 OFFCURVE",
"26 558 OFFCURVE",
"46 547 CURVE SMOOTH",
"73 531 OFFCURVE",
"120 526 OFFCURVE",
"151 514 CURVE",
"121 502 OFFCURVE",
"73 498 OFFCURVE",
"46 482 CURVE SMOOTH",
"26 471 OFFCURVE",
"19 443 OFFCURVE",
"32 420 CURVE SMOOTH",
"45 397 OFFCURVE",
"73 389 OFFCURVE",
"93 401 CURVE SMOOTH",
"120 417 OFFCURVE",
"147 456 OFFCURVE",
"173 476 CURVE",
"168 444 OFFCURVE",
"149 400 OFFCURVE",
"149 368 CURVE SMOOTH",
"149 345 OFFCURVE",
"170 325 OFFCURVE",
"196 325 CURVE SMOOTH"
);
}
);
width = 390;
},
{
layerId = "3B040282-CF47-4846-BCAF-7BFF90FB63BC";
paths = (
{
closed = 1;
nodes = (
"189 404 OFFCURVE",
"197 412 OFFCURVE",
"197 421 CURVE SMOOTH",
"197 452 OFFCURVE",
"189 489 OFFCURVE",
"185 529 CURVE",
"218 505 OFFCURVE",
"247 480 OFFCURVE",
"272 464 CURVE SMOOTH",
"280 459 OFFCURVE",
"292 463 OFFCURVE",
"296 471 CURVE SMOOTH",
"302 480 OFFCURVE",
"298 491 OFFCURVE",
"290 495 CURVE SMOOTH",
"263 509 OFFCURVE",
"228 522 OFFCURVE",
"191 539 CURVE",
"228 556 OFFCURVE",
"265 567 OFFCURVE",
"290 583 CURVE SMOOTH",
"298 588 OFFCURVE",
"302 598 OFFCURVE",
"296 607 CURVE SMOOTH",
"292 615 OFFCURVE",
"280 618 OFFCURVE",
"272 614 CURVE SMOOTH",
"245 600 OFFCURVE",
"218 573 OFFCURVE",
"185 549 CURVE",
"189 589 OFFCURVE",
"197 626 OFFCURVE",
"197 657 CURVE SMOOTH",
"197 666 OFFCURVE",
"189 674 OFFCURVE",
"179 674 CURVE SMOOTH",
"169 674 OFFCURVE",
"161 666 OFFCURVE",
"161 657 CURVE SMOOTH",
"161 626 OFFCURVE",
"169 589 OFFCURVE",
"173 549 CURVE",
"140 573 OFFCURVE",
"112 598 OFFCURVE",
"86 614 CURVE SMOOTH",
"78 619 OFFCURVE",
"67 615 OFFCURVE",
"62 607 CURVE SMOOTH",
"57 598 OFFCURVE",
"61 587 OFFCURVE",
"68 583 CURVE SMOOTH",
"96 569 OFFCURVE",
"130 556 OFFCURVE",
"167 539 CURVE",
"130 522 OFFCURVE",
"94 511 OFFCURVE",
"68 495 CURVE SMOOTH",
"60 490 OFFCURVE",
"57 480 OFFCURVE",
"62 471 CURVE SMOOTH",
"67 463 OFFCURVE",
"79 460 OFFCURVE",
"86 464 CURVE SMOOTH",
"114 478 OFFCURVE",
"140 505 OFFCURVE",
"173 529 CURVE",
"169 489 OFFCURVE",
"161 452 OFFCURVE",
"161 421 CURVE SMOOTH",
"161 412 OFFCURVE",
"169 404 OFFCURVE",
"179 404 CURVE SMOOTH"
);
}
);
width = 359;
}
);
unicode = 002A;
},
{
glyphname = backslash;
lastChange = "2016-07-27 02:31:52 +0000";
layers = (
{
layerId = "35616FF6-3D9C-499B-B113-AC9E0DB5842A";
paths = (
{
closed = 1;
nodes = (
"431 -74 LINE",
"80 743 LINE",
"-5 743 LINE",
"346 -74 LINE"
);
}
);
width = 415;
},
{
layerId = "A0D976AB-773B-4D3A-9F7E-7A0C42AF1E7B";
paths = (
{
closed = 1;
nodes = (
"522 -74 LINE",
"182 743 LINE",
"-18 743 LINE",
"322 -74 LINE"
);
}
);
width = 493;
},
{
layerId = "3B040282-CF47-4846-BCAF-7BFF90FB63BC";
paths = (
{
closed = 1;
nodes = (
"385 -74 LINE",
"34 743 LINE",
"-5 743 LINE",
"346 -74 LINE"
);
}
);
width = 369;
}
);
unicode = 005C;
},
{
glyphname = colon;
lastChange = "2016-07-26 14:03:42 +0000";
layers = (
{
layerId = "35616FF6-3D9C-499B-B113-AC9E0DB5842A";
paths = (
{
closed = 1;
nodes = (
"157 403 OFFCURVE",
"181 428 OFFCURVE",
"181 458 CURVE SMOOTH",
"181 486 OFFCURVE",
"157 511 OFFCURVE",
"128 511 CURVE SMOOTH",
"97 511 OFFCURVE",
"73 486 OFFCURVE",
"73 458 CURVE SMOOTH",
"73 428 OFFCURVE",
"97 403 OFFCURVE",
"128 403 CURVE SMOOTH"
);
},
{
closed = 1;
nodes = (
"157 -12 OFFCURVE",
"181 13 OFFCURVE",
"181 43 CURVE SMOOTH",
"181 71 OFFCURVE",
"157 96 OFFCURVE",
"128 96 CURVE SMOOTH",
"97 96 OFFCURVE",
"73 71 OFFCURVE",
"73 43 CURVE SMOOTH",
"73 13 OFFCURVE",
"97 -12 OFFCURVE",
"128 -12 CURVE SMOOTH"
);
}
);
width = 253;
},
{
layerId = "A0D976AB-773B-4D3A-9F7E-7A0C42AF1E7B";
paths = (
{
closed = 1;
nodes = (
"222 313 OFFCURVE",
"273 366 OFFCURVE",
"273 431 CURVE SMOOTH",
"273 491 OFFCURVE",
"222 544 OFFCURVE",
"160 544 CURVE SMOOTH",
"93 544 OFFCURVE",
"42 491 OFFCURVE",
"42 431 CURVE SMOOTH",
"42 366 OFFCURVE",
"93 313 OFFCURVE",
"160 313 CURVE SMOOTH"
);
},
{
closed = 1;
nodes = (
"222 -12 OFFCURVE",
"273 41 OFFCURVE",
"273 106 CURVE SMOOTH",
"273 166 OFFCURVE",
"222 219 OFFCURVE",
"160 219 CURVE SMOOTH",
"93 219 OFFCURVE",
"42 166 OFFCURVE",
"42 106 CURVE SMOOTH",
"42 41 OFFCURVE",
"93 -12 OFFCURVE",
"160 -12 CURVE SMOOTH"
);
}
);
width = 314;
},
{
layerId = "3B040282-CF47-4846-BCAF-7BFF90FB63BC";
paths = (
{
closed = 1;
nodes = (
"120 437 OFFCURVE",
"133 451 OFFCURVE",
"133 468 CURVE SMOOTH",
"133 483 OFFCURVE",
"120 497 OFFCURVE",
"104 497 CURVE SMOOTH",
"86 497 OFFCURVE",
"73 483 OFFCURVE",
"73 468 CURVE SMOOTH",
"73 451 OFFCURVE",
"86 437 OFFCURVE",
"104 437 CURVE SMOOTH"
);
},
{
closed = 1;
nodes = (
"120 -12 OFFCURVE",
"133 2 OFFCURVE",
"133 19 CURVE SMOOTH",
"133 34 OFFCURVE",
"120 48 OFFCURVE",
"104 48 CURVE SMOOTH",
"86 48 OFFCURVE",
"73 34 OFFCURVE",
"73 19 CURVE SMOOTH",
"73 2 OFFCURVE",
"86 -12 OFFCURVE",
"104 -12 CURVE SMOOTH"
);
}
);
width = 205;
}
);
unicode = 003A;
},
{
glyphname = comma;
lastChange = "2016-07-27 01:49:15 +0000";
layers = (
{
layerId = "35616FF6-3D9C-499B-B113-AC9E0DB5842A";
paths = (
{
closed = 1;
nodes = (
"160 -99 OFFCURVE",
"193 -49 OFFCURVE",
"193 11 CURVE SMOOTH",
"193 64 OFFCURVE",
"168 96 OFFCURVE",
"133 96 CURVE SMOOTH",
"103 96 OFFCURVE",
"77 71 OFFCURVE",
"77 42 CURVE SMOOTH",
"77 12 OFFCURVE",
"100 -1 OFFCURVE",
"116 -15 CURVE SMOOTH",
"125 -22 OFFCURVE",
"129 -31 OFFCURVE",
"129 -40 CURVE SMOOTH",
"129 -60 OFFCURVE",
"110 -83 OFFCURVE",
"72 -102 CURVE",
"97 -135 LINE"
);
}
);
width = 264;
},
{
layerId = "A0D976AB-773B-4D3A-9F7E-7A0C42AF1E7B";
paths = (
{
closed = 1;
nodes = (
"205 -128 OFFCURVE",
"273 -32 OFFCURVE",
"273 75 CURVE SMOOTH",
"273 165 OFFCURVE",
"225 219 OFFCURVE",
"155 219 CURVE SMOOTH",
"94 219 OFFCURVE",
"42 166 OFFCURVE",
"42 102 CURVE SMOOTH",
"42 52 OFFCURVE",
"69 27 OFFCURVE",
"108 1 CURVE SMOOTH",
"122 -8 OFFCURVE",
"131 -17 OFFCURVE",
"131 -32 CURVE SMOOTH",
"131 -56 OFFCURVE",
"105 -81 OFFCURVE",
"63 -90 CURVE",
"108 -156 LINE"
);
}
);
width = 312;
},
{
layerId = "3B040282-CF47-4846-BCAF-7BFF90FB63BC";
paths = (
{
closed = 1;
nodes = (
"139 -102 OFFCURVE",
"170 -61 OFFCURVE",
"170 -14 CURVE SMOOTH",
"170 17 OFFCURVE",
"156 48 OFFCURVE",
"130 48 CURVE SMOOTH",
"112 48 OFFCURVE",
"100 34 OFFCURVE",
"100 20 CURVE SMOOTH",
"100 7 OFFCURVE",
"110 -3 OFFCURVE",
"118 -12 CURVE SMOOTH",
"125 -20 OFFCURVE",
"128 -28 OFFCURVE",
"128 -36 CURVE SMOOTH",
"128 -58 OFFCURVE",
"104 -81 OFFCURVE",
"72 -104 CURVE",
"94 -133 LINE"
);
}
);
width = 241;
}
);
unicode = 002C;
},
{
glyphname = exclam;
lastChange = "2016-07-26 14:02:28 +0000";
layers = (
{
components = (
{
name = period;
transform = "{1, 0, 0, 1, 7, 0}";
}
);
layerId = "A0D976AB-773B-4D3A-9F7E-7A0C42AF1E7B";
paths = (
{
closed = 1;
nodes = (
"232 274 LINE",
"274 687 LINE",
"59 687 LINE",
"102 274 LINE"
);
}
);
width = 329;
},
{
components = (
{
name = period;
transform = "{1, 0, 0, 1, 10, 0}";
}
);
layerId = "35616FF6-3D9C-499B-B113-AC9E0DB5842A";
paths = (
{
closed = 1;
nodes = (
"165 193 LINE",
"185 687 LINE",
"93 687 LINE",
"112 193 LINE"
);
}
);
width = 273;
},
{
components = (
{
name = period;
transform = "{1, 0, 0, 1, 10, 0}";
}
);
layerId = "3B040282-CF47-4846-BCAF-7BFF90FB63BC";
paths = (
{
closed = 1;
nodes = (
"131 193 LINE",
"131 687 LINE",
"95 687 LINE",
"95 193 LINE"
);
}
);
width = 225;
}
);
unicode = 0021;
},
{
glyphname = numbersign;
lastChange = "2016-07-27 01:12:31 +0000";
layers = (
{
layerId = "35616FF6-3D9C-499B-B113-AC9E0DB5842A";
paths = (
{
closed = 1;
nodes = (
"173 0 LINE",
"346 687 LINE",
"280 687 LINE",
"107 0 LINE"
);
},
{
closed = 1;
nodes = (
"389 0 LINE",
"562 687 LINE",
"496 687 LINE",
"323 0 LINE"
);
},
{
closed = 1;
nodes = (
"552 179 LINE",
"567 240 LINE",
"54 240 LINE",
"39 179 LINE"
);
},
{
closed = 1;
nodes = (
"619 446 LINE",
"634 507 LINE",
"120 507 LINE",
"105 446 LINE"
);
}
);
width = 674;
},
{
layerId = "A0D976AB-773B-4D3A-9F7E-7A0C42AF1E7B";
paths = (
{
closed = 1;
nodes = (
"205 0 LINE",
"378 687 LINE",
"243 687 LINE",
"70 0 LINE"
);
},
{
closed = 1;
nodes = (
"432 0 LINE",
"605 687 LINE",
"470 687 LINE",
"297 0 LINE"
);
},
{
closed = 1;
nodes = (
"553 147 LINE",
"586 281 LINE",
"59 281 LINE",
"26 147 LINE"
);
},
{
closed = 1;
nodes = (
"617 404 LINE",
"650 538 LINE",
"120 538 LINE",
"87 404 LINE"
);
}
);
width = 676;
},
{
layerId = "3B040282-CF47-4846-BCAF-7BFF90FB63BC";
paths = (
{
closed = 1;
nodes = (
"156 0 LINE",
"329 687 LINE",
"292 687 LINE",
"119 0 LINE"
);
},
{
closed = 1;
nodes = (
"372 0 LINE",
"545 687 LINE",
"508 687 LINE",
"335 0 LINE"
);
},
{
closed = 1;
nodes = (
"552 192 LINE",
"561 228 LINE",
"48 228 LINE",
"39 192 LINE"
);
},
{
closed = 1;
nodes = (
"619 459 LINE",
"628 495 LINE",
"114 495 LINE",
"105 459 LINE"
);
}
);
width = 668;
}
);
unicode = 0023;
},
{
glyphname = period;
lastChange = "2016-07-26 14:00:50 +0000";
layers = (
{
layerId = "35616FF6-3D9C-499B-B113-AC9E0DB5842A";
paths = (
{
closed = 1;
nodes = (
"157 -12 OFFCURVE",
"181 13 OFFCURVE",
"181 43 CURVE SMOOTH",
"181 71 OFFCURVE",
"157 96 OFFCURVE",
"128 96 CURVE SMOOTH",
"97 96 OFFCURVE",
"73 71 OFFCURVE",
"73 43 CURVE SMOOTH",
"73 13 OFFCURVE",
"97 -12 OFFCURVE",
"128 -12 CURVE SMOOTH"
);
}
);
width = 253;
},
{
layerId = "A0D976AB-773B-4D3A-9F7E-7A0C42AF1E7B";
paths = (
{
closed = 1;
nodes = (
"222 -12 OFFCURVE",
"273 41 OFFCURVE",
"273 106 CURVE SMOOTH",
"273 166 OFFCURVE",
"222 219 OFFCURVE",
"160 219 CURVE SMOOTH",
"93 219 OFFCURVE",
"42 166 OFFCURVE",
"42 106 CURVE SMOOTH",
"42 41 OFFCURVE",
"93 -12 OFFCURVE",
"160 -12 CURVE SMOOTH"
);
}
);
width = 314;
},
{
layerId = "3B040282-CF47-4846-BCAF-7BFF90FB63BC";
paths = (
{
closed = 1;
nodes = (
"120 -12 OFFCURVE",
"133 2 OFFCURVE",
"133 19 CURVE SMOOTH",
"133 34 OFFCURVE",
"120 48 OFFCURVE",
"104 48 CURVE SMOOTH",
"86 48 OFFCURVE",
"73 34 OFFCURVE",
"73 19 CURVE SMOOTH",
"73 2 OFFCURVE",
"86 -12 OFFCURVE",
"104 -12 CURVE SMOOTH"
);
}
);
width = 205;
}
);
unicode = 002E;
},
{
glyphname = question;
lastChange = "2016-07-27 02:09:06 +0000";
layers = (
{
components = (
{
name = period;
transform = "{1, 0, 0, 1, 81, 0}";
}
);
layerId = "A0D976AB-773B-4D3A-9F7E-7A0C42AF1E7B";
paths = (
{
closed = 1;
nodes = (
"323 264 LINE",
"323 300 LINE",
"417 323 OFFCURVE",
"484 403 OFFCURVE",
"484 494 CURVE SMOOTH",
"484 614 OFFCURVE",
"387 699 OFFCURVE",
"249 699 CURVE SMOOTH",
"152 699 OFFCURVE",
"68 658 OFFCURVE",
"8 596 CURVE",
"114 487 LINE",
"139 510 OFFCURVE",
"179 526 OFFCURVE",
"211 526 CURVE SMOOTH",
"256 526 OFFCURVE",
"288 505 OFFCURVE",
"288 475 CURVE SMOOTH",
"288 439 OFFCURVE",
"235 414 OFFCURVE",
"159 414 CURVE",
"159 264 LINE"
);
}
);
width = 503;
},
{
components = (
{
name = period;
transform = "{1, 0, 0, 1, 96, 0}";
}
);
layerId = "35616FF6-3D9C-499B-B113-AC9E0DB5842A";
paths = (
{
closed = 1;
nodes = (
"263 193 LINE",
"263 321 LINE",
"380 346 OFFCURVE",
"463 427 OFFCURVE",
"463 516 CURVE SMOOTH",
"463 618 OFFCURVE",
"380 699 OFFCURVE",
"253 699 CURVE SMOOTH",
"152 699 OFFCURVE",
"80 650 OFFCURVE",
"27 584 CURVE",
"78 533 LINE",
"122 587 OFFCURVE",
"174 628 OFFCURVE",
"249 628 CURVE SMOOTH",
"333 628 OFFCURVE",
"384 570 OFFCURVE",
"384 509 CURVE SMOOTH",
"384 444 OFFCURVE",
"301 390 OFFCURVE",
"184 380 CURVE",
"184 193 LINE"
);
}
);
width = 507;
},
{
components = (
{
name = period;
transform = "{1, 0, 0, 1, 121, 0}";
}
);
layerId = "3B040282-CF47-4846-BCAF-7BFF90FB63BC";
paths = (
{
closed = 1;
nodes = (
"242 193 LINE",
"242 326 LINE",
"359 346 OFFCURVE",
"442 423 OFFCURVE",
"442 514 CURVE SMOOTH",
"442 614 OFFCURVE",
"355 699 OFFCURVE",
"252 699 CURVE SMOOTH",
"163 699 OFFCURVE",
"89 661 OFFCURVE",
"27 584 CURVE",
"53 559 LINE",
"103 629 OFFCURVE",
"168 663 OFFCURVE",
"250 663 CURVE SMOOTH",
"335 663 OFFCURVE",
"406 594 OFFCURVE",
"406 511 CURVE SMOOTH",
"406 430 OFFCURVE",
"323 365 OFFCURVE",
"206 356 CURVE",
"206 193 LINE"
);
}
);
width = 486;
}
);
unicode = 003F;
},
{
glyphname = quotesingle;
lastChange = "2016-07-27 01:58:55 +0000";
layers = (
{
layerId = "35616FF6-3D9C-499B-B113-AC9E0DB5842A";
paths = (
{
closed = 1;
nodes = (
"139 429 LINE",
"147 487 OFFCURVE",
"163 579 OFFCURVE",
"163 629 CURVE SMOOTH",
"163 654 OFFCURVE",
"142 675 OFFCURVE",
"117 675 CURVE SMOOTH",
"92 675 OFFCURVE",
"71 654 OFFCURVE",
"71 629 CURVE SMOOTH",
"71 579 OFFCURVE",
"87 487 OFFCURVE",
"95 429 CURVE"
);
}
);
width = 234;
},
{
layerId = "A0D976AB-773B-4D3A-9F7E-7A0C42AF1E7B";
paths = (
{
closed = 1;
nodes = (
"186 370 LINE",
"217 455 OFFCURVE",
"248 547 OFFCURVE",
"248 606 CURVE SMOOTH",
"248 660 OFFCURVE",
"204 705 OFFCURVE",
"152 705 CURVE SMOOTH",
"100 705 OFFCURVE",
"56 660 OFFCURVE",
"56 606 CURVE SMOOTH",
"56 547 OFFCURVE",
"87 455 OFFCURVE",
"118 370 CURVE"
);
}
);
width = 304;
},
{
layerId = "3B040282-CF47-4846-BCAF-7BFF90FB63BC";
paths = (
{
closed = 1;
nodes = (
"115 456 LINE",
"121 514 OFFCURVE",
"131 584 OFFCURVE",
"131 616 CURVE SMOOTH",
"131 633 OFFCURVE",
"117 646 OFFCURVE",
"101 646 CURVE SMOOTH",
"85 646 OFFCURVE",
"71 633 OFFCURVE",
"71 616 CURVE SMOOTH",
"71 584 OFFCURVE",
"81 514 OFFCURVE",
"87 456 CURVE"
);
}
);
width = 202;
}
);
unicode = 0027;
},
{
glyphname = slash;
lastChange = "2016-07-27 02:32:11 +0000";
layers = (
{
layerId = "35616FF6-3D9C-499B-B113-AC9E0DB5842A";
paths = (
{
closed = 1;
nodes = (
"69 -74 LINE",
"420 743 LINE",
"335 743 LINE",
"-16 -74 LINE"
);
}
);
width = 415;
},
{
layerId = "A0D976AB-773B-4D3A-9F7E-7A0C42AF1E7B";
paths = (
{
closed = 1;
nodes = (
"171 -74 LINE",
"511 743 LINE",
"311 743 LINE",
"-29 -74 LINE"
);
}
);
width = 493;
},
{
layerId = "3B040282-CF47-4846-BCAF-7BFF90FB63BC";
paths = (
{
closed = 1;
nodes = (
"23 -74 LINE",
"374 743 LINE",
"335 743 LINE",
"-16 -74 LINE"
);
}
);
width = 369;
}
);
unicode = 002F;
},
{
glyphname = underscore;
lastChange = "2016-07-27 01:15:17 +0000";
layers = (
{
layerId = "35616FF6-3D9C-499B-B113-AC9E0DB5842A";
paths = (
{
closed = 1;
nodes = (
"594 -142 LINE",
"594 -75 LINE",
"-2 -75 LINE",
"-2 -142 LINE"
);
}
);
width = 592;
},
{
layerId = "A0D976AB-773B-4D3A-9F7E-7A0C42AF1E7B";
paths = (
{
closed = 1;
nodes = (
"594 -159 LINE",
"594 -61 LINE",
"-2 -61 LINE",
"-2 -159 LINE"
);
}
);
width = 592;
},
{
layerId = "3B040282-CF47-4846-BCAF-7BFF90FB63BC";
paths = (
{
closed = 1;
nodes = (
"594 -127 LINE",
"594 -91 LINE",
"-2 -91 LINE",
"-2 -127 LINE"
);
}
);
width = 592;
}
);
unicode = 005F;
},
{
glyphname = braceleft;
lastChange = "2016-07-27 02:04:56 +0000";
layers = (
{
layerId = "35616FF6-3D9C-499B-B113-AC9E0DB5842A";
paths = (
{
closed = 1;
nodes = (
"348 -113 LINE",
"231 -95 OFFCURVE",
"206 -73 OFFCURVE",
"206 8 CURVE",
"207 151 LINE",
"207 214 OFFCURVE",
"182 248 OFFCURVE",
"132 266 CURVE",
"181 283 OFFCURVE",
"207 317 OFFCURVE",
"207 380 CURVE",
"206 524 LINE",
"206 603 OFFCURVE",
"229 626 OFFCURVE",
"348 644 CURVE",
"342 697 LINE",
"188 680 OFFCURVE",
"141 632 OFFCURVE",
"141 528 CURVE",
"141 388 LINE",
"141 322 OFFCURVE",
"115 293 OFFCURVE",
"43 293 CURVE",
"43 238 LINE",
"114 238 OFFCURVE",
"141 211 OFFCURVE",
"141 144 CURVE",
"141 3 LINE",
"141 -100 OFFCURVE",
"187 -149 OFFCURVE",
"342 -166 CURVE"
);
}
);
width = 394;
},
{
layerId = "A0D976AB-773B-4D3A-9F7E-7A0C42AF1E7B";
paths = (
{
closed = 1;
nodes = (
"387 -53 LINE",
"288 -41 OFFCURVE",
"265 -25 OFFCURVE",
"265 39 CURVE",
"266 153 LINE",
"266 211 OFFCURVE",
"240 249 OFFCURVE",
"187 266 CURVE",
"240 283 OFFCURVE",
"266 321 OFFCURVE",
"266 378 CURVE",
"265 493 LINE",
"265 556 OFFCURVE",
"286 572 OFFCURVE",
"387 584 CURVE",
"372 697 LINE",
"191 685 OFFCURVE",
"118 629 OFFCURVE",
"118 508 CURVE",
"120 402 LINE",
"120 345 OFFCURVE",
"94 321 OFFCURVE",
"26 321 CURVE",
"26 211 LINE",
"92 211 OFFCURVE",
"120 187 OFFCURVE",
"120 130 CURVE",
"118 23 LINE",
"118 -97 OFFCURVE",
"190 -154 OFFCURVE",
"372 -166 CURVE"
);
}
);
width = 415;
},
{
layerId = "3B040282-CF47-4846-BCAF-7BFF90FB63BC";
paths = (
{
closed = 1;
nodes = (
"346 -131 LINE",
"235 -119 OFFCURVE",
"191 -79 OFFCURVE",
"191 8 CURVE",
"192 151 LINE",
"192 218 OFFCURVE",
"172 251 OFFCURVE",
"122 266 CURVE",
"172 280 OFFCURVE",
"192 313 OFFCURVE",
"192 380 CURVE",
"191 524 LINE",
"191 610 OFFCURVE",
"235 650 OFFCURVE",
"346 662 CURVE",
"342 697 LINE",
"209 682 OFFCURVE",
"156 634 OFFCURVE",
"156 528 CURVE",
"156 388 LINE",
"156 314 OFFCURVE",
"124 284 OFFCURVE",
"43 284 CURVE",
"43 248 LINE",
"124 248 OFFCURVE",
"156 218 OFFCURVE",
"156 144 CURVE",
"156 3 LINE",
"156 -103 OFFCURVE",
"209 -151 OFFCURVE",
"342 -166 CURVE"
);
}
);
width = 392;
}
);
unicode = 007B;
},
{
glyphname = braceright;
lastChange = "2016-07-27 02:05:18 +0000";
layers = (
{
layerId = "35616FF6-3D9C-499B-B113-AC9E0DB5842A";
paths = (
{
closed = 1;
nodes = (
"207 -149 OFFCURVE",
"253 -100 OFFCURVE",
"253 3 CURVE",
"253 144 LINE",
"253 211 OFFCURVE",
"280 238 OFFCURVE",
"351 238 CURVE",
"351 293 LINE",
"279 293 OFFCURVE",
"253 322 OFFCURVE",
"253 388 CURVE",
"253 528 LINE",
"253 632 OFFCURVE",
"206 680 OFFCURVE",
"52 697 CURVE",
"46 644 LINE",
"165 626 OFFCURVE",
"188 603 OFFCURVE",
"188 524 CURVE",
"187 380 LINE",
"187 317 OFFCURVE",
"213 283 OFFCURVE",
"262 266 CURVE",
"212 248 OFFCURVE",
"187 214 OFFCURVE",
"187 151 CURVE",
"188 8 LINE",
"188 -73 OFFCURVE",
"163 -95 OFFCURVE",
"46 -113 CURVE",
"52 -166 LINE"
);
}
);
width = 394;
},
{
layerId = "A0D976AB-773B-4D3A-9F7E-7A0C42AF1E7B";
paths = (
{
closed = 1;
nodes = (
"225 -154 OFFCURVE",
"297 -97 OFFCURVE",
"297 23 CURVE",
"295 130 LINE",
"295 187 OFFCURVE",
"323 211 OFFCURVE",
"389 211 CURVE",
"389 321 LINE",
"321 321 OFFCURVE",
"295 345 OFFCURVE",
"295 402 CURVE",
"297 508 LINE",
"297 629 OFFCURVE",
"224 685 OFFCURVE",
"43 697 CURVE",
"28 584 LINE",
"129 572 OFFCURVE",
"150 556 OFFCURVE",
"150 493 CURVE",
"149 378 LINE",
"149 321 OFFCURVE",
"175 283 OFFCURVE",
"228 266 CURVE",
"175 249 OFFCURVE",
"149 211 OFFCURVE",
"149 153 CURVE",
"150 39 LINE",
"150 -25 OFFCURVE",
"127 -41 OFFCURVE",
"28 -53 CURVE",
"43 -166 LINE"
);
}
);
width = 415;
},
{
layerId = "3B040282-CF47-4846-BCAF-7BFF90FB63BC";
paths = (
{
closed = 1;
nodes = (
"183 -151 OFFCURVE",
"236 -103 OFFCURVE",
"236 3 CURVE",
"236 144 LINE",
"236 218 OFFCURVE",
"268 248 OFFCURVE",
"349 248 CURVE",
"349 284 LINE",
"268 284 OFFCURVE",
"236 314 OFFCURVE",
"236 388 CURVE",
"236 528 LINE",
"236 634 OFFCURVE",
"183 682 OFFCURVE",
"50 697 CURVE",
"46 662 LINE",
"157 650 OFFCURVE",
"201 610 OFFCURVE",
"201 524 CURVE",
"200 380 LINE",
"200 313 OFFCURVE",
"220 280 OFFCURVE",
"270 266 CURVE",
"220 251 OFFCURVE",
"200 218 OFFCURVE",
"200 151 CURVE",
"201 8 LINE",
"201 -79 OFFCURVE",
"157 -119 OFFCURVE",
"46 -131 CURVE",
"50 -166 LINE"
);
}
);
width = 392;
}
);
unicode = 007D;
},
{
glyphname = bracketleft;
lastChange = "2016-07-27 01:14:09 +0000";
layers = (
{
layerId = "35616FF6-3D9C-499B-B113-AC9E0DB5842A";
paths = (
{
closed = 1;
nodes = (
"317 -115 LINE",
"317 -58 LINE",
"147 -58 LINE",
"147 677 LINE",
"317 677 LINE",
"317 734 LINE",
"81 734 LINE",
"81 -115 LINE"
);
}
);
width = 366;
},
{
layerId = "A0D976AB-773B-4D3A-9F7E-7A0C42AF1E7B";
paths = (
{
closed = 1;
nodes = (
"359 -160 LINE",
"359 -39 LINE",
"211 -39 LINE",
"211 568 LINE",
"359 568 LINE",
"359 689 LINE",
"64 689 LINE",
"64 -160 LINE"
);
}
);
width = 398;
},
{
layerId = "3B040282-CF47-4846-BCAF-7BFF90FB63BC";
paths = (
{
closed = 1;
nodes = (
"302 -115 LINE",
"302 -79 LINE",
"117 -79 LINE",
"117 698 LINE",
"302 698 LINE",
"302 734 LINE",
"81 734 LINE",
"81 -115 LINE"
);
}
);
width = 351;
}
);
unicode = 005B;
},
{
glyphname = bracketright;
lastChange = "2016-07-27 01:14:45 +0000";
layers = (
{
layerId = "35616FF6-3D9C-499B-B113-AC9E0DB5842A";
paths = (
{
closed = 1;
nodes = (
"285 -115 LINE",
"285 734 LINE",
"49 734 LINE",
"49 677 LINE",
"219 677 LINE",
"219 -58 LINE",
"49 -58 LINE",
"49 -115 LINE"
);
}
);
width = 366;
},
{
layerId = "A0D976AB-773B-4D3A-9F7E-7A0C42AF1E7B";
paths = (
{
closed = 1;
nodes = (
"334 -160 LINE",
"334 689 LINE",
"39 689 LINE",
"39 568 LINE",
"187 568 LINE",
"187 -39 LINE",
"39 -39 LINE",
"39 -160 LINE"
);
}
);
width = 398;
},
{
layerId = "3B040282-CF47-4846-BCAF-7BFF90FB63BC";
paths = (
{
closed = 1;
nodes = (
"270 -115 LINE",
"270 734 LINE",
"49 734 LINE",
"49 698 LINE",
"234 698 LINE",
"234 -79 LINE",
"49 -79 LINE",
"49 -115 LINE"
);
}
);
width = 351;
}
);
unicode = 005D;
},
{
glyphname = parenleft;
lastChange = "2016-07-27 01:19:56 +0000";
layers = (
{
layerId = "35616FF6-3D9C-499B-B113-AC9E0DB5842A";
paths = (
{
closed = 1;
nodes = (
"311 -127 LINE",
"202 -16 OFFCURVE",
"142 102 OFFCURVE",
"142 265 CURVE SMOOTH",
"142 429 OFFCURVE",
"202 546 OFFCURVE",
"311 658 CURVE",
"271 700 LINE",
"137 588 OFFCURVE",
"62 438 OFFCURVE",
"62 265 CURVE SMOOTH",
"62 93 OFFCURVE",
"137 -58 OFFCURVE",
"271 -170 CURVE"
);
}
);
width = 357;
},
{
layerId = "A0D976AB-773B-4D3A-9F7E-7A0C42AF1E7B";
paths = (
{
closed = 1;
nodes = (
"374 -67 LINE",
"274 36 OFFCURVE",
"232 133 OFFCURVE",
"232 265 CURVE SMOOTH",
"232 398 OFFCURVE",
"274 495 OFFCURVE",
"374 598 CURVE",
"277 700 LINE",
"131 604 OFFCURVE",
"43 447 OFFCURVE",
"43 265 CURVE SMOOTH",
"43 84 OFFCURVE",
"131 -74 OFFCURVE",
"277 -170 CURVE"
);
}
);
width = 401;
},
{
layerId = "3B040282-CF47-4846-BCAF-7BFF90FB63BC";
paths = (
{
closed = 1;
nodes = (
"284 -143 LINE",
"167 -24 OFFCURVE",
"98 128 OFFCURVE",
"98 265 CURVE SMOOTH",
"98 402 OFFCURVE",
"167 554 OFFCURVE",
"284 674 CURVE",
"259 700 LINE",
"135 572 OFFCURVE",
"62 410 OFFCURVE",
"62 265 CURVE SMOOTH",
"62 118 OFFCURVE",
"135 -44 OFFCURVE",
"259 -170 CURVE"
);
}
);
width = 330;
}
);
unicode = 0028;
},
{
glyphname = parenright;
lastChange = "2016-07-27 01:20:29 +0000";
layers = (
{
layerId = "35616FF6-3D9C-499B-B113-AC9E0DB5842A";
paths = (
{
closed = 1;
nodes = (
"220 -58 OFFCURVE",
"295 93 OFFCURVE",
"295 265 CURVE SMOOTH",
"295 438 OFFCURVE",
"220 588 OFFCURVE",
"86 700 CURVE",
"46 658 LINE",
"155 546 OFFCURVE",
"215 429 OFFCURVE",
"215 265 CURVE SMOOTH",
"215 102 OFFCURVE",
"155 -16 OFFCURVE",
"46 -127 CURVE",
"86 -170 LINE"
);
}
);
width = 357;
},
{
layerId = "A0D976AB-773B-4D3A-9F7E-7A0C42AF1E7B";
paths = (
{
closed = 1;
nodes = (
"270 -74 OFFCURVE",
"358 84 OFFCURVE",
"358 265 CURVE SMOOTH",
"358 447 OFFCURVE",
"270 604 OFFCURVE",
"124 700 CURVE",
"27 598 LINE",
"127 495 OFFCURVE",
"169 398 OFFCURVE",
"169 265 CURVE SMOOTH",
"169 133 OFFCURVE",
"127 36 OFFCURVE",
"27 -67 CURVE",
"124 -170 LINE"
);
}
);
width = 401;
},
{
layerId = "3B040282-CF47-4846-BCAF-7BFF90FB63BC";
paths = (
{
closed = 1;
nodes = (
"195 -44 OFFCURVE",
"268 118 OFFCURVE",
"268 265 CURVE SMOOTH",
"268 410 OFFCURVE",
"195 572 OFFCURVE",
"71 700 CURVE",
"46 674 LINE",
"163 554 OFFCURVE",
"232 402 OFFCURVE",
"232 265 CURVE SMOOTH",
"232 128 OFFCURVE",
"163 -24 OFFCURVE",
"46 -143 CURVE",
"71 -170 LINE"
);
}
);
width = 330;
}
);
unicode = 0029;
},
{
glyphname = emdash;
lastChange = "2016-07-27 01:13:07 +0000";
layers = (
{
layerId = "35616FF6-3D9C-499B-B113-AC9E0DB5842A";
paths = (
{
closed = 1;
nodes = (
"826 236 LINE",
"826 307 LINE",
"56 307 LINE",
"56 236 LINE"
);
}
);
width = 882;
},
{
layerId = "A0D976AB-773B-4D3A-9F7E-7A0C42AF1E7B";
paths = (
{
closed = 1;
nodes = (
"834 200 LINE",
"834 356 LINE",
"38 356 LINE",
"38 200 LINE"
);
}
);
width = 872;
},
{
layerId = "3B040282-CF47-4846-BCAF-7BFF90FB63BC";
paths = (
{
closed = 1;
nodes = (
"826 254 LINE",
"826 290 LINE",
"56 290 LINE",
"56 254 LINE"
);
}
);
width = 882;
}
);
unicode = 2014;
},
{
glyphname = endash;
lastChange = "2016-07-27 01:13:20 +0000";
layers = (
{
layerId = "35616FF6-3D9C-499B-B113-AC9E0DB5842A";
paths = (
{
closed = 1;
nodes = (
"521 236 LINE",
"521 307 LINE",
"56 307 LINE",
"56 236 LINE"
);
}
);
width = 577;
},
{
layerId = "A0D976AB-773B-4D3A-9F7E-7A0C42AF1E7B";
paths = (
{
closed = 1;
nodes = (
"529 200 LINE",
"529 356 LINE",
"38 356 LINE",
"38 200 LINE"
);
}
);
width = 567;
},
{
layerId = "3B040282-CF47-4846-BCAF-7BFF90FB63BC";
paths = (
{
closed = 1;
nodes = (
"521 254 LINE",
"521 290 LINE",
"56 290 LINE",
"56 254 LINE"
);
}
);
width = 577;
}
);
unicode = 2013;
},
{
glyphname = hyphen;
lastChange = "2016-07-27 01:13:35 +0000";
layers = (
{
layerId = "35616FF6-3D9C-499B-B113-AC9E0DB5842A";
paths = (
{
closed = 1;
nodes = (
"315 235 LINE",
"315 308 LINE",
"56 308 LINE",
"56 235 LINE"
);
}
);
width = 371;
},
{
layerId = "A0D976AB-773B-4D3A-9F7E-7A0C42AF1E7B";
paths = (
{
closed = 1;
nodes = (
"322 199 LINE",
"322 357 LINE",
"38 357 LINE",
"38 199 LINE"
);
}
);
width = 360;
},
{
layerId = "3B040282-CF47-4846-BCAF-7BFF90FB63BC";
paths = (
{
closed = 1;
nodes = (
"315 254 LINE",
"315 290 LINE",
"56 290 LINE",
"56 254 LINE"
);
}
);
width = 371;
}
);
unicode = 002D;
},
{
glyphname = cent;
lastChange = "2016-07-26 14:29:43 +0000";
layers = (
{
components = (
{
name = c;
}
);
layerId = "35616FF6-3D9C-499B-B113-AC9E0DB5842A";
paths = (
{
closed = 1;
nodes = (
"342 -74 LINE",
"342 589 LINE",
"264 589 LINE",
"264 -74 LINE"
);
}
);
width = 542;
},
{
components = (
{
name = c;
}
);
layerId = "A0D976AB-773B-4D3A-9F7E-7A0C42AF1E7B";
paths = (
{
closed = 1;
nodes = (
"363 -74 LINE",
"363 589 LINE",
"253 589 LINE",
"253 -74 LINE"
);
}
);
width = 552;
},
{
components = (
{
name = c;
}
);
layerId = "3B040282-CF47-4846-BCAF-7BFF90FB63BC";
paths = (
{
closed = 1;
nodes = (
"310 -74 LINE",
"310 589 LINE",
"274 589 LINE",
"274 -74 LINE"
);
}
);
width = 522;
},
{
associatedMasterId = "35616FF6-3D9C-499B-B113-AC9E0DB5842A";
components = (
{
name = c;
}
);
layerId = "42F9E5D8-FD84-4BAD-9A2A-5A287C7E6347";
name = "Regular[700]";
paths = (
{
closed = 1;
nodes = (
"342 -74 LINE",
"342 13 LINE",
"264 13 LINE",
"264 -74 LINE"
);
},
{
closed = 1;
nodes = (
"342 504 LINE",
"342 589 LINE",
"264 589 LINE",
"264 504 LINE"
);
}
);
width = 542;
},
{
associatedMasterId = "A0D976AB-773B-4D3A-9F7E-7A0C42AF1E7B";
components = (
{
name = c;
}
);
layerId = "187ADCAF-C1B8-479C-884A-98D244F66B65";
name = "Bold[700]";
paths = (
{
closed = 1;
nodes = (
"363 -74 LINE",
"363 43 LINE",
"253 43 LINE",
"253 -74 LINE"
);
},
{
closed = 1;
nodes = (
"363 473 LINE",
"363 589 LINE",
"253 589 LINE",
"253 473 LINE"
);
}
);
width = 552;
}
);
unicode = 00A2;
},
{
glyphname = dollar;
lastChange = "2016-07-26 14:27:51 +0000";
layers = (
{
components = (
{
name = S;
}
);
layerId = "35616FF6-3D9C-499B-B113-AC9E0DB5842A";
paths = (
{
closed = 1;
nodes = (
"342 -74 LINE",
"342 759 LINE",
"264 759 LINE",
"264 -74 LINE"
);
}
);
width = 613;
},
{
components = (
{
name = S;
}
);
layerId = "A0D976AB-773B-4D3A-9F7E-7A0C42AF1E7B";
paths = (
{
closed = 1;
nodes = (
"374 -74 LINE",
"374 759 LINE",
"264 759 LINE",
"264 -74 LINE"
);
}
);
width = 646;
},
{
components = (
{
name = S;
}
);
layerId = "3B040282-CF47-4846-BCAF-7BFF90FB63BC";
paths = (
{
closed = 1;
nodes = (
"321 -74 LINE",
"321 759 LINE",
"285 759 LINE",
"285 -74 LINE"
);
}
);
width = 603;
},
{
associatedMasterId = "35616FF6-3D9C-499B-B113-AC9E0DB5842A";
components = (
{
name = S;
}
);
layerId = "FE071C41-AE8E-426A-8D13-A9F7AE3CC754";
name = "Regular[700]";
paths = (
{
closed = 1;
nodes = (
"342 -74 LINE",
"342 13 LINE",
"264 13 LINE",
"264 -74 LINE"
);
},
{
closed = 1;
nodes = (
"342 674 LINE",
"342 759 LINE",
"264 759 LINE",
"264 674 LINE"
);
}
);
width = 613;
},
{
associatedMasterId = "A0D976AB-773B-4D3A-9F7E-7A0C42AF1E7B";
components = (
{
name = S;
}
);
layerId = "DB5FC6F9-C107-4976-9A15-609529B32215";
name = "Bold[700]";
paths = (
{
closed = 1;
nodes = (
"374 -74 LINE",
"374 43 LINE",
"264 43 LINE",
"264 -74 LINE"
);
},
{
closed = 1;
nodes = (
"374 643 LINE",
"374 759 LINE",
"264 759 LINE",
"264 643 LINE"
);
}
);
width = 646;
}
);
unicode = 0024;
},
{
glyphname = euro;
lastChange = "2016-07-26 11:49:25 +0000";
layers = (
{
components = (
{
name = C;
}
);
layerId = "35616FF6-3D9C-499B-B113-AC9E0DB5842A";
paths = (
{
closed = 1;
nodes = (
"472 236 LINE",
"472 303 LINE",
"-24 303 LINE",
"-24 236 LINE"
);
},
{
closed = 1;
nodes = (
"472 403 LINE",
"472 470 LINE",
"-24 470 LINE",
"-24 403 LINE"
);
}
);
width = 680;
},
{
components = (
{
name = C;
}
);
layerId = "A0D976AB-773B-4D3A-9F7E-7A0C42AF1E7B";
paths = (
{
closed = 1;
nodes = (
"455 247 LINE",
"455 324 LINE",
"-11 324 LINE",
"-11 247 LINE"
);
},
{
closed = 1;
nodes = (
"455 372 LINE",
"455 449 LINE",
"-11 449 LINE",
"-11 372 LINE"
);
}
);
width = 706;
},
{
components = (
{
name = C;
}
);
layerId = "3B040282-CF47-4846-BCAF-7BFF90FB63BC";
paths = (
{
closed = 1;
nodes = (
"472 252 LINE",
"472 288 LINE",
"-24 288 LINE",
"-24 252 LINE"
);
},
{
closed = 1;
nodes = (
"472 419 LINE",
"472 455 LINE",
"-24 455 LINE",
"-24 419 LINE"
);
}
);
width = 680;
}
);
unicode = 20AC;
},
{
glyphname = sterling;
lastChange = "2016-07-26 11:59:53 +0000";
layers = (
{
layerId = "35616FF6-3D9C-499B-B113-AC9E0DB5842A";
paths = (
{
closed = 1;
nodes = (
"573 0 LINE",
"573 74 LINE",
"175 74 LINE",
"198 50 LINE",
"198 463 LINE",
"198 560 OFFCURVE",
"256 628 OFFCURVE",
"337 628 CURVE SMOOTH",
"410 628 OFFCURVE",
"474 587 OFFCURVE",
"491 529 CURVE",
"548 585 LINE",
"516 652 OFFCURVE",
"429 699 OFFCURVE",
"337 699 CURVE SMOOTH",
"210 699 OFFCURVE",
"120 601 OFFCURVE",
"120 463 CURVE",
"120 74 LINE",
"55 38 LINE",
"55 0 LINE"
);
},
{
closed = 1;
nodes = (
"400 261 LINE",
"400 328 LINE",
"58 328 LINE",
"58 261 LINE"
);
}
);
width = 619;
},
{
layerId = "A0D976AB-773B-4D3A-9F7E-7A0C42AF1E7B";
paths = (
{
closed = 1;
nodes = (
"654 0 LINE",
"654 143 LINE",
"277 143 LINE",
"334 87 LINE",
"334 443 LINE",
"334 490 OFFCURVE",
"368 523 OFFCURVE",
"415 523 CURVE SMOOTH",
"450 523 OFFCURVE",
"488 498 OFFCURVE",
"507 463 CURVE",
"632 585 LINE",
"583 652 OFFCURVE",
"482 699 OFFCURVE",
"389 699 CURVE SMOOTH",
"243 699 OFFCURVE",
"140 601 OFFCURVE",
"140 463 CURVE",
"140 143 LINE",
"40 76 LINE",
"40 0 LINE"
);
},
{
closed = 1;
nodes = (
"471 250 LINE",
"471 337 LINE",
"66 337 LINE",
"66 250 LINE"
);
}
);
width = 677;
},
{
layerId = "3B040282-CF47-4846-BCAF-7BFF90FB63BC";
paths = (
{
closed = 1;
nodes = (
"523 0 LINE",
"523 36 LINE",
"126 36 LINE",
"137 24 LINE",
"137 463 LINE",
"137 580 OFFCURVE",
"207 663 OFFCURVE",
"307 663 CURVE SMOOTH",
"388 663 OFFCURVE",
"455 624 OFFCURVE",
"486 557 CURVE",
"511 579 LINE",
"475 654 OFFCURVE",
"400 699 OFFCURVE",
"307 699 CURVE SMOOTH",
"186 699 OFFCURVE",
"101 601 OFFCURVE",
"101 463 CURVE",
"101 36 LINE",
"55 18 LINE",
"55 0 LINE"
);
},
{
closed = 1;
nodes = (
"350 277 LINE",
"350 313 LINE",
"55 313 LINE",
"55 277 LINE"
);
}
);
width = 569;
}
);
unicode = 00A3;
},
{
glyphname = yen;
lastChange = "2016-07-26 11:53:53 +0000";
layers = (
{
components = (
{
name = Y;
}
);
layerId = "35616FF6-3D9C-499B-B113-AC9E0DB5842A";
paths = (
{
closed = 1;
nodes = (
"584 115 LINE",
"584 182 LINE",
"88 182 LINE",
"88 115 LINE"
);
},
{
closed = 1;
nodes = (
"584 262 LINE",
"584 329 LINE",
"88 329 LINE",
"88 262 LINE"
);
}
);
width = 671;
},
{
components = (
{
name = Y;
}
);
layerId = "A0D976AB-773B-4D3A-9F7E-7A0C42AF1E7B";
paths = (
{
closed = 1;
nodes = (
"603 90 LINE",
"603 177 LINE",
"107 177 LINE",
"107 90 LINE"
);
},
{
closed = 1;
nodes = (
"603 230 LINE",
"603 317 LINE",
"107 317 LINE",
"107 230 LINE"
);
}
);
width = 709;
},
{
components = (
{
name = Y;
}
);
layerId = "3B040282-CF47-4846-BCAF-7BFF90FB63BC";
paths = (
{
closed = 1;
nodes = (
"544 131 LINE",
"544 167 LINE",
"88 167 LINE",
"88 131 LINE"
);
},
{
closed = 1;
nodes = (
"544 278 LINE",
"544 314 LINE",
"88 314 LINE",
"88 278 LINE"
);
}
);
width = 632;
}
);
unicode = 00A5;
},
{
glyphname = plus;
lastChange = "2016-07-26 11:46:11 +0000";
layers = (
{
layerId = "35616FF6-3D9C-499B-B113-AC9E0DB5842A";
paths = (
{
closed = 1;
nodes = (
"526 297 LINE",
"526 371 LINE",
"67 371 LINE",
"67 297 LINE"
);
},
{
closed = 1;
nodes = (
"334 105 LINE",
"334 564 LINE",
"259 564 LINE",
"259 105 LINE"
);
}
);
width = 593;
},
{
layerId = "A0D976AB-773B-4D3A-9F7E-7A0C42AF1E7B";
paths = (
{
closed = 1;
nodes = (
"554 259 LINE",
"554 408 LINE",
"55 408 LINE",
"55 259 LINE"
);
},
{
closed = 1;
nodes = (
"385 84 LINE",
"385 583 LINE",
"225 583 LINE",
"225 84 LINE"
);
}
);
width = 609;
},
{
layerId = "3B040282-CF47-4846-BCAF-7BFF90FB63BC";
paths = (
{
closed = 1;
nodes = (
"526 316 LINE",
"526 352 LINE",
"67 352 LINE",
"67 316 LINE"
);
},
{
closed = 1;
nodes = (
"315 105 LINE",
"315 564 LINE",
"279 564 LINE",
"279 105 LINE"
);
}
);
width = 593;
}
);
unicode = 002B;
},
{
glyphname = minus;
lastChange = "2016-07-26 11:46:29 +0000";
layers = (
{
layerId = "35616FF6-3D9C-499B-B113-AC9E0DB5842A";
paths = (
{
closed = 1;
nodes = (
"526 297 LINE",
"526 371 LINE",
"67 371 LINE",
"67 297 LINE"
);
}
);
width = 593;
},
{
layerId = "A0D976AB-773B-4D3A-9F7E-7A0C42AF1E7B";
paths = (
{
closed = 1;
nodes = (
"554 259 LINE",
"554 408 LINE",
"55 408 LINE",
"55 259 LINE"
);
}
);
width = 609;
},
{
layerId = "3B040282-CF47-4846-BCAF-7BFF90FB63BC";
paths = (
{
closed = 1;
nodes = (
"526 316 LINE",
"526 352 LINE",
"67 352 LINE",
"67 316 LINE"
);
}
);
width = 593;
}
);
unicode = 2212;
},
{
glyphname = multiply;
lastChange = "2016-07-26 11:47:49 +0000";
layers = (
{
layerId = "35616FF6-3D9C-499B-B113-AC9E0DB5842A";
paths = (
{
closed = 1;
nodes = (
"459 470 LINE",
"407 523 LINE",
"82 198 LINE",
"135 146 LINE"
);
},
{
closed = 1;
nodes = (
"459 199 LINE",
"135 523 LINE",
"82 470 LINE",
"406 146 LINE"
);
}
);
width = 541;
},
{
layerId = "A0D976AB-773B-4D3A-9F7E-7A0C42AF1E7B";
paths = (
{
closed = 1;
nodes = (
"516 457 LINE",
"410 563 LINE",
"57 210 LINE",
"163 104 LINE"
);
},
{
closed = 1;
nodes = (
"520 214 LINE",
"167 567 LINE",
"54 454 LINE",
"407 101 LINE"
);
}
);
width = 574;
},
{
background = {
paths = (
{
closed = 1;
nodes = (
"432 185 LINE",
"108 509 LINE",
"82 484 LINE",
"407 159 LINE"
);
}
);
};
layerId = "3B040282-CF47-4846-BCAF-7BFF90FB63BC";
paths = (
{
closed = 1;
nodes = (
"433 484 LINE",
"407 509 LINE",
"83 185 LINE",
"108 159 LINE"
);
},
{
closed = 1;
nodes = (
"432 185 LINE",
"108 509 LINE",
"82 484 LINE",
"407 159 LINE"
);
}
);
width = 515;
}
);
unicode = 00D7;
},
{
glyphname = divide;
lastChange = "2016-07-26 11:48:25 +0000";
layers = (
{
layerId = "35616FF6-3D9C-499B-B113-AC9E0DB5842A";
paths = (
{
closed = 1;
nodes = (
"526 297 LINE",
"526 371 LINE",
"67 371 LINE",
"67 297 LINE"
);
},
{
closed = 1;
nodes = (
"327 118 OFFCURVE",
"351 143 OFFCURVE",
"351 173 CURVE SMOOTH",
"351 201 OFFCURVE",
"327 226 OFFCURVE",
"298 226 CURVE SMOOTH",
"267 226 OFFCURVE",
"243 201 OFFCURVE",
"243 173 CURVE SMOOTH",
"243 143 OFFCURVE",
"267 118 OFFCURVE",
"298 118 CURVE SMOOTH"
);
},
{
closed = 1;
nodes = (
"327 442 OFFCURVE",
"351 467 OFFCURVE",
"351 497 CURVE SMOOTH",
"351 525 OFFCURVE",
"327 550 OFFCURVE",
"298 550 CURVE SMOOTH",
"267 550 OFFCURVE",
"243 525 OFFCURVE",
"243 497 CURVE SMOOTH",
"243 467 OFFCURVE",
"267 442 OFFCURVE",
"298 442 CURVE SMOOTH"
);
}
);
width = 593;
},
{
layerId = "A0D976AB-773B-4D3A-9F7E-7A0C42AF1E7B";
paths = (
{
closed = 1;
nodes = (
"554 260 LINE",
"554 409 LINE",
"55 409 LINE",
"55 260 LINE"
);
},
{
closed = 1;
nodes = (
"360 30 OFFCURVE",
"403 75 OFFCURVE",
"403 130 CURVE SMOOTH",
"403 181 OFFCURVE",
"360 226 OFFCURVE",
"307 226 CURVE SMOOTH",
"251 226 OFFCURVE",
"207 181 OFFCURVE",
"207 130 CURVE SMOOTH",
"207 75 OFFCURVE",
"251 30 OFFCURVE",
"307 30 CURVE SMOOTH"
);
},
{
closed = 1;
nodes = (
"360 442 OFFCURVE",
"403 487 OFFCURVE",
"403 542 CURVE SMOOTH",
"403 593 OFFCURVE",
"360 638 OFFCURVE",
"307 638 CURVE SMOOTH",
"251 638 OFFCURVE",
"207 593 OFFCURVE",
"207 542 CURVE SMOOTH",
"207 487 OFFCURVE",
"251 442 OFFCURVE",
"307 442 CURVE SMOOTH"
);
}
);
width = 609;
},
{
layerId = "3B040282-CF47-4846-BCAF-7BFF90FB63BC";
paths = (
{
closed = 1;
nodes = (
"526 316 LINE",
"526 352 LINE",
"67 352 LINE",
"67 316 LINE"
);
},
{
closed = 1;
nodes = (
"314 142 OFFCURVE",
"327 156 OFFCURVE",
"327 173 CURVE SMOOTH",
"327 188 OFFCURVE",
"314 202 OFFCURVE",
"298 202 CURVE SMOOTH",
"280 202 OFFCURVE",
"267 188 OFFCURVE",
"267 173 CURVE SMOOTH",
"267 156 OFFCURVE",
"280 142 OFFCURVE",
"298 142 CURVE SMOOTH"
);
},
{
closed = 1;
nodes = (
"314 466 OFFCURVE",
"327 480 OFFCURVE",
"327 497 CURVE SMOOTH",
"327 512 OFFCURVE",
"314 526 OFFCURVE",
"298 526 CURVE SMOOTH",
"280 526 OFFCURVE",
"267 512 OFFCURVE",
"267 497 CURVE SMOOTH",
"267 480 OFFCURVE",
"280 466 OFFCURVE",
"298 466 CURVE SMOOTH"
);
}
);
width = 593;
}
);
unicode = 00F7;
},
{
glyphname = equal;
lastChange = "2016-07-26 11:48:56 +0000";
layers = (
{
layerId = "35616FF6-3D9C-499B-B113-AC9E0DB5842A";
paths = (
{
closed = 1;
nodes = (
"526 407 LINE",
"526 481 LINE",
"67 481 LINE",
"67 407 LINE"
);
},
{
closed = 1;
nodes = (
"526 187 LINE",
"526 261 LINE",
"67 261 LINE",
"67 187 LINE"
);
}
);
width = 593;
},
{
layerId = "A0D976AB-773B-4D3A-9F7E-7A0C42AF1E7B";
paths = (
{
closed = 1;
nodes = (
"554 382 LINE",
"554 531 LINE",
"55 531 LINE",
"55 382 LINE"
);
},
{
closed = 1;
nodes = (
"554 148 LINE",
"554 297 LINE",
"55 297 LINE",
"55 148 LINE"
);
}
);
width = 609;
},
{
layerId = "3B040282-CF47-4846-BCAF-7BFF90FB63BC";
paths = (
{
closed = 1;
nodes = (
"526 426 LINE",
"526 462 LINE",
"67 462 LINE",
"67 426 LINE"
);
},
{
closed = 1;
nodes = (
"526 206 LINE",
"526 242 LINE",
"67 242 LINE",
"67 206 LINE"
);
}
);
width = 593;
}
);
unicode = 003D;
},
{
glyphname = greater;
lastChange = "2016-07-27 01:25:31 +0000";
layers = (
{
layerId = "35616FF6-3D9C-499B-B113-AC9E0DB5842A";
paths = (
{
closed = 1;
nodes = (
"531 314 LINE",
"531 373 LINE",
"76 599 LINE",
"76 529 LINE",
"457 344 LINE",
"76 159 LINE",
"76 88 LINE"
);
}
);
width = 586;
},
{
layerId = "A0D976AB-773B-4D3A-9F7E-7A0C42AF1E7B";
paths = (
{
closed = 1;
nodes = (
"542 267 LINE",
"542 420 LINE",
"67 609 LINE",
"67 459 LINE",
"398 343 LINE",
"67 229 LINE",
"67 78 LINE"
);
}
);
width = 597;
},
{
layerId = "3B040282-CF47-4846-BCAF-7BFF90FB63BC";
paths = (
{
closed = 1;
nodes = (
"531 322 LINE",
"531 366 LINE",
"76 586 LINE",
"76 542 LINE",
"484 344 LINE",
"76 146 LINE",
"76 102 LINE"
);
}
);
width = 586;
}
);
unicode = 003E;
},
{
glyphname = less;
lastChange = "2016-07-27 01:25:01 +0000";
layers = (
{
layerId = "35616FF6-3D9C-499B-B113-AC9E0DB5842A";
paths = (
{
closed = 1;
nodes = (
"510 159 LINE",
"129 344 LINE",
"510 529 LINE",
"510 599 LINE",
"55 373 LINE",
"55 314 LINE",
"510 88 LINE"
);
}
);
width = 586;
},
{
layerId = "A0D976AB-773B-4D3A-9F7E-7A0C42AF1E7B";
paths = (
{
closed = 1;
nodes = (
"530 229 LINE",
"199 343 LINE",
"530 459 LINE",
"530 609 LINE",
"55 420 LINE",
"55 267 LINE",
"530 78 LINE"
);
}
);
width = 597;
},
{
layerId = "3B040282-CF47-4846-BCAF-7BFF90FB63BC";
paths = (
{
closed = 1;
nodes = (
"510 146 LINE",
"102 344 LINE",
"510 542 LINE",
"510 586 LINE",
"55 366 LINE",
"55 322 LINE",
"510 102 LINE"
);
}
);
width = 586;
}
);
unicode = 003C;
},
{
glyphname = percent;
lastChange = "2016-07-27 01:54:34 +0000";
layers = (
{
layerId = "35616FF6-3D9C-499B-B113-AC9E0DB5842A";
paths = (
{
closed = 1;
nodes = (
"197 0 LINE",
"667 687 LINE",
"601 687 LINE",
"131 0 LINE"
);
},
{
closed = 1;
nodes = (
"681 -10 OFFCURVE",
"748 65 OFFCURVE",
"748 163 CURVE SMOOTH",
"748 256 OFFCURVE",
"684 334 OFFCURVE",
"589 334 CURVE SMOOTH",
"494 334 OFFCURVE",
"429 256 OFFCURVE",
"429 162 CURVE SMOOTH",
"429 64 OFFCURVE",
"496 -10 OFFCURVE",
"588 -10 CURVE SMOOTH"
);
},
{
closed = 1;
nodes = (
"532 44 OFFCURVE",
"492 95 OFFCURVE",
"492 163 CURVE SMOOTH",
"492 228 OFFCURVE",
"531 280 OFFCURVE",
"588 280 CURVE SMOOTH",
"644 280 OFFCURVE",
"685 229 OFFCURVE",
"685 162 CURVE SMOOTH",
"685 94 OFFCURVE",
"646 44 OFFCURVE",
"589 44 CURVE SMOOTH"
);
},
{
closed = 1;
nodes = (
"300 349 OFFCURVE",
"366 424 OFFCURVE",
"366 521 CURVE SMOOTH",
"366 616 OFFCURVE",
"302 693 OFFCURVE",
"207 693 CURVE SMOOTH",
"114 693 OFFCURVE",
"47 618 OFFCURVE",
"47 519 CURVE SMOOTH",
"47 426 OFFCURVE",
"111 349 OFFCURVE",
"206 349 CURVE SMOOTH"
);
},
{
closed = 1;
nodes = (
"152 403 OFFCURVE",
"110 454 OFFCURVE",
"110 520 CURVE SMOOTH",
"110 589 OFFCURVE",
"150 639 OFFCURVE",
"206 639 CURVE SMOOTH",
"262 639 OFFCURVE",
"303 588 OFFCURVE",
"303 520 CURVE SMOOTH",
"303 453 OFFCURVE",
"263 403 OFFCURVE",
"207 403 CURVE SMOOTH"
);
}
);
width = 796;
},
{
layerId = "A0D976AB-773B-4D3A-9F7E-7A0C42AF1E7B";
paths = (
{
closed = 1;
nodes = (
"257 0 LINE",
"740 687 LINE",
"608 687 LINE",
"125 0 LINE"
);
},
{
closed = 1;
nodes = (
"760 -11 OFFCURVE",
"833 67 OFFCURVE",
"833 167 CURVE SMOOTH",
"833 266 OFFCURVE",
"763 346 OFFCURVE",
"654 346 CURVE SMOOTH",
"547 346 OFFCURVE",
"474 268 OFFCURVE",
"474 167 CURVE SMOOTH",
"474 69 OFFCURVE",
"545 -11 OFFCURVE",
"654 -11 CURVE SMOOTH"
);
},
{
closed = 1;
nodes = (
"621 97 OFFCURVE",
"596 123 OFFCURVE",
"596 167 CURVE SMOOTH",
"596 214 OFFCURVE",
"620 238 OFFCURVE",
"654 238 CURVE SMOOTH",
"686 238 OFFCURVE",
"712 212 OFFCURVE",
"712 167 CURVE SMOOTH",
"712 122 OFFCURVE",
"687 97 OFFCURVE",
"654 97 CURVE SMOOTH"
);
},
{
closed = 1;
nodes = (
"317 338 OFFCURVE",
"390 415 OFFCURVE",
"390 516 CURVE SMOOTH",
"390 614 OFFCURVE",
"320 694 OFFCURVE",
"210 694 CURVE SMOOTH",
"101 694 OFFCURVE",
"31 614 OFFCURVE",
"31 516 CURVE SMOOTH",
"31 415 OFFCURVE",
"103 338 OFFCURVE",
"210 338 CURVE SMOOTH"
);
},
{
closed = 1;
nodes = (
"178 445 OFFCURVE",
"153 471 OFFCURVE",
"153 516 CURVE SMOOTH",
"153 561 OFFCURVE",
"177 586 OFFCURVE",
"210 586 CURVE SMOOTH",
"243 586 OFFCURVE",
"268 560 OFFCURVE",
"268 516 CURVE SMOOTH",
"268 470 OFFCURVE",
"243 445 OFFCURVE",
"210 445 CURVE SMOOTH"
);
}
);
width = 864;
},
{
layerId = "3B040282-CF47-4846-BCAF-7BFF90FB63BC";
paths = (
{
closed = 1;
nodes = (
"174 0 LINE",
"644 687 LINE",
"596 687 LINE",
"126 0 LINE"
);
},
{
closed = 1;
nodes = (
"660 -10 OFFCURVE",
"721 62 OFFCURVE",
"721 163 CURVE SMOOTH",
"721 263 OFFCURVE",
"661 334 OFFCURVE",
"575 334 CURVE SMOOTH",
"489 334 OFFCURVE",
"429 263 OFFCURVE",
"429 162 CURVE SMOOTH",
"429 61 OFFCURVE",
"489 -10 OFFCURVE",
"574 -10 CURVE SMOOTH"
);
},
{
closed = 1;
nodes = (
"511 26 OFFCURVE",
"465 83 OFFCURVE",
"465 163 CURVE SMOOTH",
"465 242 OFFCURVE",
"510 298 OFFCURVE",
"574 298 CURVE SMOOTH",
"639 298 OFFCURVE",
"685 242 OFFCURVE",
"685 162 CURVE SMOOTH",
"685 82 OFFCURVE",
"639 26 OFFCURVE",
"575 26 CURVE SMOOTH"
);
},
{
closed = 1;
nodes = (
"278 349 OFFCURVE",
"339 420 OFFCURVE",
"339 521 CURVE SMOOTH",
"339 622 OFFCURVE",
"279 693 OFFCURVE",
"193 693 CURVE SMOOTH",
"107 693 OFFCURVE",
"47 621 OFFCURVE",
"47 519 CURVE SMOOTH",
"47 419 OFFCURVE",
"107 349 OFFCURVE",
"192 349 CURVE SMOOTH"
);
},
{
closed = 1;
nodes = (
"129 385 OFFCURVE",
"83 441 OFFCURVE",
"83 520 CURVE SMOOTH",
"83 600 OFFCURVE",
"128 657 OFFCURVE",
"192 657 CURVE SMOOTH",
"257 657 OFFCURVE",
"303 600 OFFCURVE",
"303 520 CURVE SMOOTH",
"303 441 OFFCURVE",
"257 385 OFFCURVE",
"193 385 CURVE SMOOTH"
);
}
);
width = 769;
}
);
unicode = 0025;
},
{
glyphname = perthousand;
lastChange = "2016-07-27 01:55:21 +0000";
layers = (
{
layerId = "35616FF6-3D9C-499B-B113-AC9E0DB5842A";
paths = (
{
closed = 1;
nodes = (
"197 0 LINE",
"667 687 LINE",
"601 687 LINE",
"131 0 LINE"
);
},
{
closed = 1;
nodes = (
"681 -10 OFFCURVE",
"748 65 OFFCURVE",
"748 163 CURVE SMOOTH",
"748 256 OFFCURVE",
"684 334 OFFCURVE",
"589 334 CURVE SMOOTH",
"494 334 OFFCURVE",
"429 256 OFFCURVE",
"429 162 CURVE SMOOTH",
"429 64 OFFCURVE",
"496 -10 OFFCURVE",
"588 -10 CURVE SMOOTH"
);
},
{
closed = 1;
nodes = (
"532 44 OFFCURVE",
"492 95 OFFCURVE",
"492 163 CURVE SMOOTH",
"492 228 OFFCURVE",
"531 280 OFFCURVE",
"588 280 CURVE SMOOTH",
"644 280 OFFCURVE",
"685 229 OFFCURVE",
"685 162 CURVE SMOOTH",
"685 94 OFFCURVE",
"646 44 OFFCURVE",
"589 44 CURVE SMOOTH"
);
},
{
closed = 1;
nodes = (
"300 349 OFFCURVE",
"366 424 OFFCURVE",
"366 521 CURVE SMOOTH",
"366 616 OFFCURVE",
"302 693 OFFCURVE",
"207 693 CURVE SMOOTH",
"114 693 OFFCURVE",
"47 618 OFFCURVE",
"47 519 CURVE SMOOTH",
"47 426 OFFCURVE",
"111 349 OFFCURVE",
"206 349 CURVE SMOOTH"
);
},
{
closed = 1;
nodes = (
"152 403 OFFCURVE",
"110 454 OFFCURVE",
"110 520 CURVE SMOOTH",
"110 589 OFFCURVE",
"150 639 OFFCURVE",
"206 639 CURVE SMOOTH",
"262 639 OFFCURVE",
"303 588 OFFCURVE",
"303 520 CURVE SMOOTH",
"303 453 OFFCURVE",
"263 403 OFFCURVE",
"207 403 CURVE SMOOTH"
);
},
{
closed = 1;
nodes = (
"1054 -10 OFFCURVE",
"1121 65 OFFCURVE",
"1121 163 CURVE SMOOTH",
"1121 256 OFFCURVE",
"1057 334 OFFCURVE",
"962 334 CURVE SMOOTH",
"867 334 OFFCURVE",
"802 256 OFFCURVE",
"802 162 CURVE SMOOTH",
"802 64 OFFCURVE",
"869 -10 OFFCURVE",
"961 -10 CURVE SMOOTH"
);
},
{
closed = 1;
nodes = (
"905 44 OFFCURVE",
"865 95 OFFCURVE",
"865 163 CURVE SMOOTH",
"865 228 OFFCURVE",
"904 280 OFFCURVE",
"961 280 CURVE SMOOTH",
"1017 280 OFFCURVE",
"1058 229 OFFCURVE",
"1058 162 CURVE SMOOTH",
"1058 94 OFFCURVE",
"1019 44 OFFCURVE",
"962 44 CURVE SMOOTH"
);
}
);
width = 1169;
},
{
layerId = "A0D976AB-773B-4D3A-9F7E-7A0C42AF1E7B";
paths = (
{
closed = 1;
nodes = (
"257 0 LINE",
"740 687 LINE",
"608 687 LINE",
"125 0 LINE"
);
},
{
closed = 1;
nodes = (
"760 -11 OFFCURVE",
"833 67 OFFCURVE",
"833 167 CURVE SMOOTH",
"833 266 OFFCURVE",
"763 346 OFFCURVE",
"654 346 CURVE SMOOTH",
"547 346 OFFCURVE",
"474 268 OFFCURVE",
"474 167 CURVE SMOOTH",
"474 69 OFFCURVE",
"545 -11 OFFCURVE",
"654 -11 CURVE SMOOTH"
);
},
{
closed = 1;
nodes = (
"621 97 OFFCURVE",
"596 123 OFFCURVE",
"596 167 CURVE SMOOTH",
"596 214 OFFCURVE",
"620 238 OFFCURVE",
"654 238 CURVE SMOOTH",
"686 238 OFFCURVE",
"712 212 OFFCURVE",
"712 167 CURVE SMOOTH",
"712 122 OFFCURVE",
"687 97 OFFCURVE",
"654 97 CURVE SMOOTH"
);
},
{
closed = 1;
nodes = (
"317 338 OFFCURVE",
"390 415 OFFCURVE",
"390 516 CURVE SMOOTH",
"390 614 OFFCURVE",
"320 694 OFFCURVE",
"210 694 CURVE SMOOTH",
"101 694 OFFCURVE",
"31 614 OFFCURVE",
"31 516 CURVE SMOOTH",
"31 415 OFFCURVE",
"103 338 OFFCURVE",
"210 338 CURVE SMOOTH"
);
},
{
closed = 1;
nodes = (
"178 445 OFFCURVE",
"153 471 OFFCURVE",
"153 516 CURVE SMOOTH",
"153 561 OFFCURVE",
"177 586 OFFCURVE",
"210 586 CURVE SMOOTH",
"243 586 OFFCURVE",
"268 560 OFFCURVE",
"268 516 CURVE SMOOTH",
"268 470 OFFCURVE",
"243 445 OFFCURVE",
"210 445 CURVE SMOOTH"
);
},
{
closed = 1;
nodes = (
"1150 -11 OFFCURVE",
"1223 67 OFFCURVE",
"1223 167 CURVE SMOOTH",
"1223 266 OFFCURVE",
"1153 346 OFFCURVE",
"1044 346 CURVE SMOOTH",
"937 346 OFFCURVE",
"864 268 OFFCURVE",
"864 167 CURVE SMOOTH",
"864 69 OFFCURVE",
"935 -11 OFFCURVE",
"1044 -11 CURVE SMOOTH"
);
},
{
closed = 1;
nodes = (
"1011 97 OFFCURVE",
"986 123 OFFCURVE",
"986 167 CURVE SMOOTH",
"986 214 OFFCURVE",
"1010 238 OFFCURVE",
"1044 238 CURVE SMOOTH",
"1076 238 OFFCURVE",
"1102 212 OFFCURVE",
"1102 167 CURVE SMOOTH",
"1102 122 OFFCURVE",
"1077 97 OFFCURVE",
"1044 97 CURVE SMOOTH"
);
}
);
width = 1254;
},
{
layerId = "3B040282-CF47-4846-BCAF-7BFF90FB63BC";
paths = (
{
closed = 1;
nodes = (
"174 0 LINE",
"644 687 LINE",
"596 687 LINE",
"126 0 LINE"
);
},
{
closed = 1;
nodes = (
"660 -10 OFFCURVE",
"721 62 OFFCURVE",
"721 163 CURVE SMOOTH",
"721 263 OFFCURVE",
"661 334 OFFCURVE",
"575 334 CURVE SMOOTH",
"489 334 OFFCURVE",
"429 263 OFFCURVE",
"429 162 CURVE SMOOTH",
"429 61 OFFCURVE",
"489 -10 OFFCURVE",
"574 -10 CURVE SMOOTH"
);
},
{
closed = 1;
nodes = (
"511 26 OFFCURVE",
"465 83 OFFCURVE",
"465 163 CURVE SMOOTH",
"465 242 OFFCURVE",
"510 298 OFFCURVE",
"574 298 CURVE SMOOTH",
"639 298 OFFCURVE",
"685 242 OFFCURVE",
"685 162 CURVE SMOOTH",
"685 82 OFFCURVE",
"639 26 OFFCURVE",
"575 26 CURVE SMOOTH"
);
},
{
closed = 1;
nodes = (
"278 349 OFFCURVE",
"339 420 OFFCURVE",
"339 521 CURVE SMOOTH",
"339 622 OFFCURVE",
"279 693 OFFCURVE",
"193 693 CURVE SMOOTH",
"107 693 OFFCURVE",
"47 621 OFFCURVE",
"47 519 CURVE SMOOTH",
"47 419 OFFCURVE",
"107 349 OFFCURVE",
"192 349 CURVE SMOOTH"
);
},
{
closed = 1;
nodes = (
"129 385 OFFCURVE",
"83 441 OFFCURVE",
"83 520 CURVE SMOOTH",
"83 600 OFFCURVE",
"128 657 OFFCURVE",
"192 657 CURVE SMOOTH",
"257 657 OFFCURVE",
"303 600 OFFCURVE",
"303 520 CURVE SMOOTH",
"303 441 OFFCURVE",
"257 385 OFFCURVE",
"193 385 CURVE SMOOTH"
);
},
{
closed = 1;
nodes = (
"1032 -10 OFFCURVE",
"1093 62 OFFCURVE",
"1093 163 CURVE SMOOTH",
"1093 263 OFFCURVE",
"1033 334 OFFCURVE",
"947 334 CURVE SMOOTH",
"861 334 OFFCURVE",
"801 263 OFFCURVE",
"801 162 CURVE SMOOTH",
"801 61 OFFCURVE",
"861 -10 OFFCURVE",
"946 -10 CURVE SMOOTH"
);
},
{
closed = 1;
nodes = (
"883 26 OFFCURVE",
"837 83 OFFCURVE",
"837 163 CURVE SMOOTH",
"837 242 OFFCURVE",
"882 298 OFFCURVE",
"946 298 CURVE SMOOTH",
"1011 298 OFFCURVE",
"1057 242 OFFCURVE",
"1057 162 CURVE SMOOTH",
"1057 82 OFFCURVE",
"1011 26 OFFCURVE",
"947 26 CURVE SMOOTH"
);
}
);
width = 1141;
}
);
unicode = 2030;
},
{
glyphname = at;
lastChange = "2016-07-26 14:54:19 +0000";
layers = (
{
layerId = "35616FF6-3D9C-499B-B113-AC9E0DB5842A";
paths = (
{
closed = 1;
nodes = (
"517 -116 OFFCURVE",
"585 -96 OFFCURVE",
"662 -47 CURVE",
"644 -20 LINE",
"571 -64 OFFCURVE",
"510 -81 OFFCURVE",
"428 -81 CURVE SMOOTH",
"240 -81 OFFCURVE",
"82 75 OFFCURVE",
"82 260 CURVE SMOOTH",
"82 466 OFFCURVE",
"255 639 OFFCURVE",
"460 639 CURVE SMOOTH",
"645 639 OFFCURVE",
"801 493 OFFCURVE",
"801 319 CURVE SMOOTH",
"801 179 OFFCURVE",
"732 125 OFFCURVE",
"677 125 CURVE SMOOTH",
"637 125 OFFCURVE",
"611 149 OFFCURVE",
"611 191 CURVE SMOOTH",
"611 216 OFFCURVE",
"633 322 OFFCURVE",
"664 481 CURVE",
"597 486 LINE",
"584 420 LINE",
"562 463 OFFCURVE",
"518 501 OFFCURVE",
"447 501 CURVE SMOOTH",
"331 501 OFFCURVE",
"214 391 OFFCURVE",
"214 251 CURVE SMOOTH",
"214 147 OFFCURVE",
"284 78 OFFCURVE",
"380 78 CURVE SMOOTH",
"449 78 OFFCURVE",
"505 116 OFFCURVE",
"542 164 CURVE",
"553 111 OFFCURVE",
"595 78 OFFCURVE",
"657 78 CURVE SMOOTH",
"745 78 OFFCURVE",
"837 156 OFFCURVE",
"837 319 CURVE SMOOTH",
"837 512 OFFCURVE",
"666 675 OFFCURVE",
"462 675 CURVE SMOOTH",
"235 675 OFFCURVE",
"44 485 OFFCURVE",
"44 259 CURVE SMOOTH",
"44 55 OFFCURVE",
"219 -116 OFFCURVE",
"426 -116 CURVE SMOOTH"
);
},
{
closed = 1;
nodes = (
"330 137 OFFCURVE",
"286 184 OFFCURVE",
"286 255 CURVE SMOOTH",
"286 355 OFFCURVE",
"364 442 OFFCURVE",
"456 442 CURVE SMOOTH",
"535 442 OFFCURVE",
"570 391 OFFCURVE",
"562 311 CURVE SMOOTH",
"552 214 OFFCURVE",
"492 137 OFFCURVE",
"398 137 CURVE SMOOTH"
);
}
);
width = 881;
},
{
layerId = "A0D976AB-773B-4D3A-9F7E-7A0C42AF1E7B";
paths = (
{
closed = 1;
nodes = (
"513 -116 OFFCURVE",
"591 -91 OFFCURVE",
"661 -47 CURVE",
"639 -14 LINE",
"574 -53 OFFCURVE",
"508 -75 OFFCURVE",
"427 -75 CURVE SMOOTH",
"227 -75 OFFCURVE",
"86 72 OFFCURVE",
"86 261 CURVE SMOOTH",
"86 465 OFFCURVE",
"251 634 OFFCURVE",
"461 634 CURVE SMOOTH",
"658 634 OFFCURVE",
"790 503 OFFCURVE",
"790 334 CURVE SMOOTH",
"790 222 OFFCURVE",
"743 163 OFFCURVE",
"691 163 CURVE SMOOTH",
"662 163 OFFCURVE",
"644 181 OFFCURVE",
"644 211 CURVE SMOOTH",
"644 255 OFFCURVE",
"660 306 OFFCURVE",
"694 484 CURVE",
"538 496 LINE",
"527 444 LINE",
"502 481 OFFCURVE",
"460 509 OFFCURVE",
"399 509 CURVE SMOOTH",
"283 509 OFFCURVE",
"180 395 OFFCURVE",
"180 260 CURVE SMOOTH",
"180 150 OFFCURVE",
"247 73 OFFCURVE",
"350 73 CURVE SMOOTH",
"403 73 OFFCURVE",
"452 99 OFFCURVE",
"488 146 CURVE",
"507 102 OFFCURVE",
"546 71 OFFCURVE",
"618 71 CURVE SMOOTH",
"717 71 OFFCURVE",
"836 154 OFFCURVE",
"836 334 CURVE SMOOTH",
"836 516 OFFCURVE",
"683 676 OFFCURVE",
"463 676 CURVE SMOOTH",
"232 676 OFFCURVE",
"43 486 OFFCURVE",
"43 260 CURVE SMOOTH",
"43 50 OFFCURVE",
"204 -116 OFFCURVE",
"424 -116 CURVE SMOOTH"
);
},
{
closed = 1;
nodes = (
"369 202 OFFCURVE",
"341 228 OFFCURVE",
"341 273 CURVE SMOOTH",
"341 328 OFFCURVE",
"379 380 OFFCURVE",
"438 380 CURVE SMOOTH",
"478 380 OFFCURVE",
"503 349 OFFCURVE",
"499 304 CURVE SMOOTH",
"494 244 OFFCURVE",
"456 202 OFFCURVE",
"409 202 CURVE SMOOTH"
);
}
);
width = 879;
},
{
layerId = "3B040282-CF47-4846-BCAF-7BFF90FB63BC";
paths = (
{
closed = 1;
nodes = (
"517 -116 OFFCURVE",
"585 -96 OFFCURVE",
"662 -47 CURVE",
"644 -20 LINE",
"571 -64 OFFCURVE",
"510 -81 OFFCURVE",
"428 -81 CURVE SMOOTH",
"240 -81 OFFCURVE",
"82 75 OFFCURVE",
"82 260 CURVE SMOOTH",
"82 466 OFFCURVE",
"255 639 OFFCURVE",
"460 639 CURVE SMOOTH",
"645 639 OFFCURVE",
"801 493 OFFCURVE",
"801 319 CURVE SMOOTH",
"801 179 OFFCURVE",
"727 114 OFFCURVE",
"672 114 CURVE SMOOTH",
"627 114 OFFCURVE",
"591 143 OFFCURVE",
"591 191 CURVE SMOOTH",
"591 216 OFFCURVE",
"611 322 OFFCURVE",
"647 481 CURVE",
"607 486 LINE",
"593 420 LINE",
"571 463 OFFCURVE",
"521 501 OFFCURVE",
"450 501 CURVE SMOOTH",
"332 501 OFFCURVE",
"232 387 OFFCURVE",
"232 251 CURVE SMOOTH",
"232 150 OFFCURVE",
"295 78 OFFCURVE",
"385 78 CURVE SMOOTH",
"454 78 OFFCURVE",
"516 116 OFFCURVE",
"553 164 CURVE",
"564 110 OFFCURVE",
"605 78 OFFCURVE",
"662 78 CURVE SMOOTH",
"750 78 OFFCURVE",
"837 156 OFFCURVE",
"837 319 CURVE SMOOTH",
"837 512 OFFCURVE",
"666 675 OFFCURVE",
"462 675 CURVE SMOOTH",
"235 675 OFFCURVE",
"44 485 OFFCURVE",
"44 259 CURVE SMOOTH",
"44 55 OFFCURVE",
"219 -116 OFFCURVE",
"426 -116 CURVE SMOOTH"
);
},
{
closed = 1;
nodes = (
"320 114 OFFCURVE",
"268 172 OFFCURVE",
"268 255 CURVE SMOOTH",
"268 369 OFFCURVE",
"353 465 OFFCURVE",
"454 465 CURVE SMOOTH",
"540 465 OFFCURVE",
"588 394 OFFCURVE",
"569 294 CURVE SMOOTH",
"551 199 OFFCURVE",
"488 114 OFFCURVE",
"394 114 CURVE SMOOTH"
);
}
);
width = 881;
}
);
unicode = 0040;
},
{
glyphname = ampersand;
lastChange = "2016-07-25 13:15:07 +0000";
layers = (
{
layerId = "35616FF6-3D9C-499B-B113-AC9E0DB5842A";
paths = (
{
closed = 1;
nodes = (
"427 -12 OFFCURVE",
"527 133 OFFCURVE",
"609 316 CURVE",
"544 345 LINE",
"483 184 OFFCURVE",
"385 55 OFFCURVE",
"260 55 CURVE SMOOTH",
"182 55 OFFCURVE",
"116 103 OFFCURVE",
"116 184 CURVE SMOOTH",
"116 258 OFFCURVE",
"178 313 OFFCURVE",
"274 349 CURVE SMOOTH",
"390 393 OFFCURVE",
"477 434 OFFCURVE",
"477 536 CURVE SMOOTH",
"477 622 OFFCURVE",
"407 695 OFFCURVE",
"315 695 CURVE SMOOTH",
"212 695 OFFCURVE",
"140 624 OFFCURVE",
"140 534 CURVE SMOOTH",
"140 474 OFFCURVE",
"166 421 OFFCURVE",
"221 353 CURVE SMOOTH",
"295 261 OFFCURVE",
"374 177 OFFCURVE",
"557 -7 CURVE",
"628 26 LINE",
"458 198 OFFCURVE",
"375 284 OFFCURVE",
"288 388 CURVE SMOOTH",
"238 446 OFFCURVE",
"215 493 OFFCURVE",
"215 534 CURVE SMOOTH",
"215 593 OFFCURVE",
"258 628 OFFCURVE",
"315 628 CURVE SMOOTH",
"366 628 OFFCURVE",
"402 587 OFFCURVE",
"402 534 CURVE SMOOTH",
"402 470 OFFCURVE",
"350 440 OFFCURVE",
"231 396 CURVE SMOOTH",
"103 349 OFFCURVE",
"41 280 OFFCURVE",
"41 182 CURVE SMOOTH",
"41 62 OFFCURVE",
"135 -12 OFFCURVE",
"257 -12 CURVE SMOOTH"
);
}
);
width = 670;
},
{
layerId = "A0D976AB-773B-4D3A-9F7E-7A0C42AF1E7B";
paths = (
{
closed = 1;
nodes = (
"436 -12 OFFCURVE",
"553 108 OFFCURVE",
"659 307 CURVE",
"525 372 LINE",
"473 249 OFFCURVE",
"374 129 OFFCURVE",
"288 129 CURVE SMOOTH",
"246 129 OFFCURVE",
"211 158 OFFCURVE",
"211 205 CURVE SMOOTH",
"211 247 OFFCURVE",
"235 274 OFFCURVE",
"316 310 CURVE SMOOTH",
"491 388 OFFCURVE",
"543 431 OFFCURVE",
"543 512 CURVE SMOOTH",
"543 620 OFFCURVE",
"454 696 OFFCURVE",
"328 696 CURVE SMOOTH",
"215 696 OFFCURVE",
"120 612 OFFCURVE",
"120 512 CURVE SMOOTH",
"120 444 OFFCURVE",
"137 413 OFFCURVE",
"205 322 CURVE SMOOTH",
"252 259 OFFCURVE",
"357 145 OFFCURVE",
"515 -22 CURVE",
"668 46 LINE",
"497 230 OFFCURVE",
"406 331 OFFCURVE",
"345 403 CURVE SMOOTH",
"304 452 OFFCURVE",
"279 471 OFFCURVE",
"279 512 CURVE SMOOTH",
"279 542 OFFCURVE",
"303 567 OFFCURVE",
"332 567 CURVE SMOOTH",
"362 567 OFFCURVE",
"384 544 OFFCURVE",
"384 512 CURVE SMOOTH",
"384 460 OFFCURVE",
"349 450 OFFCURVE",
"240 411 CURVE SMOOTH",
"79 354 OFFCURVE",
"20 301 OFFCURVE",
"20 191 CURVE SMOOTH",
"20 62 OFFCURVE",
"121 -12 OFFCURVE",
"261 -12 CURVE SMOOTH"
);
}
);
width = 685;
},
{
layerId = "3B040282-CF47-4846-BCAF-7BFF90FB63BC";
paths = (
{
closed = 1;
nodes = (
"383 -12 OFFCURVE",
"478 82 OFFCURVE",
"591 316 CURVE",
"558 331 LINE",
"451 112 OFFCURVE",
"366 24 OFFCURVE",
"258 24 CURVE SMOOTH",
"160 24 OFFCURVE",
"77 97 OFFCURVE",
"77 184 CURVE SMOOTH",
"77 282 OFFCURVE",
"180 328 OFFCURVE",
"257 359 CURVE SMOOTH",
"366 403 OFFCURVE",
"452 443 OFFCURVE",
"452 536 CURVE SMOOTH",
"452 622 OFFCURVE",
"379 695 OFFCURVE",
"296 695 CURVE SMOOTH",
"211 695 OFFCURVE",
"140 620 OFFCURVE",
"140 535 CURVE SMOOTH",
"140 486 OFFCURVE",
"163 443 OFFCURVE",
"228 361 CURVE SMOOTH",
"300 271 OFFCURVE",
"391 170 OFFCURVE",
"567 -7 CURVE",
"603 10 LINE",
"472 142 OFFCURVE",
"341 280 OFFCURVE",
"258 381 CURVE SMOOTH",
"197 455 OFFCURVE",
"176 493 OFFCURVE",
"176 534 CURVE SMOOTH",
"176 601 OFFCURVE",
"230 659 OFFCURVE",
"295 659 CURVE SMOOTH",
"361 659 OFFCURVE",
"416 600 OFFCURVE",
"416 537 CURVE SMOOTH",
"416 465 OFFCURVE",
"345 434 OFFCURVE",
"229 387 CURVE SMOOTH",
"165 361 OFFCURVE",
"41 309 OFFCURVE",
"41 186 CURVE SMOOTH",
"41 75 OFFCURVE",
"141 -12 OFFCURVE",
"259 -12 CURVE SMOOTH"
);
}
);
width = 645;
}
);
unicode = 0026;
},
{
glyphname = bar;
lastChange = "2016-07-25 13:47:41 +0000";
layers = (
{
layerId = "35616FF6-3D9C-499B-B113-AC9E0DB5842A";
paths = (
{
closed = 1;
nodes = (
"169 -74 LINE",
"169 743 LINE",
"109 743 LINE",
"109 -74 LINE"
);
}
);
width = 278;
},
{
layerId = "A0D976AB-773B-4D3A-9F7E-7A0C42AF1E7B";
paths = (
{
closed = 1;
nodes = (
"221 -74 LINE",
"221 743 LINE",
"92 743 LINE",
"92 -74 LINE"
);
}
);
width = 313;
},
{
layerId = "3B040282-CF47-4846-BCAF-7BFF90FB63BC";
paths = (
{
closed = 1;
nodes = (
"145 -74 LINE",
"145 743 LINE",
"109 743 LINE",
"109 -74 LINE"
);
}
);
width = 254;
}
);
unicode = 007C;
},
{
glyphname = asciicircum;
lastChange = "2016-07-27 01:22:17 +0000";
layers = (
{
layerId = "35616FF6-3D9C-499B-B113-AC9E0DB5842A";
paths = (
{
closed = 1;
nodes = (
"118 413 LINE",
"245 632 LINE",
"371 413 LINE",
"436 413 LINE",
"275 687 LINE",
"216 687 LINE",
"54 413 LINE"
);
}
);
width = 490;
},
{
layerId = "A0D976AB-773B-4D3A-9F7E-7A0C42AF1E7B";
paths = (
{
closed = 1;
nodes = (
"165 413 LINE",
"242 573 LINE",
"320 413 LINE",
"450 413 LINE",
"308 687 LINE",
"179 687 LINE",
"36 413 LINE"
);
}
);
width = 486;
},
{
layerId = "3B040282-CF47-4846-BCAF-7BFF90FB63BC";
paths = (
{
closed = 1;
nodes = (
"98 413 LINE",
"235 647 LINE",
"372 413 LINE",
"416 413 LINE",
"256 687 LINE",
"214 687 LINE",
"54 413 LINE"
);
}
);
width = 470;
}
);
unicode = 005E;
},
{
glyphname = acute;
lastChange = "2016-07-25 08:49:59 +0000";
layers = (
{
anchors = (
{
name = _top;
position = "{143, 517}";
},
{
name = top;
position = "{143, 704}";
}
);
layerId = "35616FF6-3D9C-499B-B113-AC9E0DB5842A";
paths = (
{
closed = 1;
nodes = (
"121 576 LINE",
"263 702 LINE",
"184 720 LINE",
"63 576 LINE"
);
}
);
width = 326;
},
{
anchors = (
{
name = _top;
position = "{182, 517}";
},
{
name = top;
position = "{182, 704}";
}
);
layerId = "A0D976AB-773B-4D3A-9F7E-7A0C42AF1E7B";
paths = (
{
closed = 1;
nodes = (
"189 574 LINE",
"341 710 LINE",
"175 738 LINE",
"63 574 LINE"
);
}
);
width = 404;
},
{
anchors = (
{
name = _top;
position = "{135, 517}";
},
{
name = top;
position = "{135, 704}";
}
);
layerId = "3B040282-CF47-4846-BCAF-7BFF90FB63BC";
paths = (
{
closed = 1;
nodes = (
"111 576 LINE",
"229 709 LINE",
"188 718 LINE",
"63 576 LINE"
);
}
);
width = 292;
}
);
unicode = 00B4;
},
{
glyphname = breve;
lastChange = "2016-07-27 02:57:41 +0000";
layers = (
{
anchors = (
{
name = _top;
position = "{209, 517}";
},
{
name = top;
position = "{209, 704}";
}
);
layerId = "3B040282-CF47-4846-BCAF-7BFF90FB63BC";
paths = (
{
closed = 1;
nodes = (
"262 589 OFFCURVE",
"315 609 OFFCURVE",
"355 649 CURVE",
"329 675 LINE",
"297 643 OFFCURVE",
"253 626 OFFCURVE",
"209 626 CURVE SMOOTH",
"165 626 OFFCURVE",
"121 643 OFFCURVE",
"89 675 CURVE",
"63 649 LINE",
"104 609 OFFCURVE",
"156 589 OFFCURVE",
"209 589 CURVE SMOOTH"
);
}
);
width = 418;
},
{
anchors = (
{
name = _top;
position = "{209, 517}";
},
{
name = top;
position = "{209, 704}";
}
);
layerId = "35616FF6-3D9C-499B-B113-AC9E0DB5842A";
paths = (
{
closed = 1;
nodes = (
"262 589 OFFCURVE",
"315 609 OFFCURVE",
"355 649 CURVE",
"308 696 LINE",
"281 670 OFFCURVE",
"244 654 OFFCURVE",
"209 654 CURVE SMOOTH",
"174 654 OFFCURVE",
"137 670 OFFCURVE",
"110 696 CURVE",
"63 649 LINE",
"104 609 OFFCURVE",
"156 589 OFFCURVE",
"209 589 CURVE SMOOTH"
);
}
);
width = 418;
},
{
anchors = (
{
name = _top;
position = "{234, 517}";
},
{
name = top;
position = "{234, 704}";
}
);
layerId = "A0D976AB-773B-4D3A-9F7E-7A0C42AF1E7B";
paths = (
{
closed = 1;
nodes = (
"296 575 OFFCURVE",
"358 599 OFFCURVE",
"405 646 CURVE",
"331 720 LINE",
"304 693 OFFCURVE",
"268 677 OFFCURVE",
"234 677 CURVE SMOOTH",
"200 677 OFFCURVE",
"164 693 OFFCURVE",
"137 720 CURVE",
"63 646 LINE",
"111 599 OFFCURVE",
"172 575 OFFCURVE",
"234 575 CURVE SMOOTH"
);
}
);
width = 468;
}
);
unicode = 02D8;
},
{
glyphname = cedilla;
lastChange = "2016-07-26 11:04:49 +0000";
layers = (
{
anchors = (
{
name = _bottom;
position = "{156, 0}";
}
);
layerId = "35616FF6-3D9C-499B-B113-AC9E0DB5842A";
paths = (
{
closed = 1;
nodes = (
"206 -192 OFFCURVE",
"249 -160 OFFCURVE",
"249 -111 CURVE SMOOTH",
"249 -72 OFFCURVE",
"220 -45 OFFCURVE",
"180 -45 CURVE SMOOTH",
"157 -45 OFFCURVE",
"129 -54 OFFCURVE",
"113 -67 CURVE",
"160 -67 LINE",
"193 11 LINE",
"141 11 LINE",
"108 -67 LINE",
"124 -84 LINE",
"133 -77 OFFCURVE",
"146 -73 OFFCURVE",
"158 -73 CURVE SMOOTH",
"185 -73 OFFCURVE",
"197 -88 OFFCURVE",
"197 -107 CURVE SMOOTH",
"197 -129 OFFCURVE",
"176 -145 OFFCURVE",
"147 -145 CURVE SMOOTH",
"125 -145 OFFCURVE",
"102 -138 OFFCURVE",
"82 -122 CURVE",
"63 -164 LINE",
"83 -180 OFFCURVE",
"116 -192 OFFCURVE",
"151 -192 CURVE SMOOTH"
);
}
);
width = 312;
},
{
anchors = (
{
name = _bottom;
position = "{170, 0}";
}
);
layerId = "A0D976AB-773B-4D3A-9F7E-7A0C42AF1E7B";
paths = (
{
closed = 1;
nodes = (
"229 -200 OFFCURVE",
"277 -167 OFFCURVE",
"277 -111 CURVE SMOOTH",
"277 -71 OFFCURVE",
"245 -42 OFFCURVE",
"199 -42 CURVE SMOOTH",
"179 -42 OFFCURVE",
"139 -50 OFFCURVE",
"117 -62 CURVE",
"196 -62 LINE",
"227 11 LINE",
"138 11 LINE",
"107 -62 LINE",
"133 -86 LINE",
"141 -81 OFFCURVE",
"151 -78 OFFCURVE",
"160 -78 CURVE SMOOTH",
"177 -78 OFFCURVE",
"188 -86 OFFCURVE",
"188 -100 CURVE SMOOTH",
"188 -116 OFFCURVE",
"171 -125 OFFCURVE",
"152 -125 CURVE SMOOTH",
"132 -125 OFFCURVE",
"111 -116 OFFCURVE",
"94 -102 CURVE",
"63 -170 LINE",
"86 -187 OFFCURVE",
"124 -200 OFFCURVE",
"162 -200 CURVE SMOOTH"
);
}
);
width = 340;
},
{
anchors = (
{
name = _bottom;
position = "{151, 0}";
}
);
layerId = "3B040282-CF47-4846-BCAF-7BFF90FB63BC";
paths = (
{
closed = 1;
nodes = (
"194 -192 OFFCURVE",
"236 -154 OFFCURVE",
"236 -109 CURVE SMOOTH",
"236 -72 OFFCURVE",
"209 -45 OFFCURVE",
"170 -45 CURVE SMOOTH",
"152 -45 OFFCURVE",
"129 -54 OFFCURVE",
"113 -67 CURVE",
"147 -67 LINE",
"180 11 LINE",
"141 11 LINE",
"108 -67 LINE",
"124 -84 LINE",
"132 -78 OFFCURVE",
"146 -73 OFFCURVE",
"158 -73 CURVE SMOOTH",
"183 -73 OFFCURVE",
"200 -88 OFFCURVE",
"200 -109 CURVE SMOOTH",
"200 -133 OFFCURVE",
"174 -156 OFFCURVE",
"144 -156 CURVE SMOOTH",
"121 -156 OFFCURVE",
"97 -147 OFFCURVE",
"78 -131 CURVE",
"63 -164 LINE",
"87 -182 OFFCURVE",
"117 -192 OFFCURVE",
"144 -192 CURVE SMOOTH"
);
}
);
width = 299;
}
);
unicode = 00B8;
},
{
glyphname = circumflex;
lastChange = "2016-07-26 11:09:04 +0000";
layers = (
{
anchors = (
{
name = _top;
position = "{198, 517}";
},
{
name = top;
position = "{198, 704}";
}
);
layerId = "35616FF6-3D9C-499B-B113-AC9E0DB5842A";
paths = (
{
closed = 1;
nodes = (
"120 576 LINE",
"198 662 LINE",
"277 576 LINE",
"335 576 LINE",
"233 713 LINE",
"163 713 LINE",
"63 576 LINE"
);
}
);
width = 398;
},
{
anchors = (
{
name = _top;
position = "{248, 517}";
},
{
name = top;
position = "{248, 704}";
}
);
layerId = "A0D976AB-773B-4D3A-9F7E-7A0C42AF1E7B";
paths = (
{
closed = 1;
nodes = (
"175 574 LINE",
"248 641 LINE",
"322 574 LINE",
"435 574 LINE",
"326 728 LINE",
"171 728 LINE",
"63 574 LINE"
);
}
);
width = 498;
},
{
anchors = (
{
name = _top;
position = "{191, 517}";
},
{
name = top;
position = "{191, 704}";
}
);
layerId = "3B040282-CF47-4846-BCAF-7BFF90FB63BC";
paths = (
{
closed = 1;
nodes = (
"107 576 LINE",
"191 682 LINE",
"277 576 LINE",
"321 576 LINE",
"213 713 LINE",
"169 713 LINE",
"63 576 LINE"
);
}
);
width = 384;
}
);
unicode = 02C6;
},
{
glyphname = dieresis;
lastChange = "2016-07-25 08:54:15 +0000";
layers = (
{
anchors = (
{
name = _top;
position = "{205, 517}";
},
{
name = top;
position = "{205, 704}";
}
);
layerId = "35616FF6-3D9C-499B-B113-AC9E0DB5842A";
paths = (
{
closed = 1;
nodes = (
"134 597 OFFCURVE",
"155 618 OFFCURVE",
"155 643 CURVE SMOOTH",
"155 667 OFFCURVE",
"134 689 OFFCURVE",
"109 689 CURVE SMOOTH",
"83 689 OFFCURVE",
"63 667 OFFCURVE",
"63 643 CURVE SMOOTH",
"63 618 OFFCURVE",
"83 597 OFFCURVE",
"109 597 CURVE SMOOTH"
);
},
{
closed = 1;
nodes = (
"326 597 OFFCURVE",
"347 618 OFFCURVE",
"347 643 CURVE SMOOTH",
"347 667 OFFCURVE",
"326 689 OFFCURVE",
"301 689 CURVE SMOOTH",
"275 689 OFFCURVE",
"255 667 OFFCURVE",
"255 643 CURVE SMOOTH",
"255 618 OFFCURVE",
"275 597 OFFCURVE",
"301 597 CURVE SMOOTH"
);
}
);
width = 410;
},
{
anchors = (
{
name = _top;
position = "{262, 517}";
},
{
name = top;
position = "{262, 704}";
}
);
layerId = "A0D976AB-773B-4D3A-9F7E-7A0C42AF1E7B";
paths = (
{
closed = 1;
nodes = (
"197 575 OFFCURVE",
"236 614 OFFCURVE",
"236 662 CURVE SMOOTH",
"236 708 OFFCURVE",
"197 748 OFFCURVE",
"150 748 CURVE SMOOTH",
"100 748 OFFCURVE",
"63 708 OFFCURVE",
"63 662 CURVE SMOOTH",
"63 614 OFFCURVE",
"100 575 OFFCURVE",
"150 575 CURVE SMOOTH"
);
},
{
closed = 1;
nodes = (
"423 575 OFFCURVE",
"461 614 OFFCURVE",
"461 662 CURVE SMOOTH",
"461 708 OFFCURVE",
"423 748 OFFCURVE",
"375 748 CURVE SMOOTH",
"326 748 OFFCURVE",
"288 708 OFFCURVE",
"288 662 CURVE SMOOTH",
"288 614 OFFCURVE",
"326 575 OFFCURVE",
"375 575 CURVE SMOOTH"
);
}
);
width = 524;
},
{
anchors = (
{
name = _top;
position = "{205, 517}";
},
{
name = top;
position = "{205, 704}";
}
);
layerId = "3B040282-CF47-4846-BCAF-7BFF90FB63BC";
paths = (
{
closed = 1;
nodes = (
"125 613 OFFCURVE",
"139 627 OFFCURVE",
"139 643 CURVE SMOOTH",
"139 659 OFFCURVE",
"125 673 OFFCURVE",
"109 673 CURVE SMOOTH",
"92 673 OFFCURVE",
"79 659 OFFCURVE",
"79 643 CURVE SMOOTH",
"79 627 OFFCURVE",
"92 613 OFFCURVE",
"109 613 CURVE SMOOTH"
);
},
{
closed = 1;
nodes = (
"317 613 OFFCURVE",
"331 627 OFFCURVE",
"331 643 CURVE SMOOTH",
"331 659 OFFCURVE",
"317 673 OFFCURVE",
"301 673 CURVE SMOOTH",
"284 673 OFFCURVE",
"271 659 OFFCURVE",
"271 643 CURVE SMOOTH",
"271 627 OFFCURVE",
"284 613 OFFCURVE",
"301 613 CURVE SMOOTH"
);
}
);
width = 410;
}
);
unicode = 00A8;
},
{
glyphname = dotaccent;
lastChange = "2016-07-25 08:53:37 +0000";
layers = (
{
anchors = (
{
name = _top;
position = "{109, 517}";
},
{
name = top;
position = "{109, 704}";
}
);
layerId = "35616FF6-3D9C-499B-B113-AC9E0DB5842A";
paths = (
{
closed = 1;
nodes = (
"134 597 OFFCURVE",
"155 618 OFFCURVE",
"155 643 CURVE SMOOTH",
"155 667 OFFCURVE",
"134 689 OFFCURVE",
"109 689 CURVE SMOOTH",
"83 689 OFFCURVE",
"63 667 OFFCURVE",
"63 643 CURVE SMOOTH",
"63 618 OFFCURVE",
"83 597 OFFCURVE",
"109 597 CURVE SMOOTH"
);
}
);
width = 218;
},
{
anchors = (
{
name = _top;
position = "{150, 517}";
},
{
name = top;
position = "{150, 704}";
}
);
layerId = "A0D976AB-773B-4D3A-9F7E-7A0C42AF1E7B";
paths = (
{
closed = 1;
nodes = (
"197 575 OFFCURVE",
"236 614 OFFCURVE",
"236 662 CURVE SMOOTH",
"236 708 OFFCURVE",
"197 748 OFFCURVE",
"150 748 CURVE SMOOTH",
"100 748 OFFCURVE",
"63 708 OFFCURVE",
"63 662 CURVE SMOOTH",
"63 614 OFFCURVE",
"100 575 OFFCURVE",
"150 575 CURVE SMOOTH"
);
}
);
width = 299;
},
{
anchors = (
{
name = _top;
position = "{93, 517}";
},
{
name = top;
position = "{93, 704}";
}
);
layerId = "3B040282-CF47-4846-BCAF-7BFF90FB63BC";
paths = (
{
closed = 1;
nodes = (
"109 613 OFFCURVE",
"123 627 OFFCURVE",
"123 643 CURVE SMOOTH",
"123 659 OFFCURVE",
"109 673 OFFCURVE",
"93 673 CURVE SMOOTH",
"76 673 OFFCURVE",
"63 659 OFFCURVE",
"63 643 CURVE SMOOTH",
"63 627 OFFCURVE",
"76 613 OFFCURVE",
"93 613 CURVE SMOOTH"
);
}
);
width = 186;
}
);
unicode = 02D9;
},
{
glyphname = grave;
lastChange = "2016-07-25 08:50:30 +0000";
layers = (
{
anchors = (
{
name = _top;
position = "{193, 517}";
},
{
name = top;
position = "{193, 704}";
}
);
layerId = "35616FF6-3D9C-499B-B113-AC9E0DB5842A";
paths = (
{
closed = 1;
nodes = (
"263 576 LINE",
"142 720 LINE",
"63 702 LINE",
"205 576 LINE"
);
}
);
width = 326;
},
{
anchors = (
{
name = _top;
position = "{232, 517}";
},
{
name = top;
position = "{232, 704}";
}
);
layerId = "A0D976AB-773B-4D3A-9F7E-7A0C42AF1E7B";
paths = (
{
closed = 1;
nodes = (
"341 574 LINE",
"229 738 LINE",
"63 710 LINE",
"215 574 LINE"
);
}
);
width = 404;
},
{
anchors = (
{
name = _top;
position = "{157, 517}";
},
{
name = top;
position = "{157, 704}";
}
);
layerId = "3B040282-CF47-4846-BCAF-7BFF90FB63BC";
paths = (
{
closed = 1;
nodes = (
"229 576 LINE",
"104 718 LINE",
"63 709 LINE",
"181 576 LINE"
);
}
);
width = 292;
}
);
unicode = 0060;
},
{
glyphname = ring;
lastChange = "2016-07-25 08:51:57 +0000";
layers = (
{
anchors = (
{
name = _top;
position = "{166, 517}";
},
{
name = top;
position = "{166, 704}";
}
);
layerId = "35616FF6-3D9C-499B-B113-AC9E0DB5842A";
paths = (
{
closed = 1;
nodes = (
"223 589 OFFCURVE",
"269 635 OFFCURVE",
"269 692 CURVE SMOOTH",
"269 749 OFFCURVE",
"223 795 OFFCURVE",
"166 795 CURVE SMOOTH",
"109 795 OFFCURVE",
"63 749 OFFCURVE",
"63 692 CURVE SMOOTH",
"63 635 OFFCURVE",
"109 589 OFFCURVE",
"166 589 CURVE SMOOTH"
);
},
{
closed = 1;
nodes = (
"134 633 OFFCURVE",
"107 660 OFFCURVE",
"107 692 CURVE SMOOTH",
"107 724 OFFCURVE",
"134 751 OFFCURVE",
"166 751 CURVE SMOOTH",
"198 751 OFFCURVE",
"225 724 OFFCURVE",
"225 692 CURVE SMOOTH",
"225 660 OFFCURVE",
"198 633 OFFCURVE",
"166 633 CURVE SMOOTH"
);
}
);
width = 332;
},
{
anchors = (
{
name = _top;
position = "{184, 517}";
},
{
name = top;
position = "{184, 704}";
}
);
layerId = "A0D976AB-773B-4D3A-9F7E-7A0C42AF1E7B";
paths = (
{
closed = 1;
nodes = (
"251 575 OFFCURVE",
"305 629 OFFCURVE",
"305 696 CURVE SMOOTH",
"305 763 OFFCURVE",
"251 817 OFFCURVE",
"184 817 CURVE SMOOTH",
"118 817 OFFCURVE",
"63 763 OFFCURVE",
"63 696 CURVE SMOOTH",
"63 629 OFFCURVE",
"118 575 OFFCURVE",
"184 575 CURVE SMOOTH"
);
},
{
closed = 1;
nodes = (
"157 647 OFFCURVE",
"135 669 OFFCURVE",
"135 696 CURVE SMOOTH",
"135 723 OFFCURVE",
"157 745 OFFCURVE",
"184 745 CURVE SMOOTH",
"211 745 OFFCURVE",
"233 723 OFFCURVE",
"233 696 CURVE SMOOTH",
"233 669 OFFCURVE",
"211 647 OFFCURVE",
"184 647 CURVE SMOOTH"
);
}
);
width = 368;
},
{
anchors = (
{
name = _top;
position = "{166, 517}";
},
{
name = top;
position = "{166, 704}";
}
);
layerId = "3B040282-CF47-4846-BCAF-7BFF90FB63BC";
paths = (
{
closed = 1;
nodes = (
"223 589 OFFCURVE",
"269 635 OFFCURVE",
"269 692 CURVE SMOOTH",
"269 749 OFFCURVE",
"223 795 OFFCURVE",
"166 795 CURVE SMOOTH",
"109 795 OFFCURVE",
"63 749 OFFCURVE",
"63 692 CURVE SMOOTH",
"63 635 OFFCURVE",
"109 589 OFFCURVE",
"166 589 CURVE SMOOTH"
);
},
{
closed = 1;
nodes = (
"130 625 OFFCURVE",
"99 656 OFFCURVE",
"99 692 CURVE SMOOTH",
"99 728 OFFCURVE",
"130 759 OFFCURVE",
"166 759 CURVE SMOOTH",
"202 759 OFFCURVE",
"233 728 OFFCURVE",
"233 692 CURVE SMOOTH",
"233 656 OFFCURVE",
"202 625 OFFCURVE",
"166 625 CURVE SMOOTH"
);
}
);
width = 332;
}
);
unicode = 02DA;
},
{
glyphname = tilde;
lastChange = "2016-07-25 08:58:31 +0000";
layers = (
{
anchors = (
{
name = _top;
position = "{226, 517}";
},
{
name = top;
position = "{226, 704}";
}
);
layerId = "35616FF6-3D9C-499B-B113-AC9E0DB5842A";
paths = (
{
closed = 1;
nodes = (
"345 575 OFFCURVE",
"376 618 OFFCURVE",
"386 694 CURVE",
"340 701 LINE",
"332 653 OFFCURVE",
"316 633 OFFCURVE",
"290 633 CURVE SMOOTH",
"249 633 OFFCURVE",
"220 699 OFFCURVE",
"161 699 CURVE SMOOTH",
"106 699 OFFCURVE",
"75 656 OFFCURVE",
"65 580 CURVE",
"111 573 LINE",
"119 621 OFFCURVE",
"135 641 OFFCURVE",
"161 641 CURVE SMOOTH",
"202 641 OFFCURVE",
"231 575 OFFCURVE",
"290 575 CURVE SMOOTH"
);
}
);
width = 451;
},
{
anchors = (
{
name = _top;
position = "{220, 517}";
},
{
name = top;
position = "{220, 704}";
}
);
layerId = "A0D976AB-773B-4D3A-9F7E-7A0C42AF1E7B";
paths = (
{
closed = 1;
nodes = (
"362 571 OFFCURVE",
"400 617 OFFCURVE",
"410 712 CURVE",
"320 725 LINE",
"314 697 OFFCURVE",
"303 683 OFFCURVE",
"283 683 CURVE SMOOTH",
"257 683 OFFCURVE",
"204 724 OFFCURVE",
"150 724 CURVE SMOOTH",
"77 724 OFFCURVE",
"40 678 OFFCURVE",
"29 583 CURVE",
"119 570 LINE",
"125 599 OFFCURVE",
"136 612 OFFCURVE",
"156 612 CURVE SMOOTH",
"183 612 OFFCURVE",
"234 571 OFFCURVE",
"289 571 CURVE SMOOTH"
);
}
);
width = 439;
},
{
anchors = (
{
name = _top;
position = "{226, 517}";
},
{
name = top;
position = "{226, 704}";
}
);
layerId = "3B040282-CF47-4846-BCAF-7BFF90FB63BC";
paths = (
{
closed = 1;
nodes = (
"339 586 OFFCURVE",
"372 626 OFFCURVE",
"381 694 CURVE",
"345 701 LINE",
"336 651 OFFCURVE",
"316 622 OFFCURVE",
"290 622 CURVE SMOOTH",
"249 622 OFFCURVE",
"220 688 OFFCURVE",
"161 688 CURVE SMOOTH",
"113 688 OFFCURVE",
"79 648 OFFCURVE",
"70 580 CURVE",
"106 573 LINE",
"114 623 OFFCURVE",
"135 652 OFFCURVE",
"161 652 CURVE SMOOTH",
"202 652 OFFCURVE",
"231 586 OFFCURVE",
"290 586 CURVE SMOOTH"
);
}
);
width = 451;
}
);
unicode = 02DC;
},
{
export = 0;
glyphname = lowercase_loop;
lastChange = "2016-07-26 11:40:12 +0000";
layers = (
{
layerId = "35616FF6-3D9C-499B-B113-AC9E0DB5842A";
paths = (
{
closed = 1;
nodes = (
"452 -12 OFFCURVE",
"554 100 OFFCURVE",
"554 259 CURVE SMOOTH",
"554 417 OFFCURVE",
"452 529 OFFCURVE",
"316 529 CURVE SMOOTH",
"179 529 OFFCURVE",
"89 417 OFFCURVE",
"89 259 CURVE SMOOTH",
"89 100 OFFCURVE",
"179 -12 OFFCURVE",
"316 -12 CURVE SMOOTH"
);
},
{
closed = 1;
nodes = (
"200 55 OFFCURVE",
"128 140 OFFCURVE",
"128 259 CURVE SMOOTH",
"128 378 OFFCURVE",
"200 462 OFFCURVE",
"302 462 CURVE SMOOTH",
"403 462 OFFCURVE",
"475 378 OFFCURVE",
"475 259 CURVE SMOOTH",
"475 140 OFFCURVE",
"403 55 OFFCURVE",
"302 55 CURVE SMOOTH"
);
}
);
width = 608;
},
{
layerId = "A0D976AB-773B-4D3A-9F7E-7A0C42AF1E7B";
paths = (
{
closed = 1;
nodes = (
"499 -12 OFFCURVE",
"597 100 OFFCURVE",
"597 259 CURVE SMOOTH",
"597 417 OFFCURVE",
"499 529 OFFCURVE",
"360 529 CURVE SMOOTH",
"224 529 OFFCURVE",
"127 417 OFFCURVE",
"127 259 CURVE SMOOTH",
"127 100 OFFCURVE",
"224 -12 OFFCURVE",
"360 -12 CURVE SMOOTH"
);
},
{
closed = 1;
nodes = (
"238 148 OFFCURVE",
"195 194 OFFCURVE",
"195 259 CURVE SMOOTH",
"195 323 OFFCURVE",
"238 369 OFFCURVE",
"299 369 CURVE SMOOTH",
"366 369 OFFCURVE",
"413 323 OFFCURVE",
"413 259 CURVE SMOOTH",
"413 194 OFFCURVE",
"366 148 OFFCURVE",
"299 148 CURVE SMOOTH"
);
}
);
width = 625;
},
{
layerId = "3B040282-CF47-4846-BCAF-7BFF90FB63BC";
paths = (
{
closed = 1;
nodes = (
"455 -12 OFFCURVE",
"561 112 OFFCURVE",
"561 259 CURVE SMOOTH",
"561 406 OFFCURVE",
"455 529 OFFCURVE",
"329 529 CURVE SMOOTH",
"188 529 OFFCURVE",
"89 417 OFFCURVE",
"89 259 CURVE SMOOTH",
"89 100 OFFCURVE",
"188 -12 OFFCURVE",
"329 -12 CURVE SMOOTH"
);
},
{
closed = 1;
nodes = (
"207 24 OFFCURVE",
"125 121 OFFCURVE",
"125 259 CURVE SMOOTH",
"125 396 OFFCURVE",
"207 493 OFFCURVE",
"322 493 CURVE SMOOTH",
"432 493 OFFCURVE",
"525 386 OFFCURVE",
"525 259 CURVE SMOOTH",
"525 131 OFFCURVE",
"432 24 OFFCURVE",
"322 24 CURVE SMOOTH"
);
}
);
width = 605;
}
);
},
{
export = 0;
glyphname = lowercase_nh_shoulder;
lastChange = "2016-07-23 01:57:33 +0000";
layers = (
{
layerId = "35616FF6-3D9C-499B-B113-AC9E0DB5842A";
paths = (
{
closed = 1;
nodes = (
"516 0 LINE",
"516 329 LINE SMOOTH",
"516 446 OFFCURVE",
"436 529 OFFCURVE",
"322 529 CURVE SMOOTH",
"226 529 OFFCURVE",
"141 460 OFFCURVE",
"136 379 CURVE",
"152 329 LINE",
"152 401 OFFCURVE",
"225 462 OFFCURVE",
"312 462 CURVE SMOOTH",
"388 462 OFFCURVE",
"441 403 OFFCURVE",
"441 319 CURVE SMOOTH",
"441 0 LINE"
);
}
